<svg width="23" height="23" viewBox="0 0 23 23" fill="none" xmlns="http://www.w3.org/2000/svg">
<mask id="mask0_2744_1893" style="mask-type:alpha" maskUnits="userSpaceOnUse" x="0" y="0" width="23" height="23">
<rect width="23" height="23" fill="#D9D9D9"/>
</mask>
<g mask="url(#mask0_2744_1893)">
<path d="M4.79167 17.1062C5.65417 16.2597 6.65642 15.5929 7.79844 15.1057C8.94045 14.6186 10.1743 14.375 11.5 14.375C12.8257 14.375 14.0595 14.6186 15.2016 15.1057C16.3436 15.5929 17.3458 16.2597 18.2083 17.1062V4.79167H4.79167V17.1062ZM13.8719 11.476C14.5267 10.8212 14.8542 10.0306 14.8542 9.10417C14.8542 8.17778 14.5267 7.38715 13.8719 6.73229C13.217 6.07743 12.4264 5.75 11.5 5.75C10.5736 5.75 9.78299 6.07743 9.12813 6.73229C8.47326 7.38715 8.14583 8.17778 8.14583 9.10417C8.14583 10.0306 8.47326 10.8212 9.12813 11.476C9.78299 12.1309 10.5736 12.4583 11.5 12.4583C12.4264 12.4583 13.217 12.1309 13.8719 11.476ZM4.79167 20.125C4.26458 20.125 3.81337 19.9373 3.43802 19.562C3.06267 19.1866 2.875 18.7354 2.875 18.2083V4.79167C2.875 4.26458 3.06267 3.81337 3.43802 3.43802C3.81337 3.06267 4.26458 2.875 4.79167 2.875H18.2083C18.7354 2.875 19.1866 3.06267 19.562 3.43802C19.9373 3.81337 20.125 4.26458 20.125 4.79167V18.2083C20.125 18.7354 19.9373 19.1866 19.562 19.562C19.1866 19.9373 18.7354 20.125 18.2083 20.125H4.79167ZM6.44479 18.2083H16.5552C15.8524 17.5854 15.0578 17.1102 14.1714 16.7828C13.2849 16.4554 12.3944 16.2917 11.5 16.2917C10.6056 16.2917 9.70712 16.4554 8.80469 16.7828C7.90226 17.1102 7.11562 17.5854 6.44479 18.2083ZM10.4818 10.1224C10.2023 9.84288 10.0625 9.50347 10.0625 9.10417C10.0625 8.70486 10.2023 8.36545 10.4818 8.08594C10.7613 7.80642 11.1007 7.66667 11.5 7.66667C11.8993 7.66667 12.2387 7.80642 12.5182 8.08594C12.7977 8.36545 12.9375 8.70486 12.9375 9.10417C12.9375 9.50347 12.7977 9.84288 12.5182 10.1224C12.2387 10.4019 11.8993 10.5417 11.5 10.5417C11.1007 10.5417 10.7613 10.4019 10.4818 10.1224Z" fill="#1C1B1F"/>
</g>
</svg>
