<svg width="20" height="20" viewBox="0 0 20 20" fill="none" xmlns="http://www.w3.org/2000/svg">
<rect width="20" height="20" rx="10" fill="#0133EA"/>
<path fill-rule="evenodd" clip-rule="evenodd" d="M4.64473 9.1303C4.31043 9.37041 4.08522 9.73349 4.01862 10.1397C3.95203 10.5458 4.04951 10.9618 4.28962 11.2961L5.19496 12.5565C5.275 12.668 5.39603 12.743 5.53141 12.7652C5.6668 12.7874 5.80546 12.7549 5.91689 12.6749C6.02833 12.5949 6.16699 12.5624 6.30237 12.5846C6.43776 12.6068 6.55879 12.6818 6.63882 12.7933C6.71886 12.9047 6.75136 13.0434 6.72916 13.1788C6.70696 13.3141 6.63189 13.4352 6.52046 13.5152C6.40903 13.5952 6.33395 13.7163 6.31176 13.8517C6.28956 13.987 6.32205 14.1257 6.40209 14.2371L7.30743 15.4976C7.54754 15.8319 7.91062 16.0571 8.31678 16.1237C8.72295 16.1903 9.13893 16.0928 9.47322 15.8527L15.3553 11.6278C15.6896 11.3876 15.9148 11.0246 15.9814 10.6184C16.048 10.2122 15.9505 9.79626 15.7104 9.46197L14.8051 8.20152C14.725 8.09009 14.604 8.01501 14.4686 7.99282C14.3332 7.97062 14.1946 8.00311 14.0831 8.08315C13.9717 8.16319 13.8331 8.19568 13.6977 8.17348C13.5623 8.15128 13.4413 8.07621 13.3612 7.96478C13.2812 7.85335 13.2487 7.71469 13.2709 7.5793C13.2931 7.44391 13.3682 7.32289 13.4796 7.24285C13.591 7.16281 13.6661 7.04179 13.6883 6.9064C13.7105 6.77101 13.678 6.63235 13.598 6.52092L12.6926 5.26047C12.4525 4.92618 12.0894 4.70096 11.6833 4.63437C11.2771 4.56777 10.8611 4.66525 10.5268 4.90537L4.64473 9.1303ZM5.12992 10.6925C5.04988 10.5811 5.01739 10.4424 5.03959 10.3071C5.06179 10.1717 5.13686 10.0506 5.24829 9.9706L6.92889 8.76348L10.5503 13.8053L8.86966 15.0124C8.75823 15.0924 8.61957 15.1249 8.48418 15.1027C8.34879 15.0805 8.22777 15.0055 8.14773 14.894L7.49256 13.9819C7.62468 13.7918 7.7126 13.5746 7.74989 13.3461C7.79234 13.0874 7.76856 12.8222 7.68077 12.5751C7.59297 12.3281 7.44403 12.1073 7.24783 11.9334C7.05163 11.7596 6.81458 11.6382 6.55879 11.5807C6.30301 11.5232 6.03682 11.5315 5.78509 11.6047L5.12992 10.6925Z" fill="#F1F5F9"/>
</svg>
