<svg width="17" height="20" viewBox="0 0 17 20" fill="none" xmlns="http://www.w3.org/2000/svg">
<path d="M1.8077 19.1153C1.30257 19.1153 0.875 18.9403 0.525 18.5903C0.175 18.2403 0 17.8128 0 17.3076V3.92308C0 3.41794 0.175 2.99037 0.525 2.64037C0.875 2.29037 1.30257 2.11537 1.8077 2.11537H3.19233V0.7692C3.19233 0.549984 3.26573 0.366975 3.41253 0.220175C3.55931 0.0733918 3.74232 0 3.96155 0C4.18077 0 4.36378 0.0733918 4.51058 0.220175C4.65736 0.366975 4.73075 0.549984 4.73075 0.7692V2.11537H12.3077V0.749976C12.3077 0.537159 12.3794 0.358958 12.523 0.215375C12.6666 0.0717914 12.8448 0 13.0576 0C13.2704 0 13.4486 0.0717914 13.5922 0.215375C13.7358 0.358958 13.8076 0.537159 13.8076 0.749976V2.11537H15.1923C15.6974 2.11537 16.125 2.29037 16.475 2.64037C16.825 2.99037 17 3.41794 17 3.92308V17.3076C17 17.8128 16.825 18.2403 16.475 18.5903C16.125 18.9403 15.6974 19.1153 15.1923 19.1153H1.8077ZM1.8077 17.6154H15.1923C15.2692 17.6154 15.3397 17.5833 15.4038 17.5192C15.4679 17.4551 15.5 17.3846 15.5 17.3076V7.92308H1.49997V17.3076C1.49997 17.3846 1.53202 17.4551 1.59612 17.5192C1.66024 17.5833 1.73077 17.6154 1.8077 17.6154ZM1.49997 6.4231H15.5V3.92308C15.5 3.84614 15.4679 3.77562 15.4038 3.7115C15.3397 3.6474 15.2692 3.61535 15.1923 3.61535H1.8077C1.73077 3.61535 1.66024 3.6474 1.59612 3.7115C1.53202 3.77562 1.49997 3.84614 1.49997 3.92308V6.4231ZM8.49998 11.6923C8.25511 11.6923 8.04646 11.6061 7.87403 11.4336C7.70159 11.2612 7.61538 11.0525 7.61538 10.8077C7.61538 10.5628 7.70159 10.3542 7.87403 10.1817C8.04646 10.0093 8.25511 9.92308 8.49998 9.92308C8.74484 9.92308 8.95349 10.0093 9.12593 10.1817C9.29836 10.3542 9.38457 10.5628 9.38457 10.8077C9.38457 11.0525 9.29836 11.2612 9.12593 11.4336C8.95349 11.6061 8.74484 11.6923 8.49998 11.6923ZM4.49998 11.6923C4.25511 11.6923 4.04646 11.6061 3.87403 11.4336C3.70159 11.2612 3.61538 11.0525 3.61538 10.8077C3.61538 10.5628 3.70159 10.3542 3.87403 10.1817C4.04646 10.0093 4.25511 9.92308 4.49998 9.92308C4.74484 9.92308 4.95349 10.0093 5.12593 10.1817C5.29836 10.3542 5.38458 10.5628 5.38458 10.8077C5.38458 11.0525 5.29836 11.2612 5.12593 11.4336C4.95349 11.6061 4.74484 11.6923 4.49998 11.6923ZM12.5 11.6923C12.2551 11.6923 12.0465 11.6061 11.874 11.4336C11.7016 11.2612 11.6154 11.0525 11.6154 10.8077C11.6154 10.5628 11.7016 10.3542 11.874 10.1817C12.0465 10.0093 12.2551 9.92308 12.5 9.92308C12.7448 9.92308 12.9535 10.0093 13.1259 10.1817C13.2984 10.3542 13.3846 10.5628 13.3846 10.8077C13.3846 11.0525 13.2984 11.2612 13.1259 11.4336C12.9535 11.6061 12.7448 11.6923 12.5 11.6923ZM8.49998 15.6154C8.25511 15.6154 8.04646 15.5291 7.87403 15.3567C7.70159 15.1843 7.61538 14.9756 7.61538 14.7308C7.61538 14.4859 7.70159 14.2772 7.87403 14.1048C8.04646 13.9324 8.25511 13.8461 8.49998 13.8461C8.74484 13.8461 8.95349 13.9324 9.12593 14.1048C9.29836 14.2772 9.38457 14.4859 9.38457 14.7308C9.38457 14.9756 9.29836 15.1843 9.12593 15.3567C8.95349 15.5291 8.74484 15.6154 8.49998 15.6154ZM4.49998 15.6154C4.25511 15.6154 4.04646 15.5291 3.87403 15.3567C3.70159 15.1843 3.61538 14.9756 3.61538 14.7308C3.61538 14.4859 3.70159 14.2772 3.87403 14.1048C4.04646 13.9324 4.25511 13.8461 4.49998 13.8461C4.74484 13.8461 4.95349 13.9324 5.12593 14.1048C5.29836 14.2772 5.38458 14.4859 5.38458 14.7308C5.38458 14.9756 5.29836 15.1843 5.12593 15.3567C4.95349 15.5291 4.74484 15.6154 4.49998 15.6154ZM12.5 15.6154C12.2551 15.6154 12.0465 15.5291 11.874 15.3567C11.7016 15.1843 11.6154 14.9756 11.6154 14.7308C11.6154 14.4859 11.7016 14.2772 11.874 14.1048C12.0465 13.9324 12.2551 13.8461 12.5 13.8461C12.7448 13.8461 12.9535 13.9324 13.1259 14.1048C13.2984 14.2772 13.3846 14.4859 13.3846 14.7308C13.3846 14.9756 13.2984 15.1843 13.1259 15.3567C12.9535 15.5291 12.7448 15.6154 12.5 15.6154Z" fill="#1C1B1F"/>
</svg>
