<svg width="1440" height="412" viewBox="0 0 1440 412" fill="none" xmlns="http://www.w3.org/2000/svg">
<path d="M1522 0H-11V430.753H1522V0Z" fill="url(#paint0_linear_2858_2182)"/>
<path fill-rule="evenodd" clip-rule="evenodd" d="M925.991 175.066C926.038 175.92 925.384 176.763 924.633 176.821C923.835 176.878 923.036 176.044 923.012 175.134C922.988 174.28 923.651 173.542 924.465 173.523C925.24 173.504 925.943 174.213 925.991 175.066Z" fill="#F0F0F0"/>
<path fill-rule="evenodd" clip-rule="evenodd" d="M465.324 24.9561C465.324 25.7423 464.781 26.3846 464.143 26.3559C463.488 26.3271 462.905 25.5218 462.953 24.6973C463.001 23.8919 463.416 23.4892 464.039 23.4125C464.694 23.3454 465.324 24.1412 465.324 24.9561Z" fill="#E7EBEB"/>
<path fill-rule="evenodd" clip-rule="evenodd" d="M812.246 21.2361C812.908 21.2841 813.459 21.9936 813.451 22.7126C813.435 23.4508 812.821 24.0644 812.19 23.9686C811.575 23.8823 811.032 23.1153 811.136 22.4154C811.24 21.6676 811.647 21.2649 812.246 21.2361Z" fill="#E5E7E7"/>
<path fill-rule="evenodd" clip-rule="evenodd" d="M510.795 163.935C511.362 164.05 511.817 164.386 511.873 165.201C511.929 165.968 511.426 166.658 510.771 166.725C510.109 166.792 509.51 166.15 509.534 165.412C509.566 164.731 510.197 163.955 510.795 163.935Z" fill="#E6EAEA"/>
<path fill-rule="evenodd" clip-rule="evenodd" d="M631.176 156.869C630.633 156.822 630.306 156.428 630.314 155.709C630.33 154.962 630.585 154.386 631.28 154.319C631.887 154.262 632.23 154.674 632.318 155.364C632.405 156.093 631.831 156.86 631.176 156.869Z" fill="#E8ECEC"/>
<path fill-rule="evenodd" clip-rule="evenodd" d="M736.841 236.8C736.777 237.346 736.45 237.797 735.859 237.759C735.26 237.73 734.957 237.241 734.989 236.531C735.021 235.784 735.324 235.218 735.987 235.16C736.482 235.103 736.913 235.899 736.841 236.8Z" fill="#F0EFEF"/>
<path fill-rule="evenodd" clip-rule="evenodd" d="M656.845 49.1356C656.31 49.0397 655.967 48.6466 656.047 48.0426C656.127 47.4002 656.23 46.6237 656.981 46.5853C657.548 46.5566 657.803 46.9976 657.755 47.6303C657.707 48.3302 657.524 48.963 656.845 49.1356Z" fill="#E5E5E5"/>
<path fill-rule="evenodd" clip-rule="evenodd" d="M469.412 139.027C469.356 139.65 469.101 140.063 468.55 140.063C468.095 140.063 467.799 139.746 467.759 139.19C467.711 138.548 467.983 138.097 468.51 138.04C469.053 137.973 469.316 138.414 469.412 139.027Z" fill="#D4DCDC"/>
<path fill-rule="evenodd" clip-rule="evenodd" d="M873.406 55.4249C873.334 56.0289 873.102 56.4891 872.543 56.4412C872.096 56.4028 871.809 55.9906 871.801 55.4728C871.793 54.8401 872.104 54.4566 872.663 54.4853C873.15 54.5141 873.35 54.8976 873.406 55.4249Z" fill="#DFDFDF"/>
<path fill-rule="evenodd" clip-rule="evenodd" d="M1195.08 430.754C1195.07 422.374 1195.66 414.071 1197.09 405.845C1199.14 394.034 1203.89 384.072 1211.19 375.875C1220.65 365.262 1231.65 357.985 1244.27 354.38C1245.45 354.045 1246.08 353.613 1246.2 351.926C1246.51 347.228 1247.34 342.635 1248.58 338.158C1251.48 327.785 1256.52 319.223 1263.84 312.704C1273.1 304.468 1283.55 299.473 1294.81 296.99C1305.3 294.679 1315.75 295.293 1326.08 298.428C1327.98 299.003 1329.83 299.77 1331.63 300.69C1333.35 301.582 1333.04 301.783 1334.5 299.895C1338.71 294.459 1343.26 289.483 1348.25 285.101C1356.62 277.748 1365.79 272.561 1376.09 270.528C1382.2 269.32 1388.35 268.927 1394.51 269.675C1395.74 269.829 1396.48 269.464 1397.15 268.132C1406.94 248.842 1421.45 237.787 1439.65 233.224C1444.7 231.958 1449.79 231.153 1454.98 231.45C1458.4 231.651 1461.74 232.38 1465 233.636C1466.85 234.355 1466.86 234.355 1468.19 232.438C1473.54 224.71 1480.09 218.986 1487.84 215.228C1494.28 212.103 1501 210.444 1507.88 209.62C1512.08 209.121 1516.28 209.073 1520.49 209.207C1520.99 209.226 1521.5 209.14 1522 209.111C1522 282.992 1522 356.863 1522 430.744C1413.03 430.754 1304.05 430.754 1195.08 430.754Z" fill="white"/>
<path fill-rule="evenodd" clip-rule="evenodd" d="M1195.08 430.754C1195.07 422.374 1195.66 414.071 1197.09 405.845C1199.14 394.034 1203.89 384.072 1211.19 375.875C1220.65 365.262 1231.65 357.985 1244.27 354.38C1245.45 354.045 1246.08 353.613 1246.2 351.926C1246.51 347.228 1247.34 342.635 1248.58 338.158C1251.48 327.785 1256.52 319.223 1263.84 312.704C1273.1 304.468 1283.55 299.473 1294.81 296.99C1305.3 294.679 1315.75 295.293 1326.08 298.428C1327.98 299.003 1329.83 299.77 1331.63 300.69C1333.35 301.582 1333.04 301.783 1334.5 299.895C1338.71 294.459 1343.26 289.483 1348.25 285.101C1356.62 277.748 1365.79 272.561 1376.09 270.528C1382.2 269.32 1388.35 268.927 1394.51 269.675C1395.74 269.829 1396.48 269.464 1397.15 268.132C1406.94 248.842 1421.45 237.787 1439.65 233.224C1444.7 231.958 1449.79 231.153 1454.98 231.45C1458.4 231.651 1461.74 232.38 1465 233.636C1466.85 234.355 1466.86 234.355 1468.19 232.438C1473.54 224.71 1480.09 218.986 1487.84 215.228C1494.28 212.103 1501 210.444 1507.88 209.62C1512.08 209.121 1516.28 209.073 1520.49 209.207C1520.99 209.226 1521.5 209.14 1522 209.111C1522 282.992 1522 356.863 1522 430.744C1413.03 430.754 1304.05 430.754 1195.08 430.754Z" fill="url(#paint1_linear_2858_2182)"/>
<path fill-rule="evenodd" clip-rule="evenodd" d="M1288.23 431.434C1288.26 431.175 1288.22 430.888 1288.31 430.667C1292.02 420.869 1296.43 411.607 1302.82 403.909C1309.7 395.635 1318.01 391.34 1327.75 391.09C1330.29 391.023 1332.84 391.004 1335.35 391.435C1336.48 391.627 1337.02 391.282 1337.51 390.036C1342.34 377.869 1349.02 367.304 1357.08 357.995C1363.9 350.114 1371.54 343.805 1380.66 340.315C1388.54 337.305 1396.61 336.941 1404.76 337.593C1408.59 337.899 1412.42 338.331 1416.18 339.299C1417.12 339.539 1417.66 339.146 1418.24 338.369C1420.77 334.994 1423.44 331.821 1426.34 328.897C1430.48 324.726 1434.97 321.256 1439.97 318.782C1441.11 318.216 1441.87 317.421 1442.44 316.098C1444.56 311.265 1447.35 307.076 1450.9 303.624C1457.15 297.536 1464.29 295.571 1472.12 297.306C1473.62 297.632 1474.56 297.191 1475.64 296.175C1484.59 287.786 1494.61 282.12 1505.78 279.598C1511.13 278.39 1516.54 277.786 1522 278.285C1522 329.338 1522 380.391 1522 431.444C1444.08 431.434 1366.16 431.434 1288.23 431.434Z" fill="white"/>
<path fill-rule="evenodd" clip-rule="evenodd" d="M95.7273 250.913C95.4159 250.932 94.8969 250.75 94.849 249.868C94.8011 249.024 95.5037 248.295 96.3181 248.305C96.9409 248.305 97.4279 248.583 97.5238 249.407C97.6116 250.203 96.9489 250.855 95.7273 250.913Z" fill="#F2F1F1"/>
<path fill-rule="evenodd" clip-rule="evenodd" d="M-10.9998 310.719C-7.42283 308.236 -3.82986 305.791 0.20225 304.487C10.2626 301.218 20.259 301.093 30.1037 305.609C31.2774 306.146 31.7805 305.647 32.4591 304.746C37.2338 298.485 42.7829 293.481 49.5058 290.7C60.3965 286.194 71.1674 286.587 81.603 292.771C82.6888 293.414 83.2797 293.519 84.126 292.254C86.6012 288.572 89.6512 285.59 92.8689 282.896C99.7434 277.134 106.977 272.216 115.193 269.752C134.883 263.836 155.323 273.184 166.684 293.346C167.387 294.593 168.034 294.976 169.311 294.794C175.22 293.951 181.048 294.861 186.765 296.616C201.456 301.122 214.375 309.626 225.473 322.013C230.264 327.353 233.737 333.882 236.22 341.149C236.588 342.233 236.979 343.048 238.057 343.431C249.355 347.439 258.976 354.898 267.559 364.389C282.689 381.119 291.991 401.742 295.76 425.989C295.856 426.583 295.848 427.197 295.888 427.801C193.592 427.801 91.288 427.801 -11.0078 427.801C-10.9998 388.78 -10.9998 349.749 -10.9998 310.719Z" fill="white"/>
<path fill-rule="evenodd" clip-rule="evenodd" d="M-10.9998 310.719C-7.42283 308.236 -3.82986 305.791 0.20225 304.487C10.2626 301.218 20.259 301.093 30.1037 305.609C31.2774 306.146 31.7805 305.647 32.4591 304.746C37.2338 298.485 42.7829 293.481 49.5058 290.7C60.3965 286.194 71.1674 286.587 81.603 292.771C82.6888 293.414 83.2797 293.519 84.126 292.254C86.6012 288.572 89.6512 285.59 92.8689 282.896C99.7434 277.134 106.977 272.216 115.193 269.752C134.883 263.836 155.323 273.184 166.684 293.346C167.387 294.593 168.034 294.976 169.311 294.794C175.22 293.951 181.048 294.861 186.765 296.616C201.456 301.122 214.375 309.626 225.473 322.013C230.264 327.353 233.737 333.882 236.22 341.149C236.588 342.233 236.979 343.048 238.057 343.431C249.355 347.439 258.976 354.898 267.559 364.389C282.689 381.119 291.991 401.742 295.76 425.989C295.856 426.583 295.848 427.197 295.888 427.801C193.592 427.801 91.288 427.801 -11.0078 427.801C-10.9998 388.78 -10.9998 349.749 -10.9998 310.719Z" fill="url(#paint2_linear_2858_2182)"/>
<path fill-rule="evenodd" clip-rule="evenodd" d="M-11 284.229C-6.16945 281.822 -1.25906 279.742 3.94675 278.85C17.3845 276.549 30.399 278.256 42.8546 284.996C51.1903 289.502 58.7355 295.427 65.2987 303.116C69.0913 307.555 72.8998 311.965 76.4449 316.692C77.2593 317.775 77.922 317.9 79.0638 317.44C90.5293 312.838 102.25 311.754 114.259 313.336C131.777 315.656 145.622 325.925 157.287 341.149C160.089 344.812 162.413 348.925 164.457 353.258C165.574 355.626 165.574 355.607 167.81 355.118C177.958 352.923 188.027 353.277 197.951 356.719C209.065 360.583 218.902 367.313 227.573 376.441C241.147 390.726 251.119 408.012 257.155 428.491C167.77 428.491 78.3851 428.491 -11 428.491C-11 380.41 -11 332.319 -11 284.229Z" fill="white"/>
<path fill-rule="evenodd" clip-rule="evenodd" d="M-11 284.229C-6.16945 281.822 -1.25906 279.742 3.94675 278.85C17.3845 276.549 30.399 278.256 42.8546 284.996C51.1903 289.502 58.7355 295.427 65.2987 303.116C69.0913 307.555 72.8998 311.965 76.4449 316.692C77.2593 317.775 77.922 317.9 79.0638 317.44C90.5293 312.838 102.25 311.754 114.259 313.336C131.777 315.656 145.622 325.925 157.287 341.149C160.089 344.812 162.413 348.925 164.457 353.258C165.574 355.626 165.574 355.607 167.81 355.118C177.958 352.923 188.027 353.277 197.951 356.719C209.065 360.583 218.902 367.313 227.573 376.441C241.147 390.726 251.119 408.012 257.155 428.491C167.77 428.491 78.3851 428.491 -11 428.491C-11 380.41 -11 332.319 -11 284.229Z" fill="url(#paint3_linear_2858_2182)"/>
<path fill-rule="evenodd" clip-rule="evenodd" d="M1288.23 431.434C1288.26 431.175 1288.22 430.888 1288.31 430.667C1292.02 420.869 1296.43 411.607 1302.82 403.909C1309.7 395.635 1318.01 391.34 1327.75 391.09C1330.29 391.023 1332.84 391.004 1335.35 391.435C1336.48 391.627 1337.02 391.282 1337.51 390.036C1342.34 377.869 1349.02 367.304 1357.08 357.995C1363.9 350.114 1371.54 343.805 1380.66 340.315C1388.54 337.305 1396.61 336.941 1404.76 337.593C1408.59 337.899 1412.42 338.331 1416.18 339.299C1417.12 339.539 1417.66 339.146 1418.24 338.369C1420.77 334.994 1423.44 331.821 1426.34 328.897C1430.48 324.726 1434.97 321.256 1439.97 318.782C1441.11 318.216 1441.87 317.421 1442.44 316.098C1444.56 311.265 1447.35 307.076 1450.9 303.624C1457.15 297.536 1464.29 295.571 1472.12 297.306C1473.62 297.632 1474.56 297.191 1475.64 296.175C1484.59 287.786 1494.61 282.12 1505.78 279.598C1511.13 278.39 1516.54 277.786 1522 278.285C1522 329.338 1522 380.391 1522 431.444C1444.08 431.434 1366.16 431.434 1288.23 431.434Z" fill="url(#paint4_linear_2858_2182)"/>
<path fill-rule="evenodd" clip-rule="evenodd" d="M529.846 430.629C529.91 426.995 530.772 423.572 531.874 420.255C536.672 405.817 545.024 395.098 556.186 387.485C565.065 381.436 574.67 378.176 584.85 377.409C588.172 377.16 588.172 377.179 589.321 373.248C592.156 363.613 596.411 354.946 601.969 347.237C612.548 332.559 625.267 321.342 640.581 315.024C662.259 306.079 682.81 310.124 702.188 324.285C703.841 325.493 705.462 326.787 706.939 328.273C708.113 329.443 709.159 329.558 710.588 329.04C719.626 325.781 728.864 324.084 738.326 324.448C756.538 325.148 771.134 334.218 782 351.791C783.022 353.44 783.893 353.958 785.641 353.709C796.963 352.069 808.269 352.146 819.239 356.393C834.513 362.299 845.787 374.284 854.099 390.544C854.219 390.774 854.347 390.994 854.435 391.244C854.922 392.691 855.632 393.123 857.029 392.768C860.598 391.867 864.231 391.493 867.896 391.493C880.743 391.483 890.069 398.425 896.081 411.952C898.412 417.197 899.914 422.796 900.959 428.577C901.087 429.267 901.263 429.958 901.415 430.648C777.561 430.629 653.707 430.629 529.846 430.629Z" fill="url(#paint5_linear_2858_2182)"/>
<g opacity="0.3">
<path fill-rule="evenodd" clip-rule="evenodd" d="M812.277 487.981C812.341 484.347 813.204 480.924 814.305 477.607C819.104 463.169 827.456 452.45 838.618 444.837C847.496 438.788 857.102 435.528 867.282 434.761C870.603 434.512 870.603 434.531 871.753 430.6C874.587 420.965 878.843 412.298 884.4 404.589C894.979 389.911 907.699 378.694 923.013 372.376C944.69 363.431 965.242 367.476 984.62 381.637C986.273 382.845 987.894 384.139 989.371 385.625C990.545 386.795 991.59 386.91 993.02 386.392C1002.06 383.133 1011.3 381.436 1020.76 381.8C1038.97 382.5 1053.57 391.57 1064.43 409.143C1065.45 410.792 1066.32 411.31 1068.07 411.061C1079.39 409.421 1090.7 409.498 1101.67 413.745C1116.95 419.651 1128.22 431.635 1136.53 447.896C1136.65 448.126 1136.78 448.346 1136.87 448.596C1137.35 450.043 1138.06 450.475 1139.46 450.12C1143.03 449.219 1146.66 448.845 1150.33 448.845C1163.17 448.835 1172.5 455.777 1178.51 469.304C1180.84 474.549 1182.35 480.148 1183.39 485.929C1183.52 486.619 1183.69 487.31 1183.85 488C1059.99 487.981 936.139 487.981 812.277 487.981Z" fill="url(#paint6_linear_2858_2182)"/>
</g>
<g opacity="0.38">
<path fill-rule="evenodd" clip-rule="evenodd" d="M594.176 76.383C594.551 76.2584 594.719 76.6323 594.918 76.872C596.539 78.7799 598.256 80.6015 599.374 83.0463C599.781 83.8708 599.23 84.3022 598.831 84.7145C594.495 89.2589 589.489 91.4353 583.684 90.9751C578.997 90.6012 574.678 89.0576 570.877 85.6732C569.999 84.8967 569.129 84.8104 568.163 85.376C566.19 86.5361 564.13 87.4181 562.039 88.1947C555.699 90.5628 549.751 89.7383 544.369 84.9158C543.108 83.7845 542.102 83.7366 540.8 84.7528C538.022 86.9196 535.059 88.6453 531.937 90.0547C527.442 92.0968 522.907 92.7583 518.156 91.8667C514.524 91.186 510.883 90.6491 507.737 88.0797C507.314 87.7345 506.787 87.6003 506.268 87.6578C503.625 87.955 501.022 88.3481 498.651 90.0259C494.363 93.0556 489.668 94.6087 484.742 95.1456C483.161 95.3182 481.572 94.973 480.247 93.7746C479.696 93.2761 479.025 92.7871 479.241 91.7229C480.334 90.141 481.692 88.9713 483.201 88.0317C483.456 88.0989 483.696 88.1084 483.943 87.9742C488.439 85.4911 493.006 83.2764 497.988 82.6244C498.539 82.5477 499.098 82.4039 499.609 82.1355C499.792 82.0396 499.992 81.9533 500.128 81.5986C499.792 81.0904 499.042 81.426 498.754 80.7932C499.106 80.5152 499.521 80.4385 499.904 80.496C501.206 80.6974 502.068 80.1317 502.411 78.5689C505.924 73.3055 510.883 70.6881 515.833 68.1282C519.61 66.1724 523.522 64.6001 527.45 63.1044C530.436 61.9731 533.558 61.9635 536.624 61.5225C544.345 60.4008 551.355 63.5359 558.398 66.5271C559.02 67.2462 559.627 66.345 560.242 66.4984C564.721 67.5913 569.352 67.3229 573.816 68.5597C575.101 68.9144 576.402 69.2308 577.648 69.7677C580.906 71.1579 584.163 72.5289 587.557 73.363C589.92 73.8999 592.1 74.9832 594.176 76.383Z" fill="#E9FBFF"/>
<path fill-rule="evenodd" clip-rule="evenodd" d="M479.257 91.7037C480.67 94.417 482.842 94.7238 485.229 94.5032C487.465 94.3019 489.621 93.6787 491.76 92.9117C494.156 92.0585 496.455 90.9847 498.603 89.4219C500.264 88.2043 502.14 87.7729 504.056 87.3223C506.284 86.795 508.072 87.4757 509.925 88.8467C511.522 90.0259 513.382 90.5149 515.282 90.7354C517.191 90.9559 519.075 91.4832 520.975 91.7229C522.333 91.8955 523.69 91.6845 525.063 91.5216C527.003 91.2819 528.848 90.7354 530.676 90.0067C534.309 88.5494 537.71 86.5457 540.92 84.0434C541.216 83.8133 541.543 83.6311 541.846 83.401C542.429 82.9696 542.94 82.9312 543.507 83.5161C544.122 84.1488 544.825 84.657 545.479 85.2226C548.434 87.7729 551.795 88.6549 555.364 88.8754C559.308 89.1151 562.821 87.3223 566.382 85.7307C567.428 85.261 568.418 84.3502 569.472 84.2543C570.566 84.1584 571.397 85.4431 572.307 86.1814C574.798 88.1851 577.576 89.2493 580.483 89.9876C582.032 90.3807 583.605 90.3423 585.154 90.6203C586.479 90.8504 587.868 90.3902 589.186 89.978C591.94 89.1055 594.687 88.1276 596.939 85.9033C597.809 85.0405 598.919 84.4269 599.374 83.0367C600.005 83.8708 600.244 84.9446 600.571 85.9609C600.771 86.584 600.843 87.2647 601.218 87.8016C605.067 89.93 606.36 95.299 604.109 99.6805C602.504 102.806 600.276 104.637 597.162 104.896C593.873 105.164 590.567 105.701 587.277 105.251C582.311 104.57 577.616 102.825 573.528 99.2011C572.474 98.2615 571.636 98.1944 570.558 99.2203C562.63 106.823 550.821 104.819 543.819 99.4504C543.651 99.3161 543.443 99.2107 543.323 99.0189C541.894 96.7275 540.425 97.2932 538.613 98.5491C531.786 103.305 524.361 104.484 516.624 103.324C513.127 102.796 509.989 101.051 507.082 98.693C505.27 97.2165 505.23 97.1877 503.45 98.6834C498.763 102.643 493.653 104.819 487.848 104.455C483.409 104.177 479.928 101.972 477.524 97.4466C477.021 96.507 476.598 95.5195 477.149 94.3786C477.716 93.3528 478.411 92.4419 479.257 91.7037Z" fill="#AD1B29"/>
<path fill-rule="evenodd" clip-rule="evenodd" d="M477.149 94.3978C477.053 96.2194 477.979 97.5041 478.841 98.7696C481.293 102.365 484.534 103.813 488.351 103.947C493.7 104.139 498.435 102.154 502.787 98.5875C503.617 97.9068 504.399 96.6892 505.35 96.8138C506.204 96.9289 506.962 97.9931 507.777 98.6162C510.683 100.841 513.773 102.394 517.238 102.883C519.985 103.266 522.684 103.209 525.43 102.892C528.081 102.595 530.636 101.991 533.159 101.004C535.451 100.112 537.527 98.6834 539.627 97.3219C539.986 97.0918 540.337 96.8426 540.68 96.5933C541.12 96.2769 541.511 96.2482 541.902 96.7467C544.721 100.304 548.361 102.029 552.242 102.921C556.921 103.995 561.631 104.33 566.127 101.742C567.915 100.716 569.672 99.5942 571.141 97.9739C571.724 97.3315 572.203 97.3411 572.738 97.8588C573.249 98.367 573.864 98.7121 574.359 99.2011C577.121 101.943 580.507 102.959 583.82 104.004C586.072 104.714 588.435 105.49 590.862 104.685C591.333 104.532 591.876 104.608 592.387 104.647C594.328 104.8 596.244 104.474 598.16 104.244C600.667 103.937 603.502 100.773 604.324 97.8876C605.474 93.8609 604.34 90.9175 601.705 88.4823C601.513 88.3002 601.378 88.0221 601.218 87.792C605.027 87.6482 607.957 89.7287 610.416 93.0076C611.015 93.8034 611.334 94.8005 611.526 95.7975C612.173 99.1436 612.053 102.49 611.175 105.749C610.592 107.926 609.178 109.22 607.558 110.246C606.033 111.214 604.364 111.425 602.687 111.578C593.138 112.432 583.565 112.643 573.991 112.691C564.266 112.739 554.541 112.7 544.816 113.007C539.211 113.18 533.614 112.882 528.017 112.739C521.901 112.576 515.801 112.959 509.693 113.304C502.116 113.736 494.531 113.947 486.938 114.023C485.668 114.033 484.391 113.908 483.121 113.793C480.662 113.573 478.482 112.432 476.534 110.687C474.019 108.434 473.053 104.819 473.979 101.214C474.626 98.6738 475.672 96.3824 477.149 94.3978Z" fill="#9CDBF1"/>
<path fill-rule="evenodd" clip-rule="evenodd" d="M558.421 66.4984C558.142 66.9202 557.814 66.786 557.463 66.6422C556.266 66.1436 555.044 65.7122 553.854 65.1945C551.036 63.9673 548.137 63.0948 545.239 62.232C544.736 62.0786 544.233 62.0977 543.73 62.0882C542.924 62.069 542.109 62.1553 541.319 61.8101C541.047 61.6951 540.696 61.6567 540.417 61.743C538.333 62.4621 536.185 61.8868 534.061 62.347C532.592 62.673 531.059 62.673 529.558 63.0277C527.25 63.5742 525.087 64.6192 522.883 65.5013C520.48 66.46 518.092 67.5051 515.769 68.7227C512.431 70.4772 509.102 72.3084 506.14 74.9257C505.269 75.6927 504.607 76.6994 503.816 77.5623C503.409 78.0033 503.098 78.6265 502.435 78.5498C502.403 77.5623 502.97 76.872 503.297 76.0666C504.854 72.1933 506.802 68.646 509.246 65.4821C511.848 62.1169 514.97 59.8447 518.595 58.5312C526.268 55.77 534.093 55.051 541.99 56.6233C546.972 57.6204 551.818 59.2982 555.914 63.1428C556.912 64.0823 557.902 65.0315 558.421 66.4984Z" fill="#FAFEFF"/>
<path fill-rule="evenodd" clip-rule="evenodd" d="M594.175 76.383C594 76.709 593.776 76.6994 593.521 76.5268C590.598 74.5806 587.373 73.8136 584.163 72.9411C582.223 72.4138 580.418 71.4455 578.558 70.6593C576.163 69.643 573.688 68.9815 571.212 68.4446C569.647 68.1091 568.003 67.994 566.39 67.9844C564.601 67.9652 562.893 67.4188 561.144 67.1311C560.801 67.0736 560.473 66.8531 560.258 66.4792C560.521 66.1628 560.937 66.4408 561.2 66.134C570.158 63.114 578.766 63.8139 586.894 69.6143C589.042 71.1483 591.006 72.9699 592.962 74.8202C593.449 75.2804 593.633 76.0187 594.175 76.383Z" fill="#F9FEFF"/>
<path fill-rule="evenodd" clip-rule="evenodd" d="M498.778 80.7645C499.481 80.7932 500.192 80.822 500.894 80.8699C500.966 80.8795 501.038 81.0137 501.166 81.148C500.83 82.4231 499.888 82.7203 498.962 82.9504C497.732 83.2476 496.495 83.564 495.241 83.6695C493.844 83.7845 492.575 84.3981 491.321 84.9925C488.974 86.0951 486.498 86.8333 484.255 88.2427C483.864 88.4919 483.488 88.5878 483.217 88.0126C487.616 84.8487 492.127 82.0012 497.269 80.9562C497.764 80.8603 498.275 80.8316 498.778 80.7645Z" fill="#F6FCFE"/>
<path fill-rule="evenodd" clip-rule="evenodd" d="M561.209 66.1341C560.962 66.5271 560.626 66.5463 560.267 66.4792C560.522 66.1532 560.85 66.0861 561.209 66.1341Z" fill="#CFF4FF"/>
</g>
<g opacity="0.38">
<path fill-rule="evenodd" clip-rule="evenodd" d="M314.859 191.164C315.235 191.039 315.402 191.413 315.602 191.653C317.223 193.561 318.939 195.382 320.057 197.827C320.464 198.651 319.913 199.083 319.514 199.495C315.179 204.04 310.172 206.216 304.368 205.756C299.681 205.382 295.361 203.838 291.561 200.454C290.683 199.677 289.812 199.591 288.846 200.157C286.874 201.317 284.814 202.199 282.722 202.975C276.383 205.344 270.434 204.519 265.053 199.697C263.791 198.565 262.785 198.517 261.484 199.534C258.705 201.7 255.743 203.426 252.621 204.835C248.126 206.878 243.591 207.539 238.84 206.647C235.207 205.967 231.566 205.43 228.42 202.86C227.997 202.515 227.47 202.381 226.951 202.439C224.308 202.736 221.706 203.129 219.334 204.807C215.047 207.836 210.352 209.389 205.425 209.926C203.844 210.099 202.256 209.754 200.93 208.555C200.379 208.057 199.709 207.568 199.924 206.504C201.018 204.922 202.375 203.752 203.884 202.812C204.14 202.88 204.379 202.889 204.627 202.755C209.122 200.272 213.689 198.057 218.671 197.405C219.222 197.328 219.781 197.185 220.292 196.916C220.476 196.82 220.676 196.734 220.811 196.379C220.476 195.871 219.725 196.207 219.438 195.574C219.789 195.296 220.204 195.219 220.588 195.277C221.889 195.478 222.751 194.912 223.095 193.35C226.608 188.086 231.566 185.469 236.517 182.909C240.293 180.953 244.205 179.381 248.134 177.885C251.12 176.754 254.242 176.744 257.308 176.303C265.029 175.181 272.039 178.317 279.081 181.308C279.704 182.027 280.311 181.126 280.926 181.279C285.405 182.372 290.036 182.104 294.499 183.34C295.785 183.695 297.086 184.012 298.332 184.548C301.589 185.939 304.847 187.31 308.24 188.144C310.604 188.681 312.783 189.764 314.859 191.164Z" fill="#E9FBFF"/>
<path fill-rule="evenodd" clip-rule="evenodd" d="M199.94 206.484C201.354 209.198 203.525 209.504 205.913 209.284C208.148 209.083 210.304 208.459 212.444 207.692C214.839 206.839 217.139 205.765 219.287 204.203C220.947 202.985 222.824 202.554 224.74 202.103C226.968 201.576 228.756 202.256 230.608 203.627C232.205 204.807 234.066 205.296 235.966 205.516C237.874 205.737 239.759 206.264 241.659 206.504C243.016 206.676 244.374 206.465 245.747 206.302C247.687 206.063 249.531 205.516 251.36 204.787C254.993 203.33 258.394 201.326 261.604 198.824C261.899 198.594 262.227 198.412 262.53 198.182C263.113 197.75 263.624 197.712 264.191 198.297C264.806 198.93 265.508 199.438 266.163 200.003C269.117 202.554 272.479 203.436 276.048 203.656C279.992 203.896 283.505 202.103 287.066 200.511C288.112 200.042 289.102 199.131 290.156 199.035C291.25 198.939 292.08 200.224 292.99 200.962C295.482 202.966 298.26 204.03 301.166 204.768C302.715 205.161 304.288 205.123 305.837 205.401C307.163 205.631 308.552 205.171 309.869 204.759C312.624 203.886 315.371 202.908 317.622 200.684C318.492 199.821 319.602 199.208 320.057 197.817C320.688 198.651 320.928 199.725 321.255 200.742C321.455 201.365 321.527 202.045 321.902 202.582C325.75 204.711 327.044 210.08 324.792 214.461C323.187 217.587 320.96 219.418 317.846 219.677C314.556 219.945 311.251 220.482 307.961 220.031C302.995 219.351 298.3 217.606 294.212 213.982C293.158 213.042 292.32 212.975 291.242 214.001C283.313 221.604 271.504 219.6 264.502 214.231C264.334 214.097 264.127 213.991 264.007 213.8C262.578 211.508 261.109 212.074 259.296 213.33C252.47 218.085 245.044 219.264 237.307 218.104C233.81 217.577 230.672 215.832 227.766 213.474C225.954 211.997 225.914 211.968 224.133 213.464C219.446 217.424 214.336 219.6 208.532 219.236C204.092 218.958 200.611 216.753 198.208 212.227C197.705 211.288 197.282 210.3 197.833 209.159C198.399 208.133 199.094 207.223 199.94 206.484Z" fill="#AD1B29"/>
<path fill-rule="evenodd" clip-rule="evenodd" d="M197.832 209.178C197.737 211 198.663 212.285 199.525 213.55C201.976 217.146 205.218 218.593 209.034 218.728C214.384 218.919 219.119 216.935 223.47 213.368C224.301 212.687 225.083 211.47 226.033 211.595C226.888 211.71 227.646 212.774 228.46 213.397C231.367 215.621 234.457 217.174 237.922 217.663C240.669 218.047 243.367 217.989 246.114 217.673C248.765 217.376 251.32 216.772 253.843 215.784C256.134 214.893 258.21 213.464 260.31 212.103C260.669 211.873 261.021 211.623 261.364 211.374C261.803 211.058 262.194 211.029 262.586 211.527C265.404 215.084 269.045 216.81 272.925 217.702C277.604 218.776 282.315 219.111 286.81 216.522C288.599 215.497 290.355 214.375 291.824 212.755C292.407 212.112 292.886 212.122 293.421 212.64C293.932 213.148 294.547 213.493 295.042 213.982C297.805 216.724 301.19 217.74 304.504 218.785C306.755 219.495 309.119 220.271 311.546 219.466C312.017 219.312 312.56 219.389 313.071 219.427C315.011 219.581 316.927 219.255 318.844 219.025C321.351 218.718 324.185 215.554 325.008 212.668C326.157 208.642 325.023 205.698 322.389 203.263C322.197 203.081 322.061 202.803 321.902 202.573C325.71 202.429 328.64 204.509 331.1 207.788C331.698 208.584 332.018 209.581 332.209 210.578C332.856 213.924 332.736 217.27 331.858 220.53C331.275 222.706 329.862 224.001 328.241 225.027C326.716 225.995 325.047 226.206 323.371 226.359C313.821 227.212 304.248 227.423 294.675 227.471C284.95 227.519 275.225 227.481 265.5 227.788C259.895 227.96 254.298 227.663 248.701 227.519C242.585 227.356 236.485 227.74 230.377 228.085C222.8 228.516 215.214 228.727 207.621 228.804C206.352 228.814 205.074 228.689 203.805 228.574C201.346 228.353 199.166 227.212 197.218 225.468C194.703 223.214 193.736 219.6 194.663 215.995C195.309 213.454 196.355 211.163 197.832 209.178Z" fill="#9CDBF1"/>
<path fill-rule="evenodd" clip-rule="evenodd" d="M279.105 181.279C278.825 181.701 278.498 181.567 278.147 181.423C276.949 180.924 275.728 180.493 274.538 179.975C271.719 178.748 268.821 177.876 265.923 177.013C265.42 176.859 264.917 176.878 264.414 176.869C263.607 176.85 262.793 176.936 262.002 176.591C261.731 176.476 261.38 176.437 261.1 176.524C259.016 177.243 256.868 176.668 254.745 177.128C253.275 177.454 251.742 177.454 250.241 177.808C247.934 178.355 245.77 179.4 243.566 180.282C241.163 181.241 238.776 182.286 236.452 183.503C233.115 185.258 229.785 187.089 226.823 189.706C225.953 190.473 225.29 191.48 224.5 192.343C224.093 192.784 223.781 193.407 223.118 193.33C223.087 192.343 223.653 191.653 223.981 190.847C225.538 186.974 227.486 183.427 229.929 180.263C232.532 176.898 235.654 174.625 239.279 173.312C246.952 170.551 254.777 169.832 262.673 171.404C267.655 172.401 272.502 174.079 276.598 177.923C277.596 178.863 278.586 179.812 279.105 181.279Z" fill="#FAFEFF"/>
<path fill-rule="evenodd" clip-rule="evenodd" d="M314.859 191.164C314.683 191.49 314.46 191.48 314.204 191.308C311.282 189.361 308.056 188.594 304.847 187.722C302.906 187.195 301.102 186.226 299.242 185.44C296.846 184.424 294.371 183.762 291.896 183.225C290.331 182.89 288.686 182.775 287.073 182.765C285.285 182.746 283.576 182.199 281.828 181.912C281.484 181.854 281.157 181.634 280.941 181.26C281.205 180.944 281.62 181.222 281.884 180.915C290.842 177.895 299.449 178.595 307.577 184.395C309.725 185.929 311.689 187.751 313.645 189.601C314.132 190.061 314.316 190.799 314.859 191.164Z" fill="#F9FEFF"/>
<path fill-rule="evenodd" clip-rule="evenodd" d="M219.462 195.545C220.165 195.574 220.875 195.603 221.578 195.651C221.65 195.66 221.722 195.794 221.849 195.929C221.514 197.204 220.572 197.501 219.646 197.731C218.416 198.028 217.178 198.345 215.925 198.45C214.528 198.565 213.258 199.179 212.005 199.773C209.657 200.876 207.182 201.614 204.938 203.023C204.547 203.273 204.172 203.369 203.9 202.793C208.3 199.629 212.811 196.782 217.953 195.737C218.448 195.641 218.959 195.612 219.462 195.545Z" fill="#F6FCFE"/>
<path fill-rule="evenodd" clip-rule="evenodd" d="M281.884 180.915C281.636 181.308 281.301 181.327 280.941 181.26C281.205 180.934 281.533 180.867 281.884 180.915Z" fill="#CFF4FF"/>
</g>
<g opacity="0.38">
<path fill-rule="evenodd" clip-rule="evenodd" d="M688.583 156.218C685.294 156.275 682.411 157.675 679.88 160.139C679.01 160.983 678.148 161.884 677.669 163.159C677.333 164.645 678.004 165.795 678.755 166.677C681.022 169.362 683.721 170.877 687.018 170.33C687.969 170.167 688.847 169.793 689.573 169.007C690.3 168.231 691.027 168.154 691.801 168.911C693.422 170.512 695.274 171.078 697.366 171.04C700.496 170.982 703.602 170.963 706.596 169.592C707.81 169.036 708.896 168.24 709.966 167.416C710.956 166.658 711.794 166.668 712.736 167.588C714.804 169.63 717.136 171.049 719.802 171.596C721.87 172.018 723.922 171.931 725.958 171.27C727.228 170.858 728.178 169.937 728.793 168.557C729.208 167.627 729.759 167.454 730.573 167.694C731.755 168.039 732.881 168.518 733.935 169.237C735.044 169.995 736.25 170.33 737.52 170.186C740.322 169.88 743.037 169.256 745.336 167.09C746.67 165.843 747.181 164.022 746.686 162.2C746.023 161.078 745.145 160.244 744.147 159.612C741.799 158.097 739.364 156.831 736.681 156.496C736.306 156.448 736.059 156.285 735.859 155.93C732.513 153.437 729.471 150.369 725.695 148.711C720.744 146.534 715.73 145.614 710.692 147.877C708.073 149.056 705.454 149.42 702.7 149.698C698.125 150.158 693.749 151.702 690.053 155.268C689.629 155.671 689.142 156.035 688.583 156.218Z" fill="#E9FBFF"/>
<path fill-rule="evenodd" clip-rule="evenodd" d="M746.686 162.2C746.781 163.025 746.606 163.83 746.422 164.597C746.199 165.517 745.743 166.236 745.073 166.86C743.372 168.432 741.408 169.084 739.364 169.506C738.773 169.63 738.19 169.765 737.583 169.812C736.258 169.899 735.036 169.602 733.919 168.758C732.785 167.905 731.491 167.579 730.238 167.138C729.415 166.85 729.048 167.042 728.689 167.972C728.002 169.774 726.82 170.742 725.24 171.088C721.128 171.998 717.335 171.174 713.95 168.106C713.439 167.646 712.912 167.214 712.393 166.764C711.762 166.208 711.171 166.083 710.437 166.649C708.416 168.221 706.301 169.602 703.881 170.1C702.779 170.33 701.662 170.503 700.544 170.57C699.266 170.656 697.981 170.541 696.703 170.608C694.827 170.704 693.262 169.841 691.865 168.441C691.098 167.675 690.292 167.579 689.661 168.346C688.208 170.129 686.404 170.196 684.535 169.918C682.523 169.621 680.838 168.403 679.345 166.879C678.427 165.939 677.868 164.616 677.669 163.14C675.465 167.023 677.333 172.161 679.792 173.973C681.629 175.325 683.649 175.948 685.757 176.313C687.218 176.562 688.687 176.533 690.156 176.687C697.909 177.492 705.662 177.387 713.415 176.907C715.674 176.763 717.942 176.773 720.193 176.898C726.03 177.204 731.875 176.974 737.711 177.041C739.18 177.061 740.649 177.137 742.111 176.869C743.268 176.658 744.418 176.389 745.528 175.968C748.131 174.98 749.784 171.605 749.304 168.384C748.945 166.006 748.099 163.935 746.686 162.2Z" fill="#9BD9F5"/>
<path fill-rule="evenodd" clip-rule="evenodd" d="M688.583 156.218C688.711 156.419 688.878 156.524 689.07 156.419C689.445 156.208 689.86 156.045 690.164 155.729C692.735 153.044 695.833 151.75 699.066 150.801C701.27 150.158 703.49 149.823 705.749 149.976C706.795 150.053 707.738 149.736 708.672 149.18C710.468 148.107 712.408 147.589 714.381 147.244C715.043 147.129 715.706 146.985 716.385 146.966C718.317 146.918 720.193 147.253 722.053 147.809C725.327 148.778 728.393 150.331 731.18 152.613C732.018 153.293 732.792 154.08 733.623 154.779C734.294 155.345 734.972 155.94 735.859 155.93C734.741 151.769 733.104 147.982 730.094 145.336C727.539 143.092 724.624 141.875 721.455 141.904C718.285 141.942 715.163 142.517 712.145 143.792C710.452 144.511 708.919 145.537 707.642 147.052C707.235 147.531 706.883 147.627 706.348 147.445C703.498 146.486 700.711 146.707 697.941 147.982C696.32 148.73 694.771 149.621 693.214 150.532C691.29 151.664 689.773 153.255 688.862 155.623C688.791 155.834 688.679 156.016 688.583 156.218Z" fill="#FAFEFF"/>
</g>
<g opacity="0.38">
<path fill-rule="evenodd" clip-rule="evenodd" d="M1300.14 184.059C1296.85 184.117 1293.97 185.517 1291.44 187.981C1290.56 188.824 1289.7 189.726 1289.22 191.001C1288.89 192.487 1289.56 193.637 1290.31 194.519C1292.58 197.204 1295.28 198.719 1298.57 198.172C1299.52 198.009 1300.4 197.635 1301.13 196.849C1301.85 196.072 1302.58 195.996 1303.36 196.753C1304.98 198.354 1306.83 198.92 1308.92 198.882C1312.05 198.824 1315.16 198.805 1318.15 197.434C1319.36 196.878 1320.45 196.082 1321.52 195.258C1322.51 194.5 1323.35 194.51 1324.29 195.43C1326.36 197.472 1328.69 198.891 1331.36 199.438C1333.42 199.86 1335.48 199.773 1337.51 199.112C1338.78 198.699 1339.73 197.779 1340.35 196.398C1340.76 195.468 1341.31 195.296 1342.13 195.536C1343.31 195.881 1344.44 196.36 1345.49 197.079C1346.6 197.837 1347.8 198.172 1349.07 198.028C1351.88 197.722 1354.59 197.098 1356.89 194.932C1358.22 193.685 1358.74 191.864 1358.24 190.042C1357.58 188.92 1356.7 188.086 1355.7 187.453C1353.35 185.939 1350.92 184.673 1348.24 184.337C1347.86 184.29 1347.61 184.127 1347.41 183.772C1344.07 181.279 1341.03 178.211 1337.25 176.552C1332.3 174.376 1327.28 173.456 1322.25 175.718C1319.63 176.898 1317.01 177.262 1314.25 177.54C1309.68 178 1305.3 179.544 1301.61 183.11C1301.18 183.523 1300.69 183.877 1300.14 184.059Z" fill="#E9FBFF"/>
<path fill-rule="evenodd" clip-rule="evenodd" d="M1358.23 190.042C1358.33 190.866 1358.15 191.672 1357.97 192.439C1357.75 193.359 1357.29 194.078 1356.62 194.701C1354.92 196.274 1352.95 196.926 1350.91 197.348C1350.32 197.472 1349.74 197.606 1349.13 197.654C1347.8 197.741 1346.58 197.443 1345.47 196.6C1344.33 195.746 1343.04 195.42 1341.78 194.979C1340.96 194.692 1340.6 194.884 1340.24 195.814C1339.55 197.616 1338.37 198.584 1336.79 198.929C1332.67 199.84 1328.88 199.016 1325.5 195.948C1324.99 195.488 1324.46 195.056 1323.94 194.606C1323.31 194.049 1322.72 193.925 1321.98 194.49C1319.96 196.063 1317.85 197.443 1315.43 197.942C1314.33 198.172 1313.21 198.345 1312.09 198.412C1310.81 198.498 1309.53 198.383 1308.25 198.45C1306.37 198.546 1304.81 197.683 1303.41 196.283C1302.65 195.516 1301.84 195.42 1301.21 196.187C1299.75 197.971 1297.95 198.038 1296.08 197.76C1294.07 197.463 1292.39 196.245 1290.89 194.721C1289.97 193.781 1289.42 192.458 1289.22 190.981C1287.01 194.864 1288.88 200.003 1291.34 201.815C1293.18 203.167 1295.2 203.79 1297.3 204.155C1298.76 204.404 1300.23 204.375 1301.7 204.529C1309.46 205.334 1317.21 205.228 1324.96 204.749C1327.22 204.605 1329.49 204.615 1331.74 204.739C1337.58 205.046 1343.42 204.816 1349.26 204.883C1350.73 204.902 1352.2 204.979 1353.66 204.711C1354.82 204.5 1355.96 204.231 1357.07 203.809C1359.68 202.822 1361.33 199.447 1360.85 196.226C1360.5 193.848 1359.65 191.777 1358.23 190.042Z" fill="#9BD9F5"/>
<path fill-rule="evenodd" clip-rule="evenodd" d="M1300.14 184.059C1300.27 184.261 1300.43 184.366 1300.62 184.261C1301 184.05 1301.42 183.887 1301.72 183.57C1304.29 180.886 1307.39 179.592 1310.62 178.643C1312.82 178 1315.04 177.665 1317.3 177.818C1318.35 177.895 1319.29 177.578 1320.23 177.022C1322.02 175.948 1323.96 175.431 1325.94 175.086C1326.6 174.971 1327.26 174.827 1327.94 174.808C1329.87 174.76 1331.75 175.095 1333.61 175.651C1336.88 176.62 1339.95 178.173 1342.73 180.455C1343.57 181.135 1344.35 181.921 1345.18 182.621C1345.85 183.187 1346.53 183.781 1347.41 183.772C1346.3 179.611 1344.66 175.824 1341.65 173.178C1339.09 170.934 1336.18 169.717 1333.01 169.745C1329.84 169.784 1326.72 170.359 1323.7 171.634C1322.01 172.353 1320.47 173.379 1319.2 174.894C1318.79 175.373 1318.44 175.469 1317.9 175.287C1315.05 174.328 1312.27 174.549 1309.5 175.824C1307.87 176.572 1306.33 177.463 1304.77 178.374C1302.84 179.505 1301.33 181.097 1300.42 183.465C1300.34 183.676 1300.23 183.868 1300.14 184.059Z" fill="#FAFEFF"/>
</g>
<g opacity="0.38">
<path fill-rule="evenodd" clip-rule="evenodd" d="M1047.98 281.985C1049.57 281.103 1051.25 280.605 1052.94 280.202C1053.89 279.972 1054.45 279.483 1054.68 278.4C1056.86 276.77 1058.37 274.258 1060.24 272.206C1064.16 267.892 1068.78 264.891 1073.3 261.708C1074.05 261.181 1074.92 261.19 1075.75 260.979C1075.93 260.931 1075.71 261.046 1075.85 260.912C1075.92 260.845 1075.67 260.903 1075.67 260.74C1077.06 260.308 1078.46 260.462 1079.87 260.5C1080.66 260.519 1081.45 260.711 1082.25 260.5C1082.39 261.286 1081.86 261.008 1081.55 261.114C1082.47 261.2 1082.91 260.184 1083.67 259.896C1088.1 258.209 1092.47 256.281 1097.1 255.428C1101.09 254.69 1105.07 255.035 1109.03 255.687C1114.85 256.636 1120.63 257.873 1126.42 259.1C1127.56 259.34 1128.76 259.225 1129.83 259.982C1130.53 260.481 1130.85 261.478 1131.68 261.775C1132.04 262.254 1132.48 262.37 1133.03 262.35C1134.32 262.302 1135.62 262.053 1136.89 262.542C1135.83 263.616 1134.54 262.849 1133.26 263.271C1135.21 264.229 1137.09 265.121 1138.97 265.984C1142.39 267.528 1145.84 268.975 1149.02 271.19C1151.09 272.628 1153.13 274.095 1154.96 275.964C1155.11 276.118 1155.29 276.166 1155.48 276.137C1155.83 276.453 1155.98 276.942 1156.13 277.393C1156.79 279.416 1157.5 281.41 1157.89 283.548C1157.9 284.727 1157.06 284.766 1156.44 285.015C1154.3 285.868 1152.07 285.82 1149.87 285.696C1144.56 285.389 1139.45 284.037 1134.73 280.902C1133.04 279.78 1131.52 278.352 1129.92 277.057C1128.08 275.562 1126.33 275.063 1124.14 276.348C1121.4 277.949 1118.49 279.205 1115.59 280.25C1110.95 281.918 1106.26 281.142 1101.74 279.224C1100.01 278.496 1098.25 278.39 1096.48 278.265C1095.89 278.227 1095.38 278.505 1094.92 278.946C1091.08 282.724 1086.53 284.306 1081.7 284.44C1077.34 284.564 1073.22 283.107 1069.9 279.416C1069.02 278.428 1068.28 278.323 1067.31 279.138C1065.18 280.921 1062.82 282.225 1060.57 283.749C1057.43 285.887 1054.05 286.578 1050.48 285.657C1049.45 285.389 1048.5 284.977 1047.65 284.21C1047.14 283.749 1046.7 283.222 1047.14 282.369L1047.13 282.378C1047.37 282.081 1047.76 282.34 1047.98 281.985Z" fill="#E9FBFF"/>
<path fill-rule="evenodd" clip-rule="evenodd" d="M1165.71 291.391C1166.48 292.81 1166.75 294.42 1166.8 296.05C1166.88 298.85 1165.66 300.882 1163.77 302.32C1161.87 303.758 1159.7 304.362 1157.55 304.947C1153.51 306.05 1149.39 306.644 1145.26 306.759C1136.52 306.999 1127.78 306.807 1119.04 306.673C1116.17 306.625 1113.3 306.577 1110.44 306.548C1100.94 306.462 1091.45 306.462 1081.96 306.27C1075.47 306.136 1069 305.724 1062.52 305.446C1060.74 305.369 1058.95 305.283 1057.17 305.216C1053.44 305.082 1049.82 304.037 1046.19 303.145C1044.8 302.8 1043.54 302.023 1042.27 301.285C1039.29 299.53 1038.11 296.472 1038.18 292.714C1038.26 288.745 1040.02 285.974 1042.96 284.238C1043.38 284.919 1042.97 285.533 1042.83 286.156C1042.36 288.093 1042.68 289.406 1044.01 290.624C1045.91 292.369 1048.03 293.538 1050.44 293.711C1054.43 293.998 1058.42 294.104 1062.34 292.925C1064.41 292.301 1066.33 291.295 1068.12 289.885C1070.21 288.236 1071.14 288.246 1072.52 290.624C1074.93 294.765 1078.52 295.552 1082.25 296.002C1084.31 296.251 1086.37 296.414 1088.44 296.06C1091.52 295.542 1094.05 293.586 1096.62 291.717C1097.5 291.074 1098.39 290.442 1099.28 289.809C1100.39 289.023 1101.28 289.176 1102.35 290.116C1105.28 292.704 1108.47 294.698 1112.14 295.408C1117.58 296.472 1122.34 294.487 1126.68 290.72C1127.63 289.895 1128.51 288.965 1129.43 288.083C1130.9 286.664 1131.84 286.798 1133.32 288.131C1138.22 292.532 1143.53 295.561 1149.86 295.628C1153.05 295.667 1156.22 295.839 1159.38 295.101C1161.5 294.612 1163.49 293.864 1164.97 291.832C1165.16 291.592 1165.41 291.419 1165.71 291.391Z" fill="#9CDDF3"/>
<path fill-rule="evenodd" clip-rule="evenodd" d="M1047.13 282.34C1047.15 282.858 1047.2 283.347 1047.64 283.644C1048.46 284.2 1049.23 284.775 1050.18 285.034C1054.14 286.137 1057.75 285.207 1061.18 282.695C1063.43 281.055 1065.85 279.79 1068 277.959C1068.5 277.537 1068.94 277.604 1069.38 278.122C1070.09 278.946 1070.76 279.886 1071.59 280.48C1074.01 282.225 1076.62 283.395 1079.48 283.749C1082.91 284.171 1086.19 283.5 1089.38 282.11C1091.36 281.247 1093.25 280.087 1094.81 278.294C1095.24 277.786 1095.75 277.614 1096.34 277.671C1097.59 277.786 1098.85 277.882 1100.11 277.997C1100.34 278.016 1100.58 278.074 1100.79 278.198C1102.88 279.426 1105.14 280.03 1107.41 280.288C1109.1 280.48 1110.81 280.653 1112.55 280.403C1114.7 280.106 1116.64 279.387 1118.56 278.256C1119.56 277.661 1120.69 277.403 1121.74 276.942C1122.97 276.396 1124.21 275.849 1125.39 275.178C1126.14 274.756 1126.8 274.785 1127.56 275.054C1129.18 275.61 1130.52 276.799 1131.8 277.968C1134.93 280.806 1138.39 282.685 1142.15 283.826C1144.09 284.421 1146.08 284.747 1148.08 285.005C1150.02 285.255 1151.93 285.111 1153.84 285.092C1154.98 285.082 1156.05 284.66 1157.12 284.229C1157.43 284.104 1157.72 283.922 1157.89 283.539C1158.07 283.682 1158.26 283.826 1158.44 283.97C1159.14 284.44 1158.61 285.053 1158.58 285.609C1158.52 286.434 1158.6 287.096 1159.46 286.396C1160.06 285.907 1160.6 286.06 1161.18 286.444C1162.36 287.22 1163.32 288.294 1164.08 289.607C1164.96 291.122 1164.8 292.11 1163.52 293.174C1161.88 294.526 1159.97 295.082 1158.06 295.235C1154.36 295.532 1150.65 295.791 1146.95 295.398C1145.31 295.226 1143.72 294.622 1142.19 293.864C1139.02 292.301 1135.84 290.758 1133.24 287.91C1131.94 286.482 1130.91 286.453 1129.62 287.862C1127.14 290.557 1124.18 292.263 1121.31 294.19C1119.2 295.619 1116.91 295.485 1114.61 295.485C1109.87 295.494 1105.87 293.155 1102.22 289.79C1101.34 288.975 1100.62 288.975 1099.65 289.512C1097.42 290.767 1095.48 292.56 1093.3 293.922C1091.28 295.187 1089.26 296.041 1086.87 295.926C1083.87 295.782 1080.9 295.935 1077.93 294.967C1075.79 294.267 1074.24 292.934 1072.88 290.959C1070.86 288.035 1070.49 287.968 1067.85 289.943C1064.49 292.455 1060.8 293.548 1056.89 293.749C1054.58 293.864 1052.28 293.864 1049.99 293.567C1047.92 293.308 1046.1 292.225 1044.42 290.863C1043.07 289.77 1043.21 288.687 1044.72 287.949C1045.72 287.46 1046.64 286.817 1047.79 286.166C1046.65 286.098 1045.8 286.472 1044.93 286.846C1044.42 287.067 1043.78 287.46 1043.43 286.645C1043.05 285.792 1043.46 285.092 1044.06 284.651C1044.85 284.066 1045.82 283.788 1046.29 282.685C1046.51 282.378 1046.81 282.34 1047.13 282.34Z" fill="#AD1B29"/>
<path fill-rule="evenodd" clip-rule="evenodd" d="M1131.67 261.766C1131.63 261.957 1131.64 262.312 1131.37 262.12C1131.06 261.89 1130.81 261.535 1130.53 261.229C1129.71 260.299 1128.78 259.886 1127.63 259.781C1125.86 259.608 1124.12 259.177 1122.37 258.832C1117.77 257.911 1113.18 256.857 1108.56 256.109C1105.28 255.572 1101.94 255.342 1098.62 255.697C1095.91 255.984 1093.28 256.78 1090.7 257.787C1087.95 258.861 1085.1 259.628 1082.46 261.133C1082.06 261.363 1081.64 261.277 1081.05 261.296C1081.46 260.788 1082.1 261.171 1082.25 260.519C1084.5 257.317 1087.28 254.911 1090.43 253.242C1100.17 248.113 1110.09 247.336 1120.14 251.91C1123.77 253.559 1127.05 255.975 1129.86 259.215C1130.53 259.982 1131.21 260.768 1131.67 261.766Z" fill="#FAFEFF"/>
<path fill-rule="evenodd" clip-rule="evenodd" d="M1046.28 282.695C1046.44 283.625 1046.15 284.181 1045.38 284.478C1044.81 284.699 1044.18 284.804 1043.78 285.456C1043.58 285.801 1043.48 286.204 1043.67 286.559C1043.88 286.942 1044.19 286.693 1044.42 286.559C1045.32 286.06 1046.27 285.782 1047.23 285.561C1047.58 285.485 1047.87 285.446 1048.18 285.638C1048.42 285.792 1048.77 285.868 1048.71 286.3C1048.67 286.616 1048.4 286.722 1048.17 286.722C1047.47 286.731 1046.91 287.105 1046.39 287.632C1045.79 288.236 1044.96 288.16 1044.31 288.639C1043.59 289.176 1043.55 289.281 1044.13 289.991C1044.32 290.231 1044.51 290.518 1044.76 290.662C1046.35 291.63 1047.89 292.867 1049.69 293.03C1051.04 293.155 1052.38 293.481 1053.75 293.337C1055.43 293.164 1057.13 293.011 1058.79 292.992C1061.29 292.953 1063.4 291.726 1065.64 290.863C1066.38 290.576 1067.05 289.991 1067.7 289.435C1068.25 288.965 1068.87 288.754 1069.46 288.409C1070.48 287.815 1071.28 288.15 1072 289.051C1072.78 290.029 1073.63 290.95 1074.26 292.052C1074.91 293.183 1075.79 293.653 1076.78 294.027C1079.58 295.063 1082.41 295.724 1085.36 295.417C1086.42 295.302 1087.5 295.35 1088.59 295.475C1089.69 295.609 1090.76 294.842 1091.76 294.276C1093.21 293.462 1094.61 292.56 1095.93 291.448C1097.2 290.365 1098.61 289.579 1100.01 288.792C1100.9 288.294 1101.63 288.514 1102.33 289.253C1105.2 292.215 1108.55 294.066 1112.25 294.804C1113.48 295.043 1114.81 295.341 1116.1 294.813C1116.27 294.746 1116.5 294.698 1116.65 294.775C1118.57 295.715 1120.02 294.229 1121.56 293.375C1122.27 292.982 1122.91 292.388 1123.68 292.062C1125.53 291.276 1126.95 289.694 1128.44 288.246C1129.07 287.642 1129.67 287.028 1130.4 286.607C1131.13 286.175 1131.84 286.194 1132.53 286.702C1132.89 286.971 1133.27 287.211 1133.58 287.546C1136.98 291.256 1141.16 293.001 1145.44 294.554C1146.91 295.082 1148.39 294.9 1149.85 294.996C1152.64 295.178 1155.45 294.928 1158.25 294.727C1159.58 294.631 1160.92 294.123 1162.18 293.509C1162.49 293.366 1162.78 293.164 1163.06 292.963C1164.48 291.928 1164.66 290.911 1163.54 289.483C1162.76 288.466 1161.96 287.45 1160.89 286.769C1160.29 286.386 1159.91 286.233 1159.46 286.932C1159.27 287.239 1159.01 287.489 1158.78 287.767C1157.82 286.338 1157.79 286.108 1158.45 284.747C1158.59 284.449 1158.5 284.219 1158.42 283.96C1161.4 285.207 1163.99 287.067 1165.47 290.604C1165.57 290.854 1165.62 291.122 1165.69 291.391C1164.67 293.26 1163.26 294.43 1161.46 295.043C1158.31 296.117 1155.08 296.549 1151.86 296.261C1149.63 296.06 1147.37 296.386 1145.15 295.638C1142.57 294.765 1140.08 293.605 1137.7 292.158C1135.81 291.017 1133.96 289.818 1132.47 287.949C1131.83 287.153 1130.77 287.335 1129.91 288.188C1129.26 288.831 1128.63 289.511 1128 290.163C1125.78 292.397 1123.19 293.864 1120.56 295.245C1119.39 295.868 1118.09 295.868 1116.85 296.05C1114.17 296.434 1111.46 296.194 1108.96 294.976C1106.41 293.74 1103.8 292.493 1101.74 290.183C1101.1 289.454 1100.59 289.521 1099.87 289.962C1097.54 291.429 1095.42 293.299 1093.06 294.737C1090.06 296.568 1086.94 297.066 1083.65 296.549C1082.54 296.376 1081.41 296.673 1080.29 296.271C1079.13 295.849 1077.91 295.647 1076.74 295.235C1075.41 294.765 1074.28 293.864 1073.37 292.579C1072.86 291.851 1072.36 291.113 1071.87 290.365C1070.95 288.984 1070.2 288.773 1068.98 289.78C1067.81 290.739 1066.6 291.563 1065.29 292.234C1062.94 293.452 1060.5 294.113 1057.94 294.219C1056.3 294.286 1054.64 294.267 1053.01 294.391C1050.2 294.612 1047.62 293.72 1045.17 292.244C1044.34 291.755 1043.56 291.036 1042.94 290.221C1042.04 289.061 1041.99 287.584 1042.36 286.098C1042.52 285.456 1042.91 284.91 1042.95 284.21C1043.98 283.443 1045.13 283.04 1046.28 282.695Z" fill="#AD1B29"/>
<path fill-rule="evenodd" clip-rule="evenodd" d="M1155.47 276.118C1155.23 276.636 1154.97 276.444 1154.67 276.185C1152.4 274.2 1150.04 272.379 1147.6 270.72C1146.73 270.135 1145.79 269.79 1144.9 269.311C1141.48 267.46 1137.91 266.061 1134.45 264.364C1133.67 263.98 1132.91 263.587 1131.87 262.935C1133.75 262.456 1135.33 262.791 1136.87 262.523C1139.57 262.705 1142.1 263.721 1144.54 265.016C1147.96 266.837 1150.9 269.493 1153.55 272.647C1154.39 273.644 1155.03 274.814 1155.47 276.118Z" fill="#F9FEFF"/>
<path fill-rule="evenodd" clip-rule="evenodd" d="M1075.67 260.749C1075.95 260.788 1076.22 260.836 1076.5 260.874C1073.01 261.718 1070.27 264.325 1067.37 266.54C1066.54 267.173 1065.65 267.71 1064.82 268.333C1063.31 269.474 1062.05 270.979 1060.69 272.36C1059.15 273.932 1057.83 275.763 1056.38 277.431C1055.95 277.92 1055.56 278.898 1054.68 278.4C1055.79 273.788 1057.81 269.867 1060.98 266.924C1064.46 263.683 1068.51 262.024 1072.83 261.19C1073.5 260.816 1074.28 261.257 1074.94 260.826C1075.16 260.701 1075.41 260.653 1075.67 260.749Z" fill="#F9FEFF"/>
<path fill-rule="evenodd" clip-rule="evenodd" d="M1074.93 260.816C1074.29 261.42 1073.54 261.171 1072.82 261.181C1073.49 260.788 1074.21 260.788 1074.93 260.816Z" fill="#CFF4FF"/>
<path fill-rule="evenodd" clip-rule="evenodd" d="M1047.98 281.985C1047.79 282.398 1047.46 282.388 1047.12 282.35C1047.35 282.005 1047.66 281.985 1047.98 281.985Z" fill="#AD1B29"/>
<path fill-rule="evenodd" clip-rule="evenodd" d="M1157.04 286.453C1157.04 286.923 1156.86 287.239 1156.48 287.316C1156.05 287.402 1155.9 286.99 1155.81 286.616C1155.67 286.07 1156.07 285.935 1156.36 285.84C1156.76 285.705 1156.96 286.031 1157.04 286.453Z" fill="#AD1B29"/>
</g>
<g opacity="0.38">
<path opacity="0.7" fill-rule="evenodd" clip-rule="evenodd" d="M829.707 241.488C832.996 241.546 835.879 242.945 838.41 245.409C839.28 246.253 840.142 247.154 840.621 248.429C840.957 249.915 840.286 251.066 839.536 251.948C837.268 254.633 834.569 256.147 831.272 255.601C830.322 255.438 829.443 255.064 828.717 254.278C827.99 253.501 827.264 253.424 826.489 254.182C824.868 255.783 823.016 256.349 820.924 256.31C817.794 256.253 814.688 256.234 811.694 254.863C810.48 254.307 809.395 253.511 808.325 252.686C807.335 251.929 806.496 251.938 805.554 252.859C803.486 254.901 801.155 256.32 798.488 256.866C796.42 257.288 794.368 257.202 792.332 256.54C791.062 256.128 790.112 255.208 789.497 253.827C789.082 252.897 788.531 252.725 787.717 252.964C786.535 253.309 785.409 253.789 784.356 254.508C783.246 255.265 782.04 255.601 780.771 255.457C777.968 255.15 775.253 254.527 772.954 252.36C771.62 251.114 771.109 249.292 771.604 247.471C772.267 246.349 773.145 245.515 774.143 244.882C776.491 243.367 778.926 242.102 781.609 241.766C781.984 241.718 782.232 241.555 782.431 241.201C785.777 238.708 788.819 235.64 792.595 233.981C797.546 231.805 802.56 230.884 807.598 233.147C810.217 234.326 812.836 234.691 815.59 234.969C820.165 235.429 824.541 236.972 828.238 240.539C828.661 240.951 829.148 241.306 829.707 241.488Z" fill="#E9FBFF"/>
<path opacity="0.7" fill-rule="evenodd" clip-rule="evenodd" d="M771.605 247.48C771.509 248.305 771.685 249.11 771.868 249.877C772.092 250.797 772.547 251.517 773.218 252.14C774.918 253.712 776.882 254.364 778.926 254.786C779.517 254.91 780.1 255.045 780.707 255.093C782.032 255.179 783.254 254.882 784.372 254.038C785.505 253.185 786.799 252.859 788.053 252.418C788.875 252.13 789.242 252.322 789.601 253.252C790.288 255.054 791.47 256.023 793.051 256.368C797.163 257.279 800.955 256.454 804.341 253.386C804.852 252.926 805.379 252.494 805.898 252.044C806.528 251.488 807.119 251.363 807.854 251.929C809.874 253.501 811.99 254.882 814.409 255.38C815.511 255.61 816.629 255.783 817.746 255.85C819.024 255.936 820.309 255.821 821.587 255.888C823.463 255.984 825.028 255.121 826.425 253.722C827.192 252.955 827.998 252.859 828.629 253.626C830.082 255.409 831.887 255.476 833.755 255.198C835.767 254.901 837.452 253.683 838.945 252.159C839.863 251.219 840.422 249.896 840.622 248.42C842.825 252.303 840.957 257.442 838.498 259.254C836.661 260.605 834.641 261.229 832.533 261.593C831.072 261.842 829.603 261.813 828.134 261.967C820.381 262.772 812.628 262.667 804.876 262.187C802.616 262.044 800.348 262.053 798.097 262.178C792.26 262.485 786.416 262.254 780.579 262.322C779.11 262.341 777.641 262.417 776.18 262.149C775.022 261.938 773.872 261.67 772.762 261.248C770.16 260.26 768.507 256.885 768.986 253.664C769.337 251.277 770.191 249.206 771.605 247.48Z" fill="#9BD9F5"/>
<path opacity="0.7" fill-rule="evenodd" clip-rule="evenodd" d="M829.707 241.488C829.579 241.689 829.412 241.795 829.22 241.689C828.845 241.479 828.43 241.316 828.126 240.999C825.555 238.315 822.457 237.02 819.224 236.071C817.02 235.429 814.8 235.093 812.541 235.247C811.495 235.323 810.553 235.007 809.618 234.451C807.822 233.377 805.882 232.859 803.91 232.514C803.247 232.399 802.584 232.255 801.906 232.236C799.973 232.188 798.097 232.524 796.237 233.08C792.963 234.048 789.897 235.601 787.111 237.883C786.272 238.564 785.498 239.35 784.667 240.05C783.997 240.616 783.318 241.21 782.432 241.2C783.549 237.04 785.186 233.253 788.196 230.606C790.751 228.363 793.666 227.145 796.835 227.174C800.005 227.212 803.127 227.788 806.145 229.063C807.838 229.782 809.371 230.808 810.648 232.323C811.056 232.802 811.407 232.898 811.942 232.716C814.792 231.757 817.579 231.977 820.349 233.253C821.97 234 823.519 234.892 825.076 235.803C827 236.934 828.517 238.526 829.428 240.894C829.5 241.105 829.611 241.296 829.707 241.488Z" fill="#FAFEFF"/>
</g>
<g opacity="0.38">
<path fill-rule="evenodd" clip-rule="evenodd" d="M604.484 220.693C604.556 220.808 604.668 220.913 604.692 221.038C604.851 222.035 605.354 222.294 606.169 222.294C608.684 222.304 611.063 222.994 613.267 224.509C615.471 226.024 616.748 228.353 617.459 231.21C617.491 232.409 617.075 233.368 616.381 234.192C613.331 237.845 609.634 238.976 605.498 237.97C602.951 237.346 600.372 236.829 597.961 235.563C597.306 235.218 596.699 235.333 596.132 235.879C591.893 240.002 587.07 240.28 582.016 238.938C580.603 238.564 579.373 237.787 578.303 236.541C576.714 234.691 576.211 234.7 574.439 236.33C572.227 238.372 569.648 239.216 566.949 239.561C564.969 239.82 562.965 239.714 560.969 239.58C559.348 239.475 557.991 238.621 556.817 237.346C556.003 236.464 555.212 236.416 554.246 236.934C552.418 237.922 550.478 238.506 548.506 238.919C546.685 239.293 545.04 238.842 543.643 237.289C542.509 236.042 542.461 235.199 543.531 233.876C544.33 233.032 545.304 232.505 546.31 232.294C547.292 232.083 547.779 231.517 547.939 230.415C548.593 230.175 549.041 229.581 549.472 229.005C551.939 225.717 554.853 223.051 557.736 220.348C560.131 218.104 562.893 217.079 565.84 216.58C565.999 216.551 565.808 216.532 565.959 216.57C568.69 217.347 570.95 215.861 573.265 214.5C574.934 213.512 576.786 213.368 578.623 213.253C584.308 212.908 589.697 214.394 594.935 216.935C596.643 217.759 598.392 218.392 600.228 218.613C601.841 218.795 603.207 219.619 604.484 220.693Z" fill="#E1F7F9"/>
<path fill-rule="evenodd" clip-rule="evenodd" d="M543.563 233.876C543.444 234.125 543.284 234.365 543.212 234.633C543.036 235.247 542.949 235.918 543.372 236.426C544.729 238.065 546.35 238.986 548.306 238.545C550.502 238.046 552.673 237.423 554.702 236.244C555.484 235.793 556.155 235.927 556.793 236.704C558.223 238.468 559.995 239.273 562.047 239.235C563.428 239.206 564.826 239.331 566.199 239.206C568.978 238.957 571.66 238.209 573.992 236.234C574.551 235.755 575.014 235.132 575.668 234.777C576.211 234.48 576.698 234.489 577.162 234.873C577.625 235.256 578.168 235.553 578.519 236.11C579.445 237.567 580.794 238.18 582.184 238.545C583.844 238.967 585.529 239.331 587.246 239.235C590.527 239.043 593.585 238.113 596.077 235.352C596.683 234.681 597.314 234.681 597.985 235.065C600.548 236.531 603.35 236.992 606.073 237.682C609.075 238.439 611.949 237.605 614.536 235.573C615.902 234.499 616.9 233.08 617.475 231.23C617.754 231.699 617.73 232.255 617.714 232.783C617.586 236.656 616.269 239.638 613.235 241.325C611.215 242.447 609.059 242.897 606.887 243.348C601.69 244.431 596.444 244.546 591.19 244.614C587.525 244.662 583.868 244.633 580.204 244.709C572.307 244.872 564.411 244.92 556.514 244.825C552.769 244.777 549.025 244.834 545.28 244.844C542.398 244.844 540.386 241.948 540.873 238.506C541.16 236.455 542.006 234.863 543.563 233.876Z" fill="#9EDEF4"/>
<path fill-rule="evenodd" clip-rule="evenodd" d="M604.484 220.693C604.412 220.885 604.388 221.307 604.133 221.038C602.728 219.495 600.987 219.217 599.199 218.91C597.107 218.555 595.151 217.52 593.178 216.628C590.248 215.305 587.254 214.346 584.116 213.943C582.407 213.723 580.715 213.723 579.014 213.713C576.547 213.694 574.192 214.231 571.996 215.717C570.654 216.628 569.209 217.558 567.62 217.194C565.944 216.81 564.419 217.366 562.854 217.788C560.953 218.296 559.309 219.447 557.8 220.885C556.594 222.035 555.428 223.243 554.127 224.25C553.432 224.787 552.921 225.554 552.338 226.235C551.26 227.5 550.206 228.785 549.145 230.069C548.913 230.348 548.697 230.635 548.378 230.769C548.091 230.894 548.035 230.664 547.963 230.434C548.163 228.075 548.777 225.841 549.584 223.723C550.566 221.153 552.195 219.264 554.358 218.095C557.313 216.484 560.403 215.545 563.668 215.468C564.57 215.449 565.473 215.535 566.303 215.938C566.99 216.264 567.445 216.033 567.932 215.458C568.802 214.432 569.712 213.454 570.615 212.467C573.074 209.763 575.924 207.99 579.246 207.395C580.691 207.136 582.136 206.839 583.589 206.676C589.929 205.967 595.31 208.622 600.045 213.512C601.857 215.382 603.414 217.472 604.341 220.156C604.412 220.319 604.444 220.501 604.484 220.693Z" fill="#FAFEFF"/>
</g>
<defs>
<linearGradient id="paint0_linear_2858_2182" x1="755.5" y1="0" x2="755.5" y2="616.308" gradientUnits="userSpaceOnUse">
<stop offset="0.3198" stop-color="#CD3947"/>
<stop offset="0.4143" stop-color="#B4434E"/>
<stop offset="0.6004" stop-color="#FF8893"/>
<stop offset="0.8579" stop-color="#FFC5CB"/>
<stop offset="1" stop-color="#FFC0C6"/>
</linearGradient>
<linearGradient id="paint1_linear_2858_2182" x1="1358.54" y1="209.119" x2="1358.54" y2="430.75" gradientUnits="userSpaceOnUse">
<stop stop-color="#FF96A0"/>
<stop offset="0.2054" stop-color="#FF7D8B"/>
<stop offset="0.6076" stop-color="#CD3947"/>
<stop offset="1" stop-color="#3DDDEC" stop-opacity="0"/>
</linearGradient>
<linearGradient id="paint2_linear_2858_2182" x1="142.449" y1="267.999" x2="142.449" y2="427.811" gradientUnits="userSpaceOnUse">
<stop stop-color="#CD3948"/>
<stop offset="0.2054" stop-color="#CD3948"/>
<stop offset="0.6076" stop-color="#CD3948"/>
<stop offset="1" stop-color="#CD3948"/>
</linearGradient>
<linearGradient id="paint3_linear_2858_2182" x1="123.077" y1="277.878" x2="123.077" y2="428.495" gradientUnits="userSpaceOnUse">
<stop stop-color="#CD3A48"/>
<stop offset="0.2054" stop-color="#FFA0A9"/>
<stop offset="0.6076" stop-color="#FF7E8B"/>
<stop offset="1" stop-color="#E49098"/>
</linearGradient>
<linearGradient id="paint4_linear_2858_2182" x1="1405.12" y1="278.101" x2="1405.12" y2="431.434" gradientUnits="userSpaceOnUse">
<stop stop-color="#CD3948"/>
<stop offset="0.2054" stop-color="#B74651"/>
<stop offset="0.6076" stop-color="#FFC2C8"/>
<stop offset="1" stop-color="#FFC5CB"/>
</linearGradient>
<linearGradient id="paint5_linear_2858_2182" x1="529.849" y1="370.457" x2="901.421" y2="370.457" gradientUnits="userSpaceOnUse">
<stop stop-color="#3D72EC"/>
<stop offset="0.2054" stop-color="#3D83EC" stop-opacity="0.7946"/>
<stop offset="0.6076" stop-color="#3DADEC" stop-opacity="0.3924"/>
<stop offset="1" stop-color="#3DDDEC" stop-opacity="0"/>
</linearGradient>
<linearGradient id="paint6_linear_2858_2182" x1="998.067" y1="367.638" x2="998.067" y2="487.984" gradientUnits="userSpaceOnUse">
<stop stop-color="#3D72EC"/>
<stop offset="0.2054" stop-color="#3D83EC" stop-opacity="0.7946"/>
<stop offset="0.6076" stop-color="#3DADEC" stop-opacity="0.3924"/>
<stop offset="1" stop-color="#3DDDEC" stop-opacity="0"/>
</linearGradient>
</defs>
</svg>
