<svg width="19" height="17" viewBox="0 0 19 17" fill="none" xmlns="http://www.w3.org/2000/svg">
<path d="M16.9817 16.2098H1.4818C1.26898 16.2098 1.09078 16.138 0.947199 15.9944C0.803599 15.8508 0.731799 15.6726 0.731799 15.4598C0.731799 15.2469 0.803599 15.0687 0.947199 14.9252C1.09078 14.7816 1.26898 14.7098 1.4818 14.7098H16.9817C17.1946 14.7098 17.3728 14.7816 17.5163 14.9252C17.6599 15.0687 17.7317 15.2469 17.7317 15.4598C17.7317 15.6726 17.6599 15.8508 17.5163 15.9944C17.3728 16.138 17.1946 16.2098 16.9817 16.2098ZM2.70487 8.58098L7.6491 7.2425L4.03947 1.13095C3.93179 0.948901 3.9116 0.754993 3.9789 0.549226C4.04622 0.343459 4.18948 0.208526 4.4087 0.144426L4.73755 0.0386516C4.85548 -0.00493171 4.97182 -0.0116569 5.08657 0.0184764C5.20131 0.0485931 5.30419 0.100834 5.39522 0.175201L11.9568 6.0579L16.9087 4.73675C17.3651 4.61238 17.7779 4.69796 18.1471 4.99348C18.5164 5.28898 18.701 5.68032 18.701 6.1675C18.701 6.48287 18.6077 6.75978 18.4212 6.99825C18.2346 7.2367 17.992 7.39952 17.6933 7.4867L2.95102 11.4713C2.75359 11.5316 2.56288 11.5232 2.3789 11.4463C2.19493 11.3694 2.05102 11.2405 1.94717 11.0598L0.0760235 7.85018C-0.0149931 7.70531 -0.0242848 7.55692 0.0481486 7.405C0.120582 7.25308 0.23949 7.16046 0.404874 7.12713L0.693324 7.07135C0.76769 7.05468 0.840124 7.05564 0.910624 7.07423C0.98114 7.09283 1.04845 7.12904 1.11255 7.18288L2.70487 8.58098Z" fill="#1C1B1F"/>
</svg>
