<svg width="17" height="18" viewBox="0 0 17 18" fill="none" xmlns="http://www.w3.org/2000/svg">
<path d="M15.1577 13.078L0.6577 9.05108C0.460267 8.99083 0.301291 8.88378 0.180775 8.72993C0.060258 8.57608 0 8.39531 0 8.18763V4.57225C0 4.40687 0.0666667 4.2745 0.2 4.17515C0.333333 4.07579 0.477567 4.05303 0.6327 4.10688L0.911525 4.19343C0.992292 4.22034 1.0596 4.26073 1.11345 4.31458C1.1673 4.36841 1.20768 4.43251 1.2346 4.50688L1.85383 6.39343L6.75 7.77225V0.697251C6.75 0.471618 6.83686 0.287969 7.01058 0.146302C7.18428 0.00463562 7.38074 -0.0341475 7.59998 0.0299525L7.93843 0.110726C8.05638 0.137643 8.15669 0.192444 8.23938 0.275128C8.32207 0.357828 8.38522 0.458153 8.4288 0.576103L11.0577 8.95688L15.9423 10.328C16.2679 10.4152 16.5256 10.5889 16.7153 10.8492C16.9051 11.1094 17 11.4024 17 11.728C17 12.1947 16.807 12.569 16.4211 12.8511C16.0352 13.1331 15.6141 13.2087 15.1577 13.078ZM0.75 17.8222C0.537183 17.8222 0.358983 17.7504 0.2154 17.6068C0.0717999 17.4632 0 17.285 0 17.0722C0 16.8594 0.0717999 16.6812 0.2154 16.5376C0.358983 16.394 0.537183 16.3222 0.75 16.3222H16.25C16.4628 16.3222 16.641 16.394 16.7845 16.5376C16.9282 16.6812 17 16.8594 17 17.0722C17 17.285 16.9282 17.4632 16.7845 17.6068C16.641 17.7504 16.4628 17.8222 16.25 17.8222H0.75Z" fill="#1C1B1F"/>
</svg>
