<svg width="56" height="56" viewBox="0 0 56 56" fill="none" xmlns="http://www.w3.org/2000/svg">
<rect width="56" height="56" rx="28" fill="#F9F9F9" fill-opacity="0.1"/>
<path d="M28.2299 22.5551C28.2107 22.51 28.1786 22.4715 28.1377 22.4445C28.0968 22.4175 28.0489 22.4031 27.9999 22.4031C27.9509 22.4031 27.9029 22.4175 27.862 22.4445C27.8211 22.4715 27.7891 22.51 27.7699 22.5551L27.2649 23.7671C27.2473 23.8094 27.2184 23.846 27.1813 23.873C27.1443 23.9 27.1006 23.9163 27.0549 23.9201L25.7459 24.0251C25.6966 24.029 25.6497 24.0474 25.6109 24.078C25.5721 24.1085 25.5432 24.1499 25.5279 24.1969C25.5126 24.2438 25.5116 24.2943 25.5249 24.3418C25.5383 24.3894 25.5654 24.4319 25.6029 24.4641L26.5999 25.3181C26.6347 25.3481 26.6606 25.3871 26.6748 25.4308C26.6889 25.4746 26.6906 25.5214 26.6799 25.5661L26.3759 26.8421C26.3642 26.8903 26.367 26.9408 26.3841 26.9873C26.4012 27.0339 26.4317 27.0743 26.4718 27.1034C26.5118 27.1326 26.5597 27.1491 26.6092 27.151C26.6587 27.1529 26.7077 27.1401 26.7499 27.1141L27.8699 26.4301C27.9091 26.4063 27.954 26.3936 27.9999 26.3936C28.0457 26.3936 28.0907 26.4063 28.1299 26.4301L29.2499 27.1141C29.2921 27.1401 29.3411 27.1529 29.3906 27.151C29.4401 27.1491 29.4879 27.1326 29.528 27.1034C29.5681 27.0743 29.5986 27.0339 29.6157 26.9873C29.6328 26.9408 29.6356 26.8903 29.6239 26.8421L29.3189 25.5661C29.3081 25.5214 29.3099 25.4746 29.324 25.4308C29.3381 25.3871 29.364 25.3481 29.3989 25.3181L30.3969 24.4641C30.4347 24.432 30.4622 24.3894 30.4757 24.3417C30.4893 24.294 30.4883 24.2433 30.473 24.1961C30.4577 24.149 30.4286 24.1074 30.3896 24.0768C30.3506 24.0461 30.3034 24.0278 30.2539 24.0241L28.9459 23.9201C28.9 23.9165 28.8561 23.9003 28.8189 23.8733C28.7816 23.8463 28.7526 23.8095 28.7349 23.7671L28.2299 22.5551Z" fill="white"/>
<path d="M24.704 19.5C24.516 19.5 24.377 19.5 24.253 19.515C23.769 19.5752 23.3237 19.8102 23.0009 20.1758C22.6781 20.5414 22.4999 21.0123 22.5 21.5H21.46C21.243 21.499 20.853 21.497 20.535 21.709C20.141 21.971 20 22.434 20 23C20 25.658 21.464 27.41 23.283 28.374C23.538 28.826 23.844 29.247 24.187 29.623C25.194 30.723 26.572 31.5 28 31.5C29.915 31.5 31.772 30.217 32.758 28.372C34.578 27.405 36 25.65 36 23C36 22.434 35.859 21.971 35.465 21.709C35.147 21.497 34.757 21.499 34.539 21.499L34.5 21.5H33.5C33.5001 21.0124 33.3221 20.5416 32.9995 20.1761C32.6768 19.8106 32.2318 19.5755 31.748 19.515C31.623 19.5 31.484 19.5 31.296 19.5H24.704ZM23.5 22.002V22L23.501 21.738C23.501 21.503 23.501 21.43 23.509 21.377C23.5362 21.1561 23.6364 20.9505 23.7936 20.7929C23.9508 20.6353 24.1561 20.5347 24.377 20.507C24.431 20.501 24.503 20.5 24.737 20.5H31.264C31.499 20.5 31.571 20.501 31.624 20.508C31.8449 20.5352 32.0505 20.6354 32.2081 20.7926C32.3657 20.9498 32.4663 21.1551 32.494 21.376C32.5 21.43 32.501 21.503 32.501 21.736L32.489 25.498V25.5C32.4861 26.3017 32.2942 27.0914 31.929 27.805C31.115 29.405 29.533 30.5 28.001 30.5C26.931 30.5 25.802 29.907 24.927 28.948C24.5973 28.5877 24.3144 28.1872 24.085 27.756C23.709 27.047 23.49 26.268 23.489 25.5L23.5 22.002ZM34.5 22.5C34.632 22.5 34.723 22.5 34.801 22.511C34.8392 22.5139 34.8766 22.5241 34.911 22.541C34.911 22.541 34.927 22.549 34.948 22.603C34.973 22.667 35 22.787 35 23C35 24.673 34.34 25.907 33.352 26.765L33.498 22.5H34.5ZM22.488 25.5C22.4893 25.9147 22.5377 26.3233 22.633 26.726C21.657 25.867 21 24.646 21 23C21 22.787 21.027 22.667 21.052 22.603C21.072 22.549 21.09 22.541 21.09 22.541C21.1241 22.5242 21.1611 22.514 21.199 22.511C21.277 22.501 21.368 22.5 21.5 22.5H22.498L22.488 25.498V25.5ZM28.5 33C28.5 32.8674 28.4473 32.7402 28.3536 32.6464C28.2598 32.5527 28.1326 32.5 28 32.5C27.8674 32.5 27.7402 32.5527 27.6464 32.6464C27.5527 32.7402 27.5 32.8674 27.5 33V35.5H24C23.8674 35.5 23.7402 35.5527 23.6464 35.6464C23.5527 35.7402 23.5 35.8674 23.5 36C23.5 36.1326 23.5527 36.2598 23.6464 36.3536C23.7402 36.4473 23.8674 36.5 24 36.5H32C32.1326 36.5 32.2598 36.4473 32.3536 36.3536C32.4473 36.2598 32.5 36.1326 32.5 36C32.5 35.8674 32.4473 35.7402 32.3536 35.6464C32.2598 35.5527 32.1326 35.5 32 35.5H28.5V33Z" fill="white"/>
</svg>
