<svg width="56" height="56" viewBox="0 0 56 56" fill="none" xmlns="http://www.w3.org/2000/svg">
<rect width="56" height="56" rx="28" fill="#F9F9F9"/>
<path d="M38.8975 21.6251C38.7895 21.5577 38.6662 21.5189 38.5391 21.5123C38.412 21.5058 38.2853 21.5317 38.1709 21.5876C34.1462 23.5563 31.2719 22.6338 28.2334 21.6607C25.0375 20.6435 21.7375 19.5888 17.1709 21.8182C17.0448 21.8798 16.9385 21.9755 16.8641 22.0945C16.7897 22.2135 16.7502 22.351 16.75 22.4913V33.7348C16.75 33.862 16.7823 33.9872 16.844 34.0985C16.9057 34.2098 16.9947 34.3036 17.1026 34.371C17.2106 34.4384 17.3339 34.4772 17.461 34.4839C17.588 34.4905 17.7147 34.4647 17.8291 34.4088C21.8538 32.4401 24.7281 33.3626 27.7712 34.3357C29.575 34.9123 31.4125 35.5001 33.49 35.5001C35.0922 35.5001 36.8397 35.1513 38.8253 34.182C38.9514 34.1204 39.0577 34.0247 39.1322 33.9057C39.2066 33.7867 39.2461 33.6492 39.2463 33.5088V22.2654C39.2474 22.1378 39.2159 22.0121 39.1549 21.9C39.0939 21.788 39.0053 21.6933 38.8975 21.6251ZM20.5 30.2501C20.5 30.449 20.421 30.6398 20.2803 30.7804C20.1397 30.9211 19.9489 31.0001 19.75 31.0001C19.5511 31.0001 19.3603 30.9211 19.2197 30.7804C19.079 30.6398 19 30.449 19 30.2501V24.2501C19 24.0512 19.079 23.8604 19.2197 23.7198C19.3603 23.5791 19.5511 23.5001 19.75 23.5001C19.9489 23.5001 20.1397 23.5791 20.2803 23.7198C20.421 23.8604 20.5 24.0512 20.5 24.2501V30.2501ZM28 31.0001C27.4067 31.0001 26.8266 30.8241 26.3333 30.4945C25.8399 30.1649 25.4554 29.6963 25.2284 29.1481C25.0013 28.6 24.9419 27.9968 25.0576 27.4148C25.1734 26.8329 25.4591 26.2983 25.8787 25.8788C26.2982 25.4592 26.8328 25.1735 27.4147 25.0577C27.9967 24.942 28.5999 25.0014 29.1481 25.2285C29.6962 25.4555 30.1648 25.84 30.4944 26.3334C30.8241 26.8267 31 27.4067 31 28.0001C31 28.7957 30.6839 29.5588 30.1213 30.1214C29.5587 30.684 28.7956 31.0001 28 31.0001ZM37 31.7501C37 31.949 36.921 32.1398 36.7803 32.2804C36.6397 32.4211 36.4489 32.5001 36.25 32.5001C36.0511 32.5001 35.8603 32.4211 35.7197 32.2804C35.579 32.1398 35.5 31.949 35.5 31.7501V25.7501C35.5 25.5512 35.579 25.3604 35.7197 25.2198C35.8603 25.0791 36.0511 25.0001 36.25 25.0001C36.4489 25.0001 36.6397 25.0791 36.7803 25.2198C36.921 25.3604 37 25.5512 37 25.7501V31.7501Z" fill="#22C55E"/>
</svg>
