<svg width="56" height="56" viewBox="0 0 56 56" fill="none" xmlns="http://www.w3.org/2000/svg">
<rect width="56" height="56" rx="28" fill="#F9F9F9"/>
<path d="M23.772 18.4391L24.849 18.0951C25.857 17.7731 26.935 18.2941 27.367 19.3121L28.227 21.3401C28.602 22.2231 28.394 23.2621 27.713 23.9081L25.82 25.7061C25.9367 26.7821 26.298 27.8411 26.904 28.8831C27.4803 29.8909 28.2525 30.7732 29.175 31.4781L31.451 30.7181C32.313 30.4311 33.252 30.7621 33.781 31.5391L35.013 33.3491C35.629 34.2531 35.518 35.4991 34.755 36.2651L33.937 37.0861C33.123 37.9031 31.961 38.2001 30.885 37.8641C28.3464 37.0721 26.012 34.7211 23.882 30.8111C21.7494 26.8944 20.9967 23.5717 21.624 20.8431C21.888 19.6951 22.706 18.7801 23.774 18.4391" fill="#EF4444"/>
</svg>
