<svg width="56" height="56" viewBox="0 0 56 56" fill="none" xmlns="http://www.w3.org/2000/svg">
<rect width="56" height="56" rx="28" fill="#F9F9F9"/>
<path d="M18.25 23C18.25 22.2707 18.5397 21.5712 19.0555 21.0555C19.5712 20.5397 20.2707 20.25 21 20.25H35C35.7293 20.25 36.4288 20.5397 36.9445 21.0555C37.4603 21.5712 37.75 22.2707 37.75 23V26C37.75 26.1989 37.671 26.3897 37.5303 26.5303C37.3897 26.671 37.1989 26.75 37 26.75C36.6685 26.75 36.3505 26.8817 36.1161 27.1161C35.8817 27.3505 35.75 27.6685 35.75 28C35.75 28.3315 35.8817 28.6495 36.1161 28.8839C36.3505 29.1183 36.6685 29.25 37 29.25C37.1989 29.25 37.3897 29.329 37.5303 29.4697C37.671 29.6103 37.75 29.8011 37.75 30V33C37.75 33.7293 37.4603 34.4288 36.9445 34.9445C36.4288 35.4603 35.7293 35.75 35 35.75H21C20.2707 35.75 19.5712 35.4603 19.0555 34.9445C18.5397 34.4288 18.25 33.7293 18.25 33V30C18.25 29.8011 18.329 29.6103 18.4697 29.4697C18.6103 29.329 18.8011 29.25 19 29.25C19.3315 29.25 19.6495 29.1183 19.8839 28.8839C20.1183 28.6495 20.25 28.3315 20.25 28C20.25 27.6685 20.1183 27.3505 19.8839 27.1161C19.6495 26.8817 19.3315 26.75 19 26.75C18.8011 26.75 18.6103 26.671 18.4697 26.5303C18.329 26.3897 18.25 26.1989 18.25 26V23ZM28.75 24C28.75 23.8011 28.671 23.6103 28.5303 23.4697C28.3897 23.329 28.1989 23.25 28 23.25C27.8011 23.25 27.6103 23.329 27.4697 23.4697C27.329 23.6103 27.25 23.8011 27.25 24V24.5C27.25 24.6989 27.329 24.8897 27.4697 25.0303C27.6103 25.171 27.8011 25.25 28 25.25C28.1989 25.25 28.3897 25.171 28.5303 25.0303C28.671 24.8897 28.75 24.6989 28.75 24.5V24ZM28.75 27.75C28.75 27.5511 28.671 27.3603 28.5303 27.2197C28.3897 27.079 28.1989 27 28 27C27.8011 27 27.6103 27.079 27.4697 27.2197C27.329 27.3603 27.25 27.5511 27.25 27.75V28.25C27.25 28.4489 27.329 28.6397 27.4697 28.7803C27.6103 28.921 27.8011 29 28 29C28.1989 29 28.3897 28.921 28.5303 28.7803C28.671 28.6397 28.75 28.4489 28.75 28.25V27.75ZM28.75 31.5C28.75 31.3011 28.671 31.1103 28.5303 30.9697C28.3897 30.829 28.1989 30.75 28 30.75C27.8011 30.75 27.6103 30.829 27.4697 30.9697C27.329 31.1103 27.25 31.3011 27.25 31.5V32C27.25 32.1989 27.329 32.3897 27.4697 32.5303C27.6103 32.671 27.8011 32.75 28 32.75C28.1989 32.75 28.3897 32.671 28.5303 32.5303C28.671 32.3897 28.75 32.1989 28.75 32V31.5Z" fill="#3B82F6"/>
</svg>
