<svg width="36" height="44" viewBox="0 0 36 44" fill="none" xmlns="http://www.w3.org/2000/svg">
<path d="M25.4873 0.308105H12.1447C9.57372 0.308105 7.4895 2.39783 7.4895 4.97563C7.4895 7.55343 9.57372 9.64315 12.1447 9.64315H25.4873C28.0583 9.64315 30.1425 7.55343 30.1425 4.97563C30.1425 2.39783 28.0583 0.308105 25.4873 0.308105Z" fill="#F2F2F2"/>
<path d="M25.4872 9.95129H12.1447C9.40826 9.95129 7.18213 7.71929 7.18213 4.97565C7.18213 2.232 9.40826 0 12.1447 0H25.4872C28.2236 0 30.4498 2.232 30.4498 4.97565C30.4498 7.71929 28.2236 9.95129 25.4872 9.95129ZM12.1447 0.617201C9.74782 0.617201 7.79675 2.57246 7.79675 4.9766C7.79675 7.38073 9.74687 9.336 12.1447 9.336H25.4872C27.8841 9.336 29.8351 7.38073 29.8351 4.9766C29.8351 2.57246 27.885 0.617201 25.4872 0.617201H12.1447Z" fill="#7F7F7F"/>
<path d="M11.6239 10.2041H25.5403C28.0794 10.2041 30.1415 12.2716 30.1415 14.8174V28.607C30.1415 30.974 28.2246 32.896 25.8637 32.896H11.623C5.3771 32.896 0.307373 27.8119 0.307373 21.5505C0.307373 15.2882 5.37805 10.2051 11.623 10.2051L11.6239 10.2041Z" fill="#F2F2F2"/>
<path d="M25.4871 33.2041H11.6239C5.21486 33.2041 0 27.9764 0 21.5496C0 15.1227 5.21391 9.89502 11.6239 9.89502H25.4871C28.2236 9.89502 30.4497 12.127 30.4497 14.8707V28.2275C30.4497 30.9711 28.2236 33.2032 25.4871 33.2032V33.2041ZM11.6239 10.5122C5.55347 10.5122 0.615581 15.4631 0.615581 21.5496C0.615581 27.636 5.55442 32.5869 11.6239 32.5869H25.4871C27.884 32.5869 29.8351 30.6316 29.8351 28.2275V14.8707C29.8351 12.4675 27.8849 10.5113 25.4871 10.5113H11.6239V10.5122Z" fill="#7F7F7F"/>
<path d="M25.4873 33.457H12.1447C9.57372 33.457 7.4895 35.5468 7.4895 38.1246C7.4895 40.7024 9.57372 42.7921 12.1447 42.7921H25.4873C28.0583 42.7921 30.1425 40.7024 30.1425 38.1246C30.1425 35.5468 28.0583 33.457 25.4873 33.457Z" fill="#F2F2F2"/>
<path d="M25.4872 43.1002H12.1447C9.40826 43.1002 7.18213 40.8682 7.18213 38.1246C7.18213 35.3809 9.40826 33.1489 12.1447 33.1489H25.4872C28.2236 33.1489 30.4498 35.3809 30.4498 38.1246C30.4498 40.8682 28.2236 43.1002 25.4872 43.1002ZM12.1447 33.7652C9.74782 33.7652 7.79675 35.7204 7.79675 38.1246C7.79675 40.5287 9.74687 42.484 12.1447 42.484H25.4872C27.8841 42.484 29.8351 40.5287 29.8351 38.1246C29.8351 35.7204 27.885 33.7652 25.4872 33.7652H12.1447Z" fill="#7F7F7F"/>
<path d="M34.8335 12.348V31.4032C34.8335 33.6933 32.9792 35.5515 30.6962 35.5515H30.0284C27.5016 35.5515 25.451 33.4945 25.451 30.962V12.154C25.451 9.61102 27.5102 7.54639 30.0464 7.54639C32.689 7.54639 34.8345 9.69755 34.8345 12.347L34.8335 12.348Z" fill="#F0F9FF"/>
<path d="M30.1424 35.8616C27.386 35.8616 25.1428 33.6134 25.1428 30.8489V12.252C25.1428 9.48838 27.3851 7.23926 30.1424 7.23926C32.8997 7.23926 35.1419 9.48743 35.1419 12.252V30.8489C35.1419 33.6125 32.8997 35.8616 30.1424 35.8616ZM30.1424 7.85646C27.7246 7.85646 25.7584 9.82789 25.7584 12.252V30.8489C25.7584 33.273 27.7246 35.2444 30.1424 35.2444C32.5601 35.2444 34.5263 33.273 34.5263 30.8489V12.252C34.5263 9.82789 32.5601 7.85646 30.1424 7.85646Z" fill="#7F7F7F"/>
</svg>
