<svg width="438" height="118" viewBox="0 0 438 118" fill="none" xmlns="http://www.w3.org/2000/svg">
<path d="M305.571 0.5H0.5V117.403H305.571V0.5Z" stroke="#231F20" stroke-miterlimit="10"/>
<path d="M305.571 117.403C305.571 117.403 358.108 115.949 399.003 90.8187C439.897 65.6884 436.599 58.9515 436.599 58.9515C436.599 58.9515 440.886 49.1543 399.003 27.6606C357.119 6.16703 338.78 0.5 305.571 0.5V117.403Z" stroke="#231F20" stroke-miterlimit="10"/>
<path d="M375.293 58.3181H345.386C345.383 58.1574 345.379 57.9967 345.375 57.8379H375.225C375.273 58.1508 375.293 58.3181 375.293 58.3181Z" fill="#F0F9FF" stroke="black" stroke-miterlimit="10"/>
<path d="M375.225 57.8381H345.375C344.411 23.2396 309.297 19.3101 309.297 19.3101V13.4424C309.297 13.4424 321.368 13.5432 346.769 22.5188C370.164 30.7858 374.66 54.1929 375.225 57.8381Z" fill="#F0F9FF" stroke="black" stroke-miterlimit="10"/>
<path d="M375.225 58.9512C375.225 58.9512 375.205 59.13 375.156 59.4638H345.337C345.342 59.2945 345.346 59.1224 345.349 58.9512H375.225Z" fill="#F0F9FF" stroke="black" stroke-miterlimit="10"/>
<path d="M375.156 59.4639C374.593 63.3582 370.101 88.3629 346.73 97.1949C321.356 106.783 309.297 106.891 309.297 106.891V100.622C309.297 100.622 344.375 96.4246 345.338 59.4639H375.156Z" fill="#F0F9FF" stroke="black" stroke-miterlimit="10"/>
<path d="M276.393 0.5H247.688V5.70104H276.393V0.5Z" fill="#F0F9FF" stroke="black" stroke-miterlimit="10"/>
</svg>
