<svg width="39" height="44" viewBox="0 0 39 44" fill="none" xmlns="http://www.w3.org/2000/svg">
<path d="M28.7644 0.308105H15.4218C12.8508 0.308105 10.7666 2.39783 10.7666 4.97563C10.7666 7.55343 12.8508 9.64315 15.4218 9.64315H28.7644C31.3354 9.64315 33.4196 7.55343 33.4196 4.97563C33.4196 2.39783 31.3354 0.308105 28.7644 0.308105Z" fill="#F2F2F2"/>
<path d="M28.7643 9.95129H15.4218C12.6854 9.95129 10.4592 7.71929 10.4592 4.97565C10.4592 2.232 12.6854 0 15.4218 0H28.7643C31.5007 0 33.7269 2.232 33.7269 4.97565C33.7269 7.71929 31.5007 9.95129 28.7643 9.95129ZM15.4218 0.617201C13.0249 0.617201 11.0739 2.57246 11.0739 4.9766C11.0739 7.38073 13.024 9.336 15.4218 9.336H28.7643C31.1612 9.336 33.1122 7.38073 33.1122 4.9766C33.1122 2.57246 31.1621 0.617201 28.7643 0.617201H15.4218Z" fill="#7F7F7F"/>
<path d="M14.902 10.2041H28.8184C31.3575 10.2041 33.4196 12.2716 33.4196 14.8174V28.607C33.4196 30.974 31.5026 32.896 29.1418 32.896H14.901C8.65518 32.896 3.58545 27.8119 3.58545 21.5505C3.58545 15.2882 8.65613 10.2051 14.901 10.2051L14.902 10.2041Z" fill="#F2F2F2"/>
<path d="M28.7642 33.2041H14.901C8.49195 33.2041 3.2771 27.9764 3.2771 21.5496C3.2771 15.1227 8.491 9.89502 14.901 9.89502H28.7642C31.5007 9.89502 33.7268 12.127 33.7268 14.8707V28.2275C33.7268 30.9711 31.5007 33.2032 28.7642 33.2032V33.2041ZM14.9019 10.5122C8.83151 10.5122 3.89362 15.4631 3.89362 21.5496C3.89362 27.636 8.83246 32.5869 14.9019 32.5869H28.7652C31.162 32.5869 33.1131 30.6316 33.1131 28.2275V14.8707C33.1131 12.4675 31.163 10.5113 28.7652 10.5113H14.9019V10.5122Z" fill="#7F7F7F"/>
<path d="M28.7644 33.457H15.4218C12.8508 33.457 10.7666 35.5468 10.7666 38.1246C10.7666 40.7024 12.8508 42.7921 15.4218 42.7921H28.7644C31.3354 42.7921 33.4196 40.7024 33.4196 38.1246C33.4196 35.5468 31.3354 33.457 28.7644 33.457Z" fill="#F2F2F2"/>
<path d="M28.7643 43.1002H15.4218C12.6854 43.1002 10.4592 40.8682 10.4592 38.1246C10.4592 35.3809 12.6854 33.1489 15.4218 33.1489H28.7643C31.5007 33.1489 33.7269 35.3809 33.7269 38.1246C33.7269 40.8682 31.5007 43.1002 28.7643 43.1002ZM15.4218 33.7652C13.0249 33.7652 11.0739 35.7204 11.0739 38.1246C11.0739 40.5287 13.024 42.484 15.4218 42.484H28.7643C31.1612 42.484 33.1122 40.5287 33.1122 38.1246C33.1122 35.7204 31.1621 33.7652 28.7643 33.7652H15.4218Z" fill="#7F7F7F"/>
<path d="M38.1116 12.349V31.4042C38.1116 33.6942 36.2573 35.5525 33.9742 35.5525H33.3065C30.7797 35.5525 28.729 33.4955 28.729 30.963V12.155C28.729 9.61199 30.7882 7.54736 33.3245 7.54736C35.967 7.54736 38.1125 9.69853 38.1125 12.348L38.1116 12.349Z" fill="#BE1E2D"/>
<path d="M33.4195 35.8616C30.6631 35.8616 28.4199 33.6134 28.4199 30.8489V12.252C28.4199 9.48838 30.6622 7.23926 33.4195 7.23926C36.1767 7.23926 38.419 9.48743 38.419 12.252V30.8489C38.419 33.6125 36.1767 35.8616 33.4195 35.8616ZM33.4195 7.85646C31.0017 7.85646 29.0355 9.82789 29.0355 12.252V30.8489C29.0355 33.273 31.0017 35.2444 33.4195 35.2444C35.8372 35.2444 37.8034 33.273 37.8034 30.8489V12.252C37.8034 9.82789 35.8372 7.85646 33.4195 7.85646Z" fill="#7F7F7F"/>
<path d="M24.1773 21.5186H0.695318C0.485781 21.5186 0.315918 21.6889 0.315918 21.899V29.2397C0.315918 29.4498 0.485781 29.6201 0.695318 29.6201H24.1773C24.3869 29.6201 24.5567 29.4498 24.5567 29.2397V21.899C24.5567 21.6889 24.3869 21.5186 24.1773 21.5186Z" fill="#F9F9F9"/>
<path d="M20.517 29.9366H4.35646C1.95391 29.9366 0 27.9775 0 25.5686C0 23.1597 1.95391 21.2007 4.35646 21.2007H20.517C22.9186 21.2007 24.8734 23.1597 24.8734 25.5686C24.8734 27.9775 22.9195 29.9366 20.517 29.9366ZM4.35646 21.835C2.30296 21.835 0.632649 23.5097 0.632649 25.5686C0.632649 27.6276 2.30296 29.3023 4.35646 29.3023H20.517C22.5705 29.3023 24.2408 27.6276 24.2408 25.5686C24.2408 23.5097 22.5705 21.835 20.517 21.835H4.35646Z" fill="#7F7F7F"/>
<path d="M24.1773 13.1567H0.695318C0.485781 13.1567 0.315918 13.327 0.315918 13.5371V20.8779C0.315918 21.088 0.485781 21.2583 0.695318 21.2583H24.1773C24.3869 21.2583 24.5567 21.088 24.5567 20.8779V13.5371C24.5567 13.327 24.3869 13.1567 24.1773 13.1567Z" fill="#F9F9F9"/>
<path d="M20.517 21.5758H4.35646C1.95391 21.5758 0 19.6167 0 17.2078C0 14.7989 1.95391 12.8398 4.35646 12.8398H20.517C22.9186 12.8398 24.8734 14.7989 24.8734 17.2078C24.8734 19.6167 22.9195 21.5758 20.517 21.5758ZM4.35646 13.4742C2.30296 13.4742 0.632649 15.1489 0.632649 17.2078C0.632649 19.2667 2.30296 20.9414 4.35646 20.9414H20.517C22.5705 20.9414 24.2408 19.2667 24.2408 17.2078C24.2408 15.1489 22.5705 13.4742 20.517 13.4742H4.35646Z" fill="#7F7F7F"/>
<path d="M24.5566 11.7463V30.9822C24.5566 33.7211 22.339 35.9445 19.6074 35.9445C16.9098 35.9445 14.7198 33.7487 14.7198 31.044L14.7198 11.9089C14.7198 9.28603 16.8434 7.15674 19.4594 7.15674H19.9792C22.506 7.15674 24.5566 9.21281 24.5566 11.7463Z" fill="#F9F9F9"/>
<path d="M19.6378 36.261C16.7516 36.261 14.4031 33.9063 14.4031 31.0124V12.0875C14.4031 9.19355 16.7516 6.83887 19.6378 6.83887C22.5241 6.83887 24.8726 9.19355 24.8726 12.0875V31.0124C24.8726 33.9063 22.5241 36.261 19.6378 36.261ZM19.6378 7.47319C17.0997 7.47319 15.0357 9.54352 15.0357 12.0875V31.0124C15.0357 33.5573 17.1006 35.6267 19.6378 35.6267C22.1751 35.6267 24.24 33.5563 24.24 31.0124V12.0875C24.24 9.54257 22.1751 7.47319 19.6378 7.47319Z" fill="#7F7F7F"/>
<path d="M19.9755 29.8198C24.6393 29.8198 28.42 26.0291 28.42 21.353C28.42 16.6769 24.6393 12.8862 19.9755 12.8862C15.3117 12.8862 11.531 16.6769 11.531 21.353C11.531 26.0291 15.3117 29.8198 19.9755 29.8198Z" fill="#7F7F7F"/>
</svg>
