<svg width="706" height="166" viewBox="0 0 706 166" fill="none" xmlns="http://www.w3.org/2000/svg">
<path d="M656 81C656 97.2921 649.17 112.043 638.128 122.72C628.605 131.928 615.947 138.107 601.834 139.63C599.585 139.875 597.299 140 594.983 140H421V22H594.983C597.299 22 599.586 22.1251 601.836 22.3695C632.308 25.6617 656 50.6541 656 81Z" fill="white" stroke="#EDEDED" stroke-miterlimit="10"/>
<rect x="559" y="22" width="2" height="118" fill="#D9D9D9"/>
<rect x="467" y="22" width="2" height="118" fill="#D9D9D9"/>
<path d="M696 81.0593C696 113.531 655.054 139.856 604.543 139.856C601.071 139.856 597.643 139.731 594.271 139.488C607.865 137.97 620.057 131.811 629.23 122.636C639.866 111.995 646.444 97.2952 646.444 81.0593C646.444 50.818 623.624 25.9117 594.272 22.6309C597.644 22.3873 601.071 22.2626 604.543 22.2626C655.054 22.2626 696 48.5874 696 81.0593Z" fill="#EDEDED"/>
<path d="M157 11H134V138H157V11Z" fill="#EDEDED"/>
<path d="M431 21.6196V140.141C431 140.21 430.948 140.269 430.878 140.277C361.876 147.437 279.334 99.1276 276.668 97.555C276.625 97.531 276.602 97.4857 276.602 97.4377V97.1619C276.602 97.0898 276.546 97.0289 276.473 97.0261L27.614 85.2006C25.8102 85.1143 24.2 84.3507 23.04 83.1698C21.88 81.9889 21.1716 80.3923 21.1716 78.6415C21.1716 75.0679 24.1172 72.1518 27.8006 72.0754L35.7284 71.9114C35.8013 71.91 35.8602 71.8491 35.8602 71.7756V57.3833C35.8602 57.3084 35.7999 57.2475 35.7256 57.2475H2.8558C1.27782 57.2475 0 55.9578 0 54.3682C0 52.7773 1.27922 51.4875 2.8558 51.4875H73.938C75.516 51.4875 76.7938 52.7773 76.7938 54.3668C76.7938 55.9578 75.5146 57.2475 73.938 57.2475H44.1176C44.0433 57.2475 43.983 57.3084 43.983 57.3833V71.6031C43.983 71.6794 44.0447 71.7402 44.1204 71.7388L276.47 66.9291C276.543 66.9277 276.602 66.8669 276.602 66.7934C276.602 66.7453 276.627 66.7015 276.668 66.676C363.582 14.2559 427.772 21.1162 430.882 21.4867C430.95 21.4952 431 21.5532 431 21.6211V21.6196Z" fill="#EDEDED"/>
<g clip-path="url(#clip0_2575_1113)">
<path d="M619.722 57.1515H626.244C627.501 57.1515 628.521 58.1694 628.521 59.425C628.521 60.6807 627.501 61.6986 626.244 61.6986H619.722C618.464 61.6986 617.444 60.6807 617.444 59.425C617.444 58.1694 618.464 57.1515 619.722 57.1515Z" fill="#F2F2F2"/>
<path d="M619.718 61.85H626.244C627.583 61.85 628.669 60.7614 628.669 59.4266C628.669 58.0918 627.583 57 626.244 57H619.718C618.379 57 617.293 58.0887 617.293 59.4234C617.293 60.7582 618.382 61.8469 619.718 61.8469V61.85ZM626.244 57.2998C627.416 57.2998 628.369 58.2527 628.369 59.4234C628.369 60.5941 627.416 61.5471 626.244 61.5471H619.718C618.547 61.5471 617.593 60.5941 617.593 59.4234C617.593 58.2527 618.547 57.2998 619.718 57.2998H626.244Z" fill="#7F7F7F"/>
<path d="M626.497 61.9731H619.719C618.462 61.9731 617.442 62.9923 617.442 64.2482V70.7549C617.442 72.0108 618.462 73.03 619.719 73.03H626.497C629.551 73.0269 632.03 70.5498 632.03 67.5016C632.03 64.4502 629.551 61.9731 626.497 61.9731Z" fill="#F2F2F2"/>
<path d="M619.719 73.1784H626.496C629.633 73.1784 632.182 70.6319 632.182 67.5016C632.182 64.3713 629.633 61.8216 626.496 61.8216H619.719C618.379 61.8216 617.293 62.9103 617.293 64.2451V70.7518C617.293 72.0897 618.382 73.1752 619.719 73.1752V73.1784ZM626.496 62.1214C629.465 62.1214 631.882 64.5354 631.882 67.5016C631.882 70.4678 629.465 72.8786 626.5 72.8786H619.722C618.55 72.8786 617.596 71.9256 617.596 70.7549V64.2482C617.596 63.0775 618.55 62.1246 619.722 62.1246H626.5L626.496 62.1214Z" fill="#7F7F7F"/>
<path d="M619.722 73.3014H626.244C627.501 73.3014 628.521 74.3193 628.521 75.575C628.521 76.8306 627.501 77.8485 626.244 77.8485H619.722C618.464 77.8485 617.444 76.8306 617.444 75.575C617.444 74.3193 618.464 73.3014 619.722 73.3014Z" fill="#F2F2F2"/>
<path d="M619.718 78H626.244C627.583 78 628.669 76.9113 628.669 75.5766C628.669 74.2418 627.58 73.1531 626.244 73.1531H619.718C618.379 73.1531 617.293 74.2418 617.293 75.5766C617.293 76.9113 618.382 78 619.718 78ZM626.244 73.4529C627.416 73.4529 628.369 74.4059 628.369 75.5766C628.369 76.7473 627.416 77.7002 626.244 77.7002H619.718C618.547 77.7002 617.593 76.7473 617.593 75.5766C617.593 74.4059 618.547 73.4529 619.718 73.4529H626.244Z" fill="#7F7F7F"/>
<path d="M615.148 72.0297V62.9671C615.148 61.7019 616.175 60.6762 617.441 60.6762H617.445C618.711 60.6762 619.738 61.7019 619.738 62.9671V72.0297C619.738 73.295 618.711 74.3207 617.445 74.3207H617.441C616.175 74.3207 615.148 73.295 615.148 72.0297Z" fill="#2165EC"/>
<path d="M617.445 74.4721C618.793 74.4721 619.889 73.3772 619.889 72.0298V62.9671C619.889 61.6197 618.793 60.5247 617.445 60.5247C616.096 60.5247 615 61.6197 615 62.9671V72.0298C615 73.3772 616.096 74.4721 617.445 74.4721ZM617.445 60.8276C618.626 60.8276 619.589 61.7869 619.589 62.9702V72.0329C619.589 73.2131 618.629 74.1755 617.445 74.1755C616.26 74.1755 615.3 73.2162 615.3 72.0329V62.9702C615.3 61.7901 616.26 60.8276 617.445 60.8276Z" fill="#2165EC"/>
</g>
<g clip-path="url(#clip1_2575_1113)">
<path d="M622.919 67.4842H633.169C633.936 67.4842 634.557 68.1114 634.557 68.885V70.4643C634.557 71.238 633.936 71.8651 633.169 71.8651H622.919C622.152 71.8651 621.53 71.238 621.53 70.4643V68.885C621.53 68.1114 622.152 67.4842 622.919 67.4842Z" fill="#F9F9F9"/>
<path d="M623.703 72.0332H632.388C633.679 72.0332 634.727 70.9721 634.727 69.6729C634.727 68.3737 633.675 67.3127 632.388 67.3127H623.703C622.412 67.3127 621.363 68.3737 621.363 69.6729C621.363 70.9721 622.415 72.0332 623.703 72.0332ZM632.388 67.6558C633.491 67.6558 634.39 68.5628 634.39 69.6764C634.39 70.79 633.491 71.697 632.388 71.697H623.703C622.599 71.697 621.7 70.79 621.7 69.6764C621.7 68.5628 622.599 67.6558 623.703 67.6558H632.388Z" fill="#7F7F7F"/>
<path d="M622.919 62.9598H633.169C633.936 62.9598 634.557 63.5869 634.557 64.3605V65.9399C634.557 66.7135 633.936 67.3407 633.169 67.3407H622.919C622.152 67.3407 621.53 66.7135 621.53 65.9399V64.3605C621.53 63.5869 622.152 62.9598 622.919 62.9598Z" fill="#F9F9F9"/>
<path d="M623.703 67.5123H632.388C633.679 67.5123 634.727 66.4512 634.727 65.152C634.727 63.8528 633.675 62.7917 632.388 62.7917H623.703C622.412 62.7917 621.363 63.8528 621.363 65.152C621.363 66.4512 622.415 67.5123 623.703 67.5123ZM632.388 63.1314C633.491 63.1314 634.39 64.0384 634.39 65.152C634.39 66.2656 633.491 67.1726 632.388 67.1726H623.703C622.599 67.1726 621.7 66.2656 621.7 65.152C621.7 64.0384 622.599 63.1314 623.703 63.1314H632.388Z" fill="#7F7F7F"/>
<path d="M621.53 73.5775V61.4225C621.53 60.4806 622.287 59.7171 623.22 59.7171H625.126C626.059 59.7171 626.816 60.4806 626.816 61.4225V73.5775C626.816 74.5194 626.059 75.283 625.126 75.283H623.22C622.287 75.283 621.53 74.5194 621.53 73.5775Z" fill="#F9F9F9"/>
<path d="M624.175 75.4545C625.726 75.4545 626.986 74.1799 626.986 72.618V62.382C626.986 60.8166 625.723 59.5455 624.175 59.5455C622.627 59.5455 621.363 60.8201 621.363 62.382V72.6145C621.363 74.1799 622.627 75.451 624.175 75.451V75.4545ZM624.175 59.8886C625.539 59.8886 626.65 61.0092 626.65 62.3855V72.618C626.65 73.9943 625.539 75.1149 624.175 75.1149C622.811 75.1149 621.7 73.9943 621.7 72.618V62.382C621.7 61.0057 622.811 59.8851 624.175 59.8851V59.8886Z" fill="#7F7F7F"/>
<path d="M623.991 71.9702C621.486 71.9702 619.454 69.921 619.454 67.3932C619.454 64.8654 621.486 62.8162 623.991 62.8162C626.497 62.8162 628.528 64.8654 628.528 67.3932C628.528 69.921 626.497 71.9702 623.991 71.9702Z" fill="#7F7F7F"/>
</g>
<g clip-path="url(#clip2_2575_1113)">
<path d="M619.722 83.1515H626.244C627.501 83.1515 628.521 84.1694 628.521 85.425C628.521 86.6807 627.501 87.6986 626.244 87.6986H619.722C618.464 87.6986 617.444 86.6807 617.444 85.425C617.444 84.1694 618.464 83.1515 619.722 83.1515Z" fill="#F2F2F2"/>
<path d="M619.718 87.85H626.244C627.583 87.85 628.669 86.7614 628.669 85.4266C628.669 84.0918 627.583 83 626.244 83H619.718C618.379 83 617.293 84.0887 617.293 85.4234C617.293 86.7582 618.382 87.8469 619.718 87.8469V87.85ZM626.244 83.2998C627.416 83.2998 628.369 84.2527 628.369 85.4234C628.369 86.5941 627.416 87.5471 626.244 87.5471H619.718C618.547 87.5471 617.593 86.5941 617.593 85.4234C617.593 84.2527 618.547 83.2998 619.718 83.2998H626.244Z" fill="#7F7F7F"/>
<path d="M626.497 87.9731H619.719C618.462 87.9731 617.442 88.9923 617.442 90.2482V96.7549C617.442 98.0108 618.462 99.03 619.719 99.03H626.497C629.551 99.0269 632.03 96.5498 632.03 93.5016C632.03 90.4502 629.551 87.9731 626.497 87.9731Z" fill="#F2F2F2"/>
<path d="M619.719 99.1784H626.496C629.633 99.1784 632.182 96.6319 632.182 93.5016C632.182 90.3713 629.633 87.8216 626.496 87.8216H619.719C618.379 87.8216 617.293 88.9103 617.293 90.2451V96.7518C617.293 98.0897 618.382 99.1752 619.719 99.1752V99.1784ZM626.496 88.1214C629.465 88.1214 631.882 90.5354 631.882 93.5016C631.882 96.4678 629.465 98.8786 626.5 98.8786H619.722C618.55 98.8786 617.596 97.9256 617.596 96.7549V90.2482C617.596 89.0775 618.55 88.1246 619.722 88.1246H626.5L626.496 88.1214Z" fill="#7F7F7F"/>
<path d="M619.722 99.3014H626.244C627.501 99.3014 628.521 100.319 628.521 101.575C628.521 102.831 627.501 103.849 626.244 103.849H619.722C618.464 103.849 617.444 102.831 617.444 101.575C617.444 100.319 618.464 99.3014 619.722 99.3014Z" fill="#F2F2F2"/>
<path d="M619.718 104H626.244C627.583 104 628.669 102.911 628.669 101.577C628.669 100.242 627.58 99.1531 626.244 99.1531H619.718C618.379 99.1531 617.293 100.242 617.293 101.577C617.293 102.911 618.382 104 619.718 104ZM626.244 99.4529C627.416 99.4529 628.369 100.406 628.369 101.577C628.369 102.747 627.416 103.7 626.244 103.7H619.718C618.547 103.7 617.593 102.747 617.593 101.577C617.593 100.406 618.547 99.4529 619.718 99.4529H626.244Z" fill="#7F7F7F"/>
<path d="M615.148 98.0297V88.9671C615.148 87.7019 616.175 86.6762 617.441 86.6762H617.445C618.711 86.6762 619.738 87.7019 619.738 88.9671V98.0297C619.738 99.295 618.711 100.321 617.445 100.321H617.441C616.175 100.321 615.148 99.295 615.148 98.0297Z" fill="#2165EC"/>
<path d="M617.445 100.472C618.793 100.472 619.889 99.3772 619.889 98.0298V88.9671C619.889 87.6197 618.793 86.5247 617.445 86.5247C616.096 86.5247 615 87.6197 615 88.9671V98.0298C615 99.3772 616.096 100.472 617.445 100.472ZM617.445 86.8276C618.626 86.8276 619.589 87.7869 619.589 88.9702V98.0329C619.589 99.2131 618.629 100.176 617.445 100.176C616.26 100.176 615.3 99.2162 615.3 98.0329V88.9702C615.3 87.7901 616.26 86.8276 617.445 86.8276Z" fill="#2165EC"/>
</g>
<g clip-path="url(#clip3_2575_1113)">
<path d="M622.919 93.4842H633.169C633.936 93.4842 634.557 94.1114 634.557 94.885V96.4643C634.557 97.238 633.936 97.8651 633.169 97.8651H622.919C622.152 97.8651 621.53 97.238 621.53 96.4643V94.885C621.53 94.1114 622.152 93.4842 622.919 93.4842Z" fill="#F9F9F9"/>
<path d="M623.703 98.0332H632.388C633.679 98.0332 634.727 96.9721 634.727 95.6729C634.727 94.3737 633.675 93.3127 632.388 93.3127H623.703C622.412 93.3127 621.363 94.3737 621.363 95.6729C621.363 96.9721 622.415 98.0332 623.703 98.0332ZM632.388 93.6558C633.491 93.6558 634.39 94.5628 634.39 95.6764C634.39 96.79 633.491 97.697 632.388 97.697H623.703C622.599 97.697 621.7 96.79 621.7 95.6764C621.7 94.5628 622.599 93.6558 623.703 93.6558H632.388Z" fill="#7F7F7F"/>
<path d="M622.919 88.9598H633.169C633.936 88.9598 634.557 89.5869 634.557 90.3605V91.9399C634.557 92.7135 633.936 93.3407 633.169 93.3407H622.919C622.152 93.3407 621.53 92.7135 621.53 91.9399V90.3605C621.53 89.5869 622.152 88.9598 622.919 88.9598Z" fill="#F9F9F9"/>
<path d="M623.703 93.5123H632.388C633.679 93.5123 634.727 92.4512 634.727 91.152C634.727 89.8528 633.675 88.7917 632.388 88.7917H623.703C622.412 88.7917 621.363 89.8528 621.363 91.152C621.363 92.4512 622.415 93.5123 623.703 93.5123ZM632.388 89.1314C633.491 89.1314 634.39 90.0384 634.39 91.152C634.39 92.2656 633.491 93.1726 632.388 93.1726H623.703C622.599 93.1726 621.7 92.2656 621.7 91.152C621.7 90.0384 622.599 89.1314 623.703 89.1314H632.388Z" fill="#7F7F7F"/>
<path d="M621.53 99.5775V87.4225C621.53 86.4806 622.287 85.7171 623.22 85.7171H625.126C626.059 85.7171 626.816 86.4806 626.816 87.4225V99.5775C626.816 100.519 626.059 101.283 625.126 101.283H623.22C622.287 101.283 621.53 100.519 621.53 99.5775Z" fill="#F9F9F9"/>
<path d="M624.175 101.455C625.726 101.455 626.986 100.18 626.986 98.618V88.382C626.986 86.8166 625.723 85.5455 624.175 85.5455C622.627 85.5455 621.363 86.8201 621.363 88.382V98.6145C621.363 100.18 622.627 101.451 624.175 101.451V101.455ZM624.175 85.8886C625.539 85.8886 626.65 87.0092 626.65 88.3855V98.618C626.65 99.9943 625.539 101.115 624.175 101.115C622.811 101.115 621.7 99.9943 621.7 98.618V88.382C621.7 87.0057 622.811 85.8851 624.175 85.8851V85.8886Z" fill="#7F7F7F"/>
<path d="M623.991 97.9702C621.486 97.9702 619.454 95.921 619.454 93.3932C619.454 90.8654 621.486 88.8162 623.991 88.8162C626.497 88.8162 628.528 90.8654 628.528 93.3932C628.528 95.921 626.497 97.9702 623.991 97.9702Z" fill="#7F7F7F"/>
</g>
<g clip-path="url(#clip4_2575_1113)">
<path d="M565.286 59.2758L556.789 59.2758C555.15 59.2758 553.822 57.9441 553.822 56.3014C553.822 54.6586 555.15 53.3269 556.789 53.3269L565.286 53.3269C566.925 53.3269 568.253 54.6586 568.253 56.3014C568.253 57.9441 566.925 59.2758 565.286 59.2758Z" fill="#F2F2F2"/>
<path d="M565.291 53.1288L556.789 53.1288C555.044 53.1288 553.628 54.553 553.628 56.2993C553.628 58.0456 555.044 59.474 556.789 59.474L565.291 59.474C567.035 59.474 568.451 58.0497 568.451 56.3035C568.451 54.5572 567.031 53.1329 565.291 53.1329L565.291 53.1288ZM556.789 59.0818C555.262 59.0818 554.019 57.8351 554.019 56.3035C554.019 54.7718 555.262 53.5251 556.789 53.5251L565.291 53.5251C566.817 53.5251 568.06 54.7718 568.06 56.3035C568.06 57.8351 566.817 59.0818 565.291 59.0818L556.789 59.0818Z" fill="#7F7F7F"/>
<path d="M556.46 52.9678L565.291 52.9678C566.929 52.9678 568.258 51.6343 568.258 49.9912L568.258 41.4786C568.258 39.8355 566.929 38.5021 565.291 38.5021L556.46 38.5021C552.48 38.5062 549.25 41.747 549.25 45.7349C549.25 49.727 552.48 52.9678 556.46 52.9678Z" fill="#F2F2F2"/>
<path d="M565.29 38.3081L556.459 38.3081C552.373 38.3081 549.052 41.6396 549.052 45.7349C549.052 49.8302 552.373 53.1659 556.459 53.1659L565.29 53.1659C567.035 53.1659 568.451 51.7416 568.451 49.9954L568.451 41.4828C568.451 39.7323 567.031 38.3122 565.29 38.3122L565.29 38.3081ZM556.459 52.7737C552.591 52.7737 549.443 49.6156 549.443 45.7349C549.443 41.8543 552.591 38.7003 556.455 38.7003L565.286 38.7003C566.813 38.7003 568.056 39.947 568.056 41.4786L568.056 49.9912C568.056 51.5228 566.813 52.7696 565.286 52.7696L556.455 52.7696L556.459 52.7737Z" fill="#7F7F7F"/>
<path d="M565.286 38.1471L556.789 38.1471C555.15 38.1471 553.822 36.8154 553.822 35.1726C553.822 33.5299 555.15 32.1982 556.789 32.1982L565.286 32.1982C566.925 32.1982 568.253 33.5299 568.253 35.1726C568.253 36.8154 566.925 38.1471 565.286 38.1471Z" fill="#F2F2F2"/>
<path d="M565.291 32L556.789 32C555.044 32 553.628 33.4243 553.628 35.1706C553.628 36.9168 555.048 38.3411 556.789 38.3411L565.291 38.3411C567.035 38.3411 568.451 36.9168 568.451 35.1706C568.451 33.4243 567.031 32 565.291 32ZM556.789 37.9489C555.262 37.9489 554.019 36.7022 554.019 35.1706C554.019 33.6389 555.262 32.3922 556.789 32.3922L565.291 32.3922C566.817 32.3922 568.06 33.6389 568.06 35.1706C568.06 36.7022 566.817 37.9489 565.291 37.9489L556.789 37.9489Z" fill="#7F7F7F"/>
<path d="M571.245 39.8108L571.245 51.6673C571.245 53.3226 569.908 54.6645 568.258 54.6645L568.253 54.6645C566.603 54.6645 565.266 53.3226 565.266 51.6673L565.266 39.8108C565.266 38.1555 566.603 36.8136 568.253 36.8136L568.258 36.8136C569.908 36.8136 571.245 38.1555 571.245 39.8108Z" fill="#EC4021"/>
<path d="M568.253 36.6155C566.496 36.6155 565.068 38.048 565.068 39.8108L565.068 51.6673C565.068 53.4301 566.496 54.8627 568.253 54.8627C570.011 54.8627 571.439 53.4301 571.439 51.6673L571.439 39.8108C571.439 38.048 570.011 36.6155 568.253 36.6155ZM568.253 54.4664C566.714 54.4664 565.459 53.2113 565.459 51.6632L565.459 39.8067C565.459 38.2627 566.71 37.0035 568.253 37.0035C569.797 37.0035 571.048 38.2585 571.048 39.8067L571.048 51.6632C571.048 53.2072 569.797 54.4664 568.253 54.4664Z" fill="#EC4021"/>
</g>
<path d="M574.892 42.4345L574.892 49.0436C574.892 49.9663 574.146 50.7143 573.227 50.7143L573.224 50.7143C572.305 50.7143 571.559 49.9663 571.559 49.0436L571.559 42.4345C571.559 41.5118 572.305 40.7638 573.224 40.7638L573.227 40.7638C574.146 40.7638 574.892 41.5118 574.892 42.4345Z" fill="black"/>
<path d="M573.225 40.6534C572.245 40.6534 571.449 41.4519 571.449 42.4345L571.449 49.0436C571.449 50.0263 572.245 50.8248 573.225 50.8248C574.204 50.8248 575 50.0263 575 49.0436L575 42.4345C575 41.4519 574.204 40.6534 573.225 40.6534ZM573.225 50.6039C572.367 50.6039 571.667 49.9043 571.667 49.0413L571.667 42.4322C571.667 41.5715 572.364 40.8697 573.225 40.8697C574.085 40.8697 574.782 41.5692 574.782 42.4322L574.782 49.0413C574.782 49.902 574.085 50.6039 573.225 50.6039Z" fill="black"/>
<g clip-path="url(#clip5_2575_1113)">
<path d="M561.735 45.5033L548.077 45.5033C547.055 45.5033 546.227 44.681 546.227 43.6666L546.227 41.5958C546.227 40.5814 547.055 39.7591 548.077 39.7591L561.735 39.7591C562.757 39.7591 563.585 40.5814 563.585 41.5958L563.585 43.6666C563.585 44.681 562.757 45.5033 561.735 45.5033Z" fill="#F9F9F9"/>
<path d="M560.69 39.5387L549.117 39.5387C547.397 39.5387 546 40.93 546 42.6335C546 44.337 547.401 45.7283 549.117 45.7283L560.69 45.7283C562.41 45.7283 563.807 44.337 563.807 42.6335C563.807 40.93 562.406 39.5387 560.69 39.5387ZM549.117 45.2783C547.647 45.2783 546.449 44.089 546.449 42.6289C546.449 41.1688 547.647 39.9795 549.117 39.9795L560.69 39.9795C562.161 39.9795 563.359 41.1688 563.359 42.6289C563.359 44.089 562.161 45.2783 560.69 45.2783L549.117 45.2783Z" fill="#7F7F7F"/>
<path d="M561.735 51.4357L548.077 51.4357C547.055 51.4357 546.227 50.6134 546.227 49.599L546.227 47.5282C546.227 46.5138 547.055 45.6915 548.077 45.6915L561.735 45.6915C562.757 45.6915 563.585 46.5138 563.585 47.5282L563.585 49.599C563.585 50.6134 562.757 51.4357 561.735 51.4357Z" fill="#F9F9F9"/>
<path d="M560.69 45.4665L549.117 45.4665C547.397 45.4665 546 46.8578 546 48.5613C546 50.2648 547.401 51.6561 549.117 51.6561L560.69 51.6561C562.41 51.6561 563.807 50.2648 563.807 48.5613C563.807 46.8578 562.406 45.4665 560.69 45.4665ZM549.117 51.2107C547.647 51.2107 546.449 50.0215 546.449 48.5613C546.449 47.1012 547.647 45.9119 549.117 45.9119L560.69 45.9119C562.161 45.9119 563.359 47.1012 563.359 48.5613C563.359 50.0215 562.161 51.2107 560.69 51.2107L549.117 51.2107Z" fill="#7F7F7F"/>
<path d="M563.585 37.5138L563.585 53.4514C563.585 54.6864 562.577 55.6876 561.333 55.6876L558.794 55.6876C557.55 55.6876 556.541 54.6864 556.541 53.4514L556.541 37.5138C556.541 36.2788 557.55 35.2777 558.794 35.2777L561.333 35.2777C562.577 35.2777 563.585 36.2788 563.585 37.5138Z" fill="#F9F9F9"/>
<path d="M560.061 35.0527C557.993 35.0527 556.314 36.724 556.314 38.7719L556.314 52.1933C556.314 54.2458 557.998 55.9126 560.061 55.9126C562.124 55.9126 563.807 54.2412 563.807 52.1933L563.807 38.7765C563.807 36.724 562.124 35.0573 560.061 35.0573L560.061 35.0527ZM560.061 55.4626C558.243 55.4626 556.763 53.9933 556.763 52.1887L556.763 38.7719C556.763 36.9674 558.243 35.4981 560.061 35.4981C561.879 35.4981 563.359 36.9674 563.359 38.7719L563.359 52.1933C563.359 53.9978 561.879 55.4672 560.061 55.4672L560.061 55.4626Z" fill="#7F7F7F"/>
<path d="M560.306 39.6214C563.645 39.6214 566.351 42.3082 566.351 45.6227C566.351 48.9371 563.645 51.624 560.306 51.624C556.967 51.624 554.261 48.9371 554.261 45.6227C554.261 42.3082 556.967 39.6214 560.306 39.6214Z" fill="#7F7F7F"/>
</g>
<g clip-path="url(#clip6_2575_1113)">
<path d="M463.714 102.198L472.211 102.198C473.85 102.198 475.178 103.53 475.178 105.173C475.178 106.815 473.85 108.147 472.211 108.147L463.714 108.147C462.075 108.147 460.747 106.815 460.747 105.173C460.747 103.53 462.075 102.198 463.714 102.198Z" fill="#F2F2F2"/>
<path d="M463.709 108.345L472.211 108.345C473.956 108.345 475.372 106.921 475.372 105.175C475.372 103.428 473.956 102 472.211 102L463.709 102C461.965 102 460.549 103.424 460.549 105.171C460.549 106.917 461.969 108.341 463.709 108.341V108.345ZM472.211 102.392C473.738 102.392 474.981 103.639 474.981 105.171C474.981 106.702 473.738 107.949 472.211 107.949L463.709 107.949C462.183 107.949 460.94 106.702 460.94 105.171C460.94 103.639 462.183 102.392 463.709 102.392L472.211 102.392Z" fill="#7F7F7F"/>
<path d="M472.54 108.506L463.709 108.506C462.071 108.506 460.742 109.84 460.742 111.483L460.742 119.995C460.742 121.638 462.071 122.972 463.709 122.972L472.54 122.972C476.52 122.968 479.75 119.727 479.75 115.739C479.75 111.747 476.52 108.506 472.54 108.506Z" fill="#F2F2F2"/>
<path d="M463.71 123.166L472.541 123.166C476.627 123.166 479.948 119.834 479.948 115.739C479.948 111.644 476.627 108.308 472.541 108.308L463.71 108.308C461.965 108.308 460.549 109.732 460.549 111.479L460.549 119.991C460.549 121.742 461.969 123.162 463.71 123.162V123.166ZM472.541 108.7C476.409 108.7 479.557 111.858 479.557 115.739C479.557 119.62 476.409 122.774 472.545 122.774L463.714 122.774C462.187 122.774 460.944 121.527 460.944 119.995L460.944 111.483C460.944 109.951 462.187 108.704 463.714 108.704L472.545 108.704L472.541 108.7Z" fill="#7F7F7F"/>
<path d="M463.714 123.327L472.211 123.327C473.85 123.327 475.178 124.659 475.178 126.301C475.178 127.944 473.85 129.276 472.211 129.276L463.714 129.276C462.075 129.276 460.747 127.944 460.747 126.301C460.747 124.659 462.075 123.327 463.714 123.327Z" fill="#F2F2F2"/>
<path d="M463.709 129.474L472.211 129.474C473.956 129.474 475.372 128.05 475.372 126.303C475.372 124.557 473.952 123.133 472.211 123.133L463.709 123.133C461.965 123.133 460.549 124.557 460.549 126.303C460.549 128.05 461.969 129.474 463.709 129.474ZM472.211 123.525C473.738 123.525 474.981 124.772 474.981 126.303C474.981 127.835 473.738 129.082 472.211 129.082L463.709 129.082C462.183 129.082 460.94 127.835 460.94 126.303C460.94 124.772 462.183 123.525 463.709 123.525L472.211 123.525Z" fill="#7F7F7F"/>
<path d="M457.755 121.663L457.755 109.807C457.755 108.151 459.092 106.81 460.742 106.81H460.747C462.397 106.81 463.734 108.151 463.734 109.807L463.734 121.663C463.734 123.319 462.397 124.66 460.747 124.66H460.742C459.092 124.66 457.755 123.319 457.755 121.663Z" fill="#EC4021"/>
<path d="M460.747 124.859C462.504 124.859 463.932 123.426 463.932 121.663L463.932 109.807C463.932 108.044 462.504 106.611 460.747 106.611C458.989 106.611 457.561 108.044 457.561 109.807L457.561 121.663C457.561 123.426 458.989 124.859 460.747 124.859ZM460.747 107.008C462.286 107.008 463.541 108.263 463.541 109.811L463.541 121.667C463.541 123.211 462.29 124.47 460.747 124.47C459.203 124.47 457.952 123.215 457.952 121.667L457.952 109.811C457.952 108.267 459.203 107.008 460.747 107.008Z" fill="#EC4021"/>
</g>
<path d="M454.108 119.04L454.108 112.43C454.108 111.508 454.854 110.76 455.773 110.76H455.776C456.695 110.76 457.441 111.508 457.441 112.43L457.441 119.04C457.441 119.962 456.695 120.71 455.776 120.71H455.773C454.854 120.71 454.108 119.962 454.108 119.04Z" fill="black"/>
<path d="M455.775 120.821C456.755 120.821 457.551 120.022 457.551 119.04L457.551 112.43C457.551 111.448 456.755 110.649 455.775 110.649C454.796 110.649 454 111.448 454 112.43L454 119.04C454 120.022 454.796 120.821 455.775 120.821ZM455.775 110.87C456.633 110.87 457.333 111.57 457.333 112.433L457.333 119.042C457.333 119.902 456.636 120.604 455.775 120.604C454.915 120.604 454.218 119.905 454.218 119.042L454.218 112.433C454.218 111.572 454.915 110.87 455.775 110.87Z" fill="black"/>
<g clip-path="url(#clip7_2575_1113)">
<path d="M467.265 115.971L480.923 115.971C481.945 115.971 482.773 116.793 482.773 117.807V119.878C482.773 120.893 481.945 121.715 480.923 121.715L467.265 121.715C466.243 121.715 465.415 120.893 465.415 119.878V117.807C465.415 116.793 466.243 115.971 467.265 115.971Z" fill="#F9F9F9"/>
<path d="M468.31 121.935L479.883 121.935C481.603 121.935 483 120.544 483 118.841C483 117.137 481.599 115.746 479.883 115.746L468.31 115.746C466.59 115.746 465.193 117.137 465.193 118.841C465.193 120.544 466.594 121.935 468.31 121.935ZM479.883 116.196C481.353 116.196 482.551 117.385 482.551 118.845C482.551 120.305 481.353 121.494 479.883 121.494L468.31 121.494C466.839 121.494 465.641 120.305 465.641 118.845C465.641 117.385 466.839 116.196 468.31 116.196L479.883 116.196Z" fill="#7F7F7F"/>
<path d="M467.265 110.038L480.923 110.038C481.945 110.038 482.773 110.861 482.773 111.875V113.946C482.773 114.96 481.945 115.782 480.923 115.782L467.265 115.782C466.243 115.782 465.415 114.96 465.415 113.946V111.875C465.415 110.861 466.243 110.038 467.265 110.038Z" fill="#F9F9F9"/>
<path d="M468.31 116.007L479.883 116.007C481.603 116.007 483 114.616 483 112.913C483 111.209 481.599 109.818 479.883 109.818L468.31 109.818C466.59 109.818 465.193 111.209 465.193 112.913C465.193 114.616 466.594 116.007 468.31 116.007ZM479.883 110.263C481.353 110.263 482.551 111.453 482.551 112.913C482.551 114.373 481.353 115.562 479.883 115.562L468.31 115.562C466.839 115.562 465.641 114.373 465.641 112.913C465.641 111.453 466.839 110.263 468.31 110.263L479.883 110.263Z" fill="#7F7F7F"/>
<path d="M465.415 123.96L465.415 108.023C465.415 106.788 466.423 105.786 467.667 105.786H470.206C471.45 105.786 472.459 106.788 472.459 108.023L472.459 123.96C472.459 125.195 471.45 126.196 470.206 126.196L467.667 126.196C466.423 126.196 465.415 125.195 465.415 123.96Z" fill="#F9F9F9"/>
<path d="M468.939 126.421C471.007 126.421 472.686 124.75 472.686 122.702L472.686 109.281C472.686 107.228 471.002 105.561 468.939 105.561C466.876 105.561 465.193 107.233 465.193 109.281L465.193 122.698C465.193 124.75 466.876 126.417 468.939 126.417V126.421ZM468.939 106.011C470.757 106.011 472.237 107.481 472.237 109.285L472.237 122.702C472.237 124.507 470.757 125.976 468.939 125.976C467.121 125.976 465.641 124.507 465.641 122.702L465.641 109.281C465.641 107.476 467.121 106.007 468.939 106.007V106.011Z" fill="#7F7F7F"/>
<path d="M468.694 121.853C465.355 121.853 462.649 119.166 462.649 115.851C462.649 112.537 465.355 109.85 468.694 109.85C472.033 109.85 474.739 112.537 474.739 115.851C474.739 119.166 472.033 121.853 468.694 121.853Z" fill="#7F7F7F"/>
</g>
<g clip-path="url(#clip8_2575_1113)">
<path d="M565.286 94.2758L556.789 94.2758C555.15 94.2758 553.822 92.9441 553.822 91.3013C553.822 89.6586 555.15 88.3269 556.789 88.3269L565.286 88.3269C566.925 88.3269 568.253 89.6586 568.253 91.3013C568.253 92.9441 566.925 94.2758 565.286 94.2758Z" fill="#F2F2F2"/>
<path d="M565.291 88.1287L556.789 88.1287C555.044 88.1287 553.628 89.553 553.628 91.2993C553.628 93.0456 555.044 94.474 556.789 94.474L565.291 94.474C567.035 94.474 568.451 93.0497 568.451 91.3034C568.451 89.5571 567.031 88.1329 565.291 88.1329L565.291 88.1287ZM556.789 94.0818C555.262 94.0818 554.019 92.835 554.019 91.3034C554.019 89.7718 555.262 88.525 556.789 88.525L565.291 88.5251C566.817 88.5251 568.06 89.7718 568.06 91.3034C568.06 92.835 566.817 94.0818 565.291 94.0818L556.789 94.0818Z" fill="#7F7F7F"/>
<path d="M556.46 87.9677L565.291 87.9677C566.929 87.9677 568.258 86.6343 568.258 84.9912L568.258 76.4786C568.258 74.8355 566.929 73.5021 565.291 73.5021L556.46 73.5021C552.48 73.5062 549.25 76.7469 549.25 80.7349C549.25 84.727 552.48 87.9677 556.46 87.9677Z" fill="#F2F2F2"/>
<path d="M565.29 73.308L556.459 73.308C552.373 73.308 549.052 76.6396 549.052 80.7349C549.052 84.8302 552.373 88.1659 556.459 88.1659L565.29 88.1659C567.035 88.1659 568.451 86.7416 568.451 84.9953L568.451 76.4827C568.451 74.7323 567.031 73.3122 565.29 73.3122L565.29 73.308ZM556.459 87.7737C552.591 87.7737 549.443 84.6155 549.443 80.7349C549.443 76.8543 552.591 73.7002 556.455 73.7002L565.286 73.7002C566.813 73.7002 568.056 74.947 568.056 76.4786L568.056 84.9912C568.056 86.5228 566.813 87.7696 565.286 87.7696L556.455 87.7696L556.459 87.7737Z" fill="#7F7F7F"/>
<path d="M565.286 73.147L556.789 73.147C555.15 73.147 553.822 71.8153 553.822 70.1726C553.822 68.5298 555.15 67.1981 556.789 67.1981L565.286 67.1981C566.925 67.1981 568.253 68.5298 568.253 70.1726C568.253 71.8153 566.925 73.147 565.286 73.147Z" fill="#F2F2F2"/>
<path d="M565.291 67L556.789 67C555.044 67 553.628 68.4242 553.628 70.1705C553.628 71.9168 555.048 73.3411 556.789 73.3411L565.291 73.3411C567.035 73.3411 568.451 71.9168 568.451 70.1705C568.451 68.4242 567.031 67 565.291 67ZM556.789 72.9489C555.262 72.9489 554.019 71.7021 554.019 70.1705C554.019 68.6389 555.262 67.3921 556.789 67.3921L565.291 67.3921C566.817 67.3921 568.06 68.6389 568.06 70.1705C568.06 71.7021 566.817 72.9489 565.291 72.9489L556.789 72.9489Z" fill="#7F7F7F"/>
<path d="M571.146 86.6674L571.146 74.8109C571.146 73.2107 569.852 71.9136 568.258 71.9135L568.254 71.9135C566.659 71.9135 565.366 73.2106 565.366 74.8109L565.366 86.6674C565.366 88.2677 566.659 89.5648 568.254 89.5648L568.258 89.5648C569.852 89.5647 571.145 88.2676 571.146 86.6674Z" fill="#F0F9FF" stroke="#7F7F7F" stroke-width="0.2"/>
<path d="M568.254 89.763C569.955 89.7628 571.339 88.375 571.339 86.6673L571.339 74.8109C571.339 73.1031 569.955 71.7154 568.254 71.7152C566.552 71.7152 565.168 73.103 565.168 74.8109L565.168 86.6673C565.168 88.3752 566.552 89.763 568.254 89.763ZM568.254 89.5667C566.659 89.5667 565.36 88.2664 565.359 86.6634L565.359 74.807C565.359 73.2081 566.655 71.9036 568.254 71.9036C569.852 71.9039 571.147 73.2041 571.147 74.807L571.147 86.6634C571.147 88.262 569.852 89.5665 568.254 89.5667Z" fill="#F0F9FF" stroke="#7F7F7F" stroke-width="0.2"/>
</g>
<path d="M574.892 77.4345L574.892 84.0436C574.892 84.9663 574.146 85.7143 573.227 85.7143L573.224 85.7143C572.305 85.7143 571.559 84.9663 571.559 84.0436L571.559 77.4345C571.559 76.5118 572.305 75.7638 573.224 75.7638L573.227 75.7638C574.146 75.7638 574.892 76.5118 574.892 77.4345Z" fill="black"/>
<path d="M573.225 75.6533C572.245 75.6533 571.449 76.4518 571.449 77.4345L571.449 84.0436C571.449 85.0262 572.245 85.8248 573.225 85.8248C574.204 85.8248 575 85.0262 575 84.0436L575 77.4345C575 76.4518 574.204 75.6533 573.225 75.6533ZM573.225 85.6038C572.367 85.6038 571.667 84.9043 571.667 84.0413L571.667 77.4322C571.667 76.5715 572.364 75.8696 573.225 75.8696C574.085 75.8696 574.782 76.5692 574.782 77.4322L574.782 84.0413C574.782 84.902 574.085 85.6038 573.225 85.6038Z" fill="black"/>
<g clip-path="url(#clip9_2575_1113)">
<path d="M561.735 80.5032L548.077 80.5032C547.055 80.5032 546.227 79.6809 546.227 78.6666L546.227 76.5957C546.227 75.5814 547.055 74.7591 548.077 74.7591L561.735 74.7591C562.757 74.7591 563.585 75.5814 563.585 76.5957L563.585 78.6666C563.585 79.6809 562.757 80.5032 561.735 80.5032Z" fill="#F9F9F9"/>
<path d="M560.69 74.5387L549.117 74.5387C547.397 74.5387 546 75.9299 546 77.6334C546 79.337 547.401 80.7282 549.117 80.7282L560.69 80.7282C562.41 80.7282 563.807 79.337 563.807 77.6334C563.807 75.9299 562.406 74.5387 560.69 74.5387ZM549.117 80.2782C547.647 80.2782 546.449 79.089 546.449 77.6289C546.449 76.1687 547.647 74.9795 549.117 74.9795L560.69 74.9795C562.161 74.9795 563.359 76.1687 563.359 77.6289C563.359 79.089 562.161 80.2782 560.69 80.2782L549.117 80.2782Z" fill="#7F7F7F"/>
<path d="M561.735 86.4357L548.077 86.4357C547.055 86.4357 546.227 85.6134 546.227 84.599L546.227 82.5282C546.227 81.5138 547.055 80.6915 548.077 80.6915L561.735 80.6915C562.757 80.6915 563.585 81.5138 563.585 82.5282L563.585 84.599C563.585 85.6134 562.757 86.4357 561.735 86.4357Z" fill="#F9F9F9"/>
<path d="M560.69 80.4665L549.117 80.4665C547.397 80.4665 546 81.8578 546 83.5613C546 85.2648 547.401 86.6561 549.117 86.6561L560.69 86.6561C562.41 86.6561 563.807 85.2648 563.807 83.5613C563.807 81.8578 562.406 80.4665 560.69 80.4665ZM549.117 86.2107C547.647 86.2107 546.449 85.0214 546.449 83.5613C546.449 82.1011 547.647 80.9119 549.117 80.9119L560.69 80.9119C562.161 80.9119 563.359 82.1011 563.359 83.5613C563.359 85.0214 562.161 86.2107 560.69 86.2107L549.117 86.2107Z" fill="#7F7F7F"/>
<path d="M563.585 72.5137L563.585 88.4514C563.585 89.6864 562.577 90.6875 561.333 90.6875L558.794 90.6875C557.55 90.6875 556.541 89.6864 556.541 88.4514L556.541 72.5137C556.541 71.2788 557.55 70.2776 558.794 70.2776L561.333 70.2776C562.577 70.2776 563.585 71.2788 563.585 72.5137Z" fill="#F9F9F9"/>
<path d="M560.061 70.0526C557.993 70.0526 556.314 71.724 556.314 73.7719L556.314 87.1933C556.314 89.2457 557.998 90.9125 560.061 90.9125C562.124 90.9125 563.807 89.2412 563.807 87.1933L563.807 73.7765C563.807 71.724 562.124 70.0572 560.061 70.0572L560.061 70.0526ZM560.061 90.4625C558.243 90.4625 556.763 88.9932 556.763 87.1887L556.763 73.7719C556.763 71.9673 558.243 70.498 560.061 70.498C561.879 70.498 563.359 71.9673 563.359 73.7719L563.359 87.1933C563.359 88.9978 561.879 90.4671 560.061 90.4671L560.061 90.4625Z" fill="#7F7F7F"/>
<path d="M560.306 74.6213C563.645 74.6213 566.351 77.3082 566.351 80.6226C566.351 83.937 563.645 86.6239 560.306 86.6239C556.967 86.6239 554.261 83.937 554.261 80.6226C554.261 77.3082 556.967 74.6213 560.306 74.6213Z" fill="#7F7F7F"/>
</g>
<g clip-path="url(#clip10_2575_1113)">
<path d="M463.714 67.1982L472.211 67.1982C473.85 67.1982 475.178 68.5299 475.178 70.1727C475.178 71.8154 473.85 73.1471 472.211 73.1471L463.714 73.1471C462.075 73.1471 460.747 71.8154 460.747 70.1727C460.747 68.5299 462.075 67.1982 463.714 67.1982Z" fill="#F2F2F2"/>
<path d="M463.709 73.3453L472.211 73.3453C473.956 73.3453 475.372 71.921 475.372 70.1747C475.372 68.4284 473.956 67 472.211 67L463.709 67C461.965 67 460.549 68.4243 460.549 70.1706C460.549 71.9169 461.969 73.3411 463.709 73.3411L463.709 73.3453ZM472.211 67.3922C473.738 67.3922 474.981 68.639 474.981 70.1706C474.981 71.7022 473.738 72.9489 472.211 72.9489L463.709 72.9489C462.183 72.9489 460.94 71.7022 460.94 70.1706C460.94 68.639 462.183 67.3922 463.709 67.3922L472.211 67.3922Z" fill="#7F7F7F"/>
<path d="M472.54 73.5063L463.709 73.5063C462.071 73.5063 460.742 74.8397 460.742 76.4828L460.742 84.9954C460.742 86.6385 462.071 87.9719 463.709 87.9719L472.54 87.9719C476.52 87.9678 479.75 84.7271 479.75 80.7391C479.75 76.747 476.52 73.5063 472.54 73.5063Z" fill="#F2F2F2"/>
<path d="M463.71 88.166L472.541 88.166C476.627 88.166 479.948 84.8344 479.948 80.7391C479.948 76.6438 476.627 73.3081 472.541 73.3081L463.71 73.3081C461.965 73.3081 460.549 74.7324 460.549 76.4787L460.549 84.9913C460.549 86.7417 461.969 88.1618 463.71 88.1618L463.71 88.166ZM472.541 73.7003C476.409 73.7003 479.557 76.8585 479.557 80.7391C479.557 84.6197 476.409 87.7738 472.545 87.7738L463.714 87.7738C462.187 87.7738 460.944 86.527 460.944 84.9954L460.944 76.4828C460.944 74.9512 462.187 73.7044 463.714 73.7044L472.545 73.7044L472.541 73.7003Z" fill="#7F7F7F"/>
<path d="M463.714 88.327L472.211 88.327C473.85 88.327 475.178 89.6587 475.178 91.3014C475.178 92.9442 473.85 94.2759 472.211 94.2759L463.714 94.2759C462.075 94.2759 460.747 92.9442 460.747 91.3014C460.747 89.6587 462.075 88.327 463.714 88.327Z" fill="#F2F2F2"/>
<path d="M463.709 94.474L472.211 94.474C473.956 94.474 475.372 93.0498 475.372 91.3035C475.372 89.5572 473.952 88.1329 472.211 88.1329L463.709 88.1329C461.965 88.1329 460.549 89.5572 460.549 91.3035C460.549 93.0498 461.969 94.474 463.709 94.474ZM472.211 88.5251C473.738 88.5251 474.981 89.7719 474.981 91.3035C474.981 92.8351 473.738 94.0819 472.211 94.0819L463.709 94.0819C462.183 94.0819 460.94 92.8351 460.94 91.3035C460.94 89.7719 462.183 88.5251 463.709 88.5251L472.211 88.5251Z" fill="#7F7F7F"/>
<path d="M457.854 74.8066L457.854 86.6631C457.854 88.2633 459.148 89.5604 460.742 89.5605L460.746 89.5605C462.341 89.5605 463.634 88.2634 463.634 86.6631L463.634 74.8066C463.634 73.2063 462.341 71.9091 460.746 71.9091L460.742 71.9091C459.148 71.9093 457.855 73.2064 457.854 74.8066Z" fill="#F0F9FF" stroke="#7F7F7F" stroke-width="0.2"/>
<path d="M460.746 71.711C459.045 71.7112 457.661 73.099 457.661 74.8067L457.661 86.6631C457.661 88.3709 459.045 89.7586 460.746 89.7588C462.448 89.7588 463.832 88.371 463.832 86.6631L463.832 74.8067C463.832 73.0988 462.448 71.711 460.746 71.711ZM460.746 71.9073C462.341 71.9073 463.64 73.2076 463.641 74.8106L463.641 86.667C463.641 88.2659 462.345 89.5704 460.746 89.5704C459.148 89.5701 457.853 88.2699 457.853 86.667L457.853 74.8106C457.853 73.212 459.148 71.9075 460.746 71.9073Z" fill="#F0F9FF" stroke="#7F7F7F" stroke-width="0.2"/>
</g>
<path d="M454.108 84.0395L454.108 77.4304C454.108 76.5077 454.854 75.7597 455.773 75.7597L455.776 75.7597C456.695 75.7597 457.441 76.5077 457.441 77.4304L457.441 84.0395C457.441 84.9622 456.695 85.7102 455.776 85.7102L455.773 85.7102C454.854 85.7102 454.108 84.9622 454.108 84.0395Z" fill="black"/>
<path d="M455.775 85.8207C456.755 85.8207 457.551 85.0222 457.551 84.0395L457.551 77.4304C457.551 76.4478 456.755 75.6492 455.775 75.6492C454.796 75.6492 454 76.4478 454 77.4304L454 84.0395C454 85.0222 454.796 85.8207 455.775 85.8207ZM455.775 75.8702C456.633 75.8702 457.333 76.5697 457.333 77.4327L457.333 84.0418C457.333 84.9025 456.636 85.6044 455.775 85.6044C454.915 85.6044 454.218 84.9048 454.218 84.0418L454.218 77.4327C454.218 76.572 454.915 75.8702 455.775 75.8702Z" fill="black"/>
<g clip-path="url(#clip11_2575_1113)">
<path d="M467.265 80.9708L480.923 80.9708C481.945 80.9708 482.773 81.7931 482.773 82.8074L482.773 84.8783C482.773 85.8926 481.945 86.7149 480.923 86.7149L467.265 86.7149C466.243 86.7149 465.415 85.8926 465.415 84.8783L465.415 82.8074C465.415 81.7931 466.243 80.9708 467.265 80.9708Z" fill="#F9F9F9"/>
<path d="M468.31 86.9353L479.883 86.9353C481.603 86.9353 483 85.5441 483 83.8406C483 82.137 481.599 80.7458 479.883 80.7458L468.31 80.7458C466.59 80.7458 465.193 82.137 465.193 83.8405C465.193 85.5441 466.594 86.9353 468.31 86.9353ZM479.883 81.1958C481.353 81.1958 482.551 82.385 482.551 83.8451C482.551 85.3053 481.353 86.4945 479.883 86.4945L468.31 86.4945C466.839 86.4945 465.641 85.3053 465.641 83.8451C465.641 82.385 466.839 81.1958 468.31 81.1958L479.883 81.1958Z" fill="#7F7F7F"/>
<path d="M467.265 75.0383L480.923 75.0383C481.945 75.0383 482.773 75.8606 482.773 76.875L482.773 78.9458C482.773 79.9602 481.945 80.7825 480.923 80.7825L467.265 80.7825C466.243 80.7825 465.415 79.9602 465.415 78.9458L465.415 76.875C465.415 75.8606 466.243 75.0383 467.265 75.0383Z" fill="#F9F9F9"/>
<path d="M468.31 81.0075L479.883 81.0075C481.603 81.0075 483 79.6162 483 77.9127C483 76.2092 481.599 74.8179 479.883 74.8179L468.31 74.8179C466.59 74.8179 465.193 76.2092 465.193 77.9127C465.193 79.6162 466.594 81.0075 468.31 81.0075ZM479.883 75.2633C481.353 75.2633 482.551 76.4526 482.551 77.9127C482.551 79.3729 481.353 80.5621 479.883 80.5621L468.31 80.5621C466.839 80.5621 465.641 79.3729 465.641 77.9127C465.641 76.4526 466.839 75.2633 468.31 75.2633L479.883 75.2633Z" fill="#7F7F7F"/>
<path d="M465.415 88.9603L465.415 73.0226C465.415 71.7876 466.423 70.7865 467.667 70.7865L470.206 70.7865C471.45 70.7865 472.459 71.7876 472.459 73.0226L472.459 88.9603C472.459 90.1952 471.45 91.1964 470.206 91.1964L467.667 91.1964C466.423 91.1964 465.415 90.1952 465.415 88.9603Z" fill="#F9F9F9"/>
<path d="M468.939 91.4214C471.007 91.4214 472.686 89.75 472.686 87.7021L472.686 74.2807C472.686 72.2282 471.002 70.5615 468.939 70.5615C466.876 70.5615 465.193 72.2328 465.193 74.2807L465.193 87.6975C465.193 89.75 466.876 91.4168 468.939 91.4168L468.939 91.4214ZM468.939 71.0115C470.757 71.0115 472.237 72.4808 472.237 74.2853L472.237 87.7021C472.237 89.5067 470.757 90.976 468.939 90.976C467.121 90.976 465.641 89.5067 465.641 87.7021L465.641 74.2807C465.641 72.4762 467.121 71.0069 468.939 71.0069L468.939 71.0115Z" fill="#7F7F7F"/>
<path d="M468.694 86.8527C465.355 86.8527 462.649 84.1658 462.649 80.8514C462.649 77.537 465.355 74.8501 468.694 74.8501C472.033 74.8501 474.739 77.537 474.739 80.8514C474.739 84.1658 472.033 86.8527 468.694 86.8527Z" fill="#7F7F7F"/>
</g>
<g clip-path="url(#clip12_2575_1113)">
<path d="M565.286 129.276L556.789 129.276C555.15 129.276 553.822 127.944 553.822 126.301C553.822 124.659 555.15 123.327 556.789 123.327L565.286 123.327C566.925 123.327 568.253 124.659 568.253 126.301C568.253 127.944 566.925 129.276 565.286 129.276Z" fill="#F2F2F2"/>
<path d="M565.291 123.129L556.789 123.129C555.044 123.129 553.628 124.553 553.628 126.299C553.628 128.046 555.044 129.474 556.789 129.474L565.291 129.474C567.035 129.474 568.451 128.05 568.451 126.303C568.451 124.557 567.031 123.133 565.291 123.133L565.291 123.129ZM556.789 129.082C555.262 129.082 554.019 127.835 554.019 126.303C554.019 124.772 555.262 123.525 556.789 123.525L565.291 123.525C566.817 123.525 568.06 124.772 568.06 126.303C568.06 127.835 566.817 129.082 565.291 129.082L556.789 129.082Z" fill="#7F7F7F"/>
<path d="M556.46 122.968L565.291 122.968C566.929 122.968 568.258 121.634 568.258 119.991L568.258 111.479C568.258 109.836 566.929 108.502 565.291 108.502L556.46 108.502C552.48 108.506 549.25 111.747 549.25 115.735C549.25 119.727 552.48 122.968 556.46 122.968Z" fill="#F2F2F2"/>
<path d="M565.29 108.308L556.459 108.308C552.373 108.308 549.052 111.64 549.052 115.735C549.052 119.83 552.373 123.166 556.459 123.166L565.29 123.166C567.035 123.166 568.451 121.742 568.451 119.995L568.451 111.483C568.451 109.732 567.031 108.312 565.29 108.312L565.29 108.308ZM556.459 122.774C552.591 122.774 549.443 119.616 549.443 115.735C549.443 111.854 552.591 108.7 556.455 108.7L565.286 108.7C566.813 108.7 568.056 109.947 568.056 111.479L568.056 119.991C568.056 121.523 566.813 122.77 565.286 122.77L556.455 122.77L556.459 122.774Z" fill="#7F7F7F"/>
<path d="M565.286 108.147L556.789 108.147C555.15 108.147 553.822 106.815 553.822 105.173C553.822 103.53 555.15 102.198 556.789 102.198L565.286 102.198C566.925 102.198 568.253 103.53 568.253 105.173C568.253 106.815 566.925 108.147 565.286 108.147Z" fill="#F2F2F2"/>
<path d="M565.291 102L556.789 102C555.044 102 553.628 103.424 553.628 105.171C553.628 106.917 555.048 108.341 556.789 108.341L565.291 108.341C567.035 108.341 568.451 106.917 568.451 105.171C568.451 103.424 567.031 102 565.291 102ZM556.789 107.949C555.262 107.949 554.019 106.702 554.019 105.171C554.019 103.639 555.262 102.392 556.789 102.392L565.291 102.392C566.817 102.392 568.06 103.639 568.06 105.171C568.06 106.702 566.817 107.949 565.291 107.949L556.789 107.949Z" fill="#7F7F7F"/>
<path d="M571.245 109.811L571.245 121.667C571.245 123.323 569.908 124.665 568.258 124.665L568.253 124.665C566.603 124.665 565.266 123.323 565.266 121.667L565.266 109.811C565.266 108.156 566.603 106.814 568.253 106.814L568.258 106.814C569.908 106.814 571.245 108.156 571.245 109.811Z" fill="#6BA940"/>
<path d="M568.253 106.615C566.496 106.615 565.068 108.048 565.068 109.811L565.068 121.667C565.068 123.43 566.496 124.863 568.253 124.863C570.011 124.863 571.439 123.43 571.439 121.667L571.439 109.811C571.439 108.048 570.011 106.615 568.253 106.615ZM568.253 124.466C566.714 124.466 565.459 123.211 565.459 121.663L565.459 109.807C565.459 108.263 566.71 107.004 568.253 107.004C569.797 107.004 571.048 108.259 571.048 109.807L571.048 121.663C571.048 123.207 569.797 124.466 568.253 124.466Z" fill="#6BA940"/>
</g>
<path d="M574.892 112.434L574.892 119.044C574.892 119.966 574.146 120.714 573.227 120.714L573.224 120.714C572.305 120.714 571.559 119.966 571.559 119.044L571.559 112.434C571.559 111.512 572.305 110.764 573.224 110.764L573.227 110.764C574.146 110.764 574.892 111.512 574.892 112.434Z" fill="black"/>
<path d="M573.225 110.653C572.245 110.653 571.449 111.452 571.449 112.434L571.449 119.044C571.449 120.026 572.245 120.825 573.225 120.825C574.204 120.825 575 120.026 575 119.044L575 112.434C575 111.452 574.204 110.653 573.225 110.653ZM573.225 120.604C572.367 120.604 571.667 119.904 571.667 119.041L571.667 112.432C571.667 111.572 572.364 110.87 573.225 110.87C574.085 110.87 574.782 111.569 574.782 112.432L574.782 119.041C574.782 119.902 574.085 120.604 573.225 120.604Z" fill="black"/>
<g clip-path="url(#clip13_2575_1113)">
<path d="M561.735 115.503L548.077 115.503C547.055 115.503 546.227 114.681 546.227 113.667L546.227 111.596C546.227 110.581 547.055 109.759 548.077 109.759L561.735 109.759C562.757 109.759 563.585 110.581 563.585 111.596L563.585 113.667C563.585 114.681 562.757 115.503 561.735 115.503Z" fill="#F9F9F9"/>
<path d="M560.69 109.539L549.117 109.539C547.397 109.539 546 110.93 546 112.633C546 114.337 547.401 115.728 549.117 115.728L560.69 115.728C562.41 115.728 563.807 114.337 563.807 112.633C563.807 110.93 562.406 109.539 560.69 109.539ZM549.117 115.278C547.647 115.278 546.449 114.089 546.449 112.629C546.449 111.169 547.647 109.98 549.117 109.98L560.69 109.98C562.161 109.98 563.359 111.169 563.359 112.629C563.359 114.089 562.161 115.278 560.69 115.278L549.117 115.278Z" fill="#7F7F7F"/>
<path d="M561.735 121.436L548.077 121.436C547.055 121.436 546.227 120.613 546.227 119.599L546.227 117.528C546.227 116.514 547.055 115.692 548.077 115.692L561.735 115.692C562.757 115.692 563.585 116.514 563.585 117.528L563.585 119.599C563.585 120.613 562.757 121.436 561.735 121.436Z" fill="#F9F9F9"/>
<path d="M560.69 115.467L549.117 115.467C547.397 115.467 546 116.858 546 118.561C546 120.265 547.401 121.656 549.117 121.656L560.69 121.656C562.41 121.656 563.807 120.265 563.807 118.561C563.807 116.858 562.406 115.467 560.69 115.467ZM549.117 121.211C547.647 121.211 546.449 120.021 546.449 118.561C546.449 117.101 547.647 115.912 549.117 115.912L560.69 115.912C562.161 115.912 563.359 117.101 563.359 118.561C563.359 120.021 562.161 121.211 560.69 121.211L549.117 121.211Z" fill="#7F7F7F"/>
<path d="M563.585 107.514L563.585 123.451C563.585 124.686 562.577 125.688 561.333 125.688L558.794 125.688C557.55 125.688 556.541 124.686 556.541 123.451L556.541 107.514C556.541 106.279 557.55 105.278 558.794 105.278L561.333 105.278C562.577 105.278 563.585 106.279 563.585 107.514Z" fill="#F9F9F9"/>
<path d="M560.061 105.053C557.993 105.053 556.314 106.724 556.314 108.772L556.314 122.193C556.314 124.246 557.998 125.913 560.061 125.913C562.124 125.913 563.807 124.241 563.807 122.193L563.807 108.776C563.807 106.724 562.124 105.057 560.061 105.057L560.061 105.053ZM560.061 125.463C558.243 125.463 556.763 123.993 556.763 122.189L556.763 108.772C556.763 106.967 558.243 105.498 560.061 105.498C561.879 105.498 563.359 106.967 563.359 108.772L563.359 122.193C563.359 123.998 561.879 125.467 560.061 125.467L560.061 125.463Z" fill="#7F7F7F"/>
<path d="M560.306 109.621C563.645 109.621 566.351 112.308 566.351 115.623C566.351 118.937 563.645 121.624 560.306 121.624C556.967 121.624 554.261 118.937 554.261 115.623C554.261 112.308 556.967 109.621 560.306 109.621Z" fill="#7F7F7F"/>
</g>
<g clip-path="url(#clip14_2575_1113)">
<path d="M463.714 32.1982L472.211 32.1982C473.85 32.1982 475.178 33.5299 475.178 35.1726C475.178 36.8154 473.85 38.1471 472.211 38.1471L463.714 38.1471C462.075 38.1471 460.747 36.8154 460.747 35.1726C460.747 33.5299 462.075 32.1982 463.714 32.1982Z" fill="#F2F2F2"/>
<path d="M463.709 38.3452L472.211 38.3452C473.956 38.3452 475.372 36.921 475.372 35.1747C475.372 33.4284 473.956 32 472.211 32L463.709 32C461.965 32 460.549 33.4243 460.549 35.1706C460.549 36.9168 461.969 38.3411 463.709 38.3411V38.3452ZM472.211 32.3922C473.738 32.3922 474.981 33.6389 474.981 35.1706C474.981 36.7022 473.738 37.9489 472.211 37.9489L463.709 37.9489C462.183 37.9489 460.94 36.7022 460.94 35.1706C460.94 33.6389 462.183 32.3922 463.709 32.3922L472.211 32.3922Z" fill="#7F7F7F"/>
<path d="M472.54 38.5063L463.709 38.5063C462.071 38.5063 460.742 39.8397 460.742 41.4828L460.742 49.9954C460.742 51.6385 462.071 52.9719 463.709 52.9719L472.54 52.9719C476.52 52.9678 479.75 49.727 479.75 45.7391C479.75 41.747 476.52 38.5063 472.54 38.5063Z" fill="#F2F2F2"/>
<path d="M463.71 53.1659L472.541 53.1659C476.627 53.1659 479.948 49.8344 479.948 45.7391C479.948 41.6438 476.627 38.3081 472.541 38.3081L463.71 38.3081C461.965 38.3081 460.549 39.7324 460.549 41.4786L460.549 49.9913C460.549 51.7417 461.969 53.1618 463.71 53.1618V53.1659ZM472.541 38.7003C476.409 38.7003 479.557 41.8585 479.557 45.7391C479.557 49.6197 476.409 52.7737 472.545 52.7737L463.714 52.7737C462.187 52.7737 460.944 51.527 460.944 49.9954L460.944 41.4828C460.944 39.9512 462.187 38.7044 463.714 38.7044L472.545 38.7044L472.541 38.7003Z" fill="#7F7F7F"/>
<path d="M463.714 53.3269L472.211 53.3269C473.85 53.3269 475.178 54.6586 475.178 56.3014C475.178 57.9441 473.85 59.2759 472.211 59.2759L463.714 59.2759C462.075 59.2759 460.747 57.9441 460.747 56.3014C460.747 54.6586 462.075 53.3269 463.714 53.3269Z" fill="#F2F2F2"/>
<path d="M463.709 59.474L472.211 59.474C473.956 59.474 475.372 58.0497 475.372 56.3035C475.372 54.5572 473.952 53.1329 472.211 53.1329L463.709 53.1329C461.965 53.1329 460.549 54.5572 460.549 56.3035C460.549 58.0497 461.969 59.474 463.709 59.474ZM472.211 53.5251C473.738 53.5251 474.981 54.7718 474.981 56.3035C474.981 57.8351 473.738 59.0818 472.211 59.0818L463.709 59.0818C462.183 59.0818 460.94 57.8351 460.94 56.3035C460.94 54.7718 462.183 53.5251 463.709 53.5251L472.211 53.5251Z" fill="#7F7F7F"/>
<path d="M457.755 51.6632L457.755 39.8067C457.755 38.1514 459.092 36.8095 460.742 36.8095H460.747C462.397 36.8095 463.734 38.1514 463.734 39.8067L463.734 51.6632C463.734 53.3185 462.397 54.6604 460.747 54.6604H460.742C459.092 54.6604 457.755 53.3185 457.755 51.6632Z" fill="#EC4021"/>
<path d="M460.747 54.8585C462.504 54.8585 463.932 53.426 463.932 51.6632L463.932 39.8067C463.932 38.0439 462.504 36.6113 460.747 36.6113C458.989 36.6113 457.561 38.0439 457.561 39.8067L457.561 51.6632C457.561 53.426 458.989 54.8585 460.747 54.8585ZM460.747 37.0077C462.286 37.0077 463.541 38.2627 463.541 39.8108L463.541 51.6674C463.541 53.2113 462.29 54.4705 460.747 54.4705C459.203 54.4705 457.952 53.2155 457.952 51.6674L457.952 39.8108C457.952 38.2668 459.203 37.0077 460.747 37.0077Z" fill="#EC4021"/>
</g>
<path d="M454.108 49.0395L454.108 42.4304C454.108 41.5077 454.854 40.7597 455.773 40.7597H455.776C456.695 40.7597 457.441 41.5077 457.441 42.4304L457.441 49.0395C457.441 49.9622 456.695 50.7102 455.776 50.7102H455.773C454.854 50.7102 454.108 49.9622 454.108 49.0395Z" fill="black"/>
<path d="M455.775 50.8207C456.755 50.8207 457.551 50.0221 457.551 49.0395L457.551 42.4304C457.551 41.4478 456.755 40.6492 455.775 40.6492C454.796 40.6492 454 41.4478 454 42.4304L454 49.0395C454 50.0221 454.796 50.8207 455.775 50.8207ZM455.775 40.8701C456.633 40.8701 457.333 41.5697 457.333 42.4327L457.333 49.0418C457.333 49.9025 456.636 50.6043 455.775 50.6043C454.915 50.6043 454.218 49.9048 454.218 49.0418L454.218 42.4327C454.218 41.572 454.915 40.8701 455.775 40.8701Z" fill="black"/>
<g clip-path="url(#clip15_2575_1113)">
<path d="M467.265 45.9707L480.923 45.9707C481.945 45.9707 482.773 46.793 482.773 47.8074V49.8782C482.773 50.8926 481.945 51.7149 480.923 51.7149L467.265 51.7149C466.243 51.7149 465.415 50.8926 465.415 49.8782V47.8074C465.415 46.793 466.243 45.9707 467.265 45.9707Z" fill="#F9F9F9"/>
<path d="M468.31 51.9353L479.883 51.9353C481.603 51.9353 483 50.544 483 48.8405C483 47.137 481.599 45.7457 479.883 45.7457L468.31 45.7457C466.59 45.7457 465.193 47.137 465.193 48.8405C465.193 50.544 466.594 51.9353 468.31 51.9353ZM479.883 46.1957C481.353 46.1957 482.551 47.385 482.551 48.8451C482.551 50.3053 481.353 51.4945 479.883 51.4945L468.31 51.4945C466.839 51.4945 465.641 50.3053 465.641 48.8451C465.641 47.385 466.839 46.1957 468.31 46.1957L479.883 46.1957Z" fill="#7F7F7F"/>
<path d="M467.265 40.0383L480.923 40.0383C481.945 40.0383 482.773 40.8606 482.773 41.875V43.9458C482.773 44.9602 481.945 45.7825 480.923 45.7825L467.265 45.7825C466.243 45.7825 465.415 44.9602 465.415 43.9458V41.875C465.415 40.8606 466.243 40.0383 467.265 40.0383Z" fill="#F9F9F9"/>
<path d="M468.31 46.0075L479.883 46.0075C481.603 46.0075 483 44.6162 483 42.9127C483 41.2092 481.599 39.8179 479.883 39.8179L468.31 39.8179C466.59 39.8179 465.193 41.2092 465.193 42.9127C465.193 44.6162 466.594 46.0075 468.31 46.0075ZM479.883 40.2633C481.353 40.2633 482.551 41.4525 482.551 42.9127C482.551 44.3728 481.353 45.5621 479.883 45.5621L468.31 45.5621C466.839 45.5621 465.641 44.3728 465.641 42.9127C465.641 41.4525 466.839 40.2633 468.31 40.2633L479.883 40.2633Z" fill="#7F7F7F"/>
<path d="M465.415 53.9602L465.415 38.0226C465.415 36.7876 466.423 35.7864 467.667 35.7864L470.206 35.7864C471.45 35.7864 472.459 36.7876 472.459 38.0226L472.459 53.9602C472.459 55.1952 471.45 56.1964 470.206 56.1964L467.667 56.1964C466.423 56.1964 465.415 55.1952 465.415 53.9602Z" fill="#F9F9F9"/>
<path d="M468.939 56.4214C471.007 56.4214 472.686 54.75 472.686 52.7021L472.686 39.2807C472.686 37.2282 471.002 35.5614 468.939 35.5614C466.876 35.5614 465.193 37.2328 465.193 39.2807L465.193 52.6975C465.193 54.75 466.876 56.4168 468.939 56.4168V56.4214ZM468.939 36.0114C470.757 36.0114 472.237 37.4808 472.237 39.2853L472.237 52.7021C472.237 54.5066 470.757 55.976 468.939 55.976C467.121 55.976 465.641 54.5066 465.641 52.7021L465.641 39.2807C465.641 37.4762 467.121 36.0068 468.939 36.0068V36.0114Z" fill="#7F7F7F"/>
<path d="M468.694 51.8526C465.355 51.8526 462.649 49.1658 462.649 45.8513C462.649 42.5369 465.355 39.8501 468.694 39.8501C472.033 39.8501 474.739 42.5369 474.739 45.8513C474.739 49.1658 472.033 51.8526 468.694 51.8526Z" fill="#7F7F7F"/>
</g>
<defs>
<clipPath id="clip0_2575_1113">
<rect width="17.1818" height="21" fill="white" transform="matrix(-1 0 0 1 632.182 57)"/>
</clipPath>
<clipPath id="clip1_2575_1113">
<rect width="15.2727" height="15.9091" fill="white" transform="matrix(-1 0 0 1 634.727 59.5455)"/>
</clipPath>
<clipPath id="clip2_2575_1113">
<rect width="17.1818" height="21" fill="white" transform="matrix(-1 0 0 1 632.182 83)"/>
</clipPath>
<clipPath id="clip3_2575_1113">
<rect width="15.2727" height="15.9091" fill="white" transform="matrix(-1 0 0 1 634.727 85.5455)"/>
</clipPath>
<clipPath id="clip4_2575_1113">
<rect width="22.3862" height="27.474" fill="white" transform="matrix(1 -8.74228e-08 -8.74228e-08 -1 549.052 59.474)"/>
</clipPath>
<clipPath id="clip5_2575_1113">
<rect width="20.3511" height="20.8599" fill="white" transform="matrix(1 -8.74228e-08 -8.74228e-08 -1 546 55.9126)"/>
</clipPath>
<clipPath id="clip6_2575_1113">
<rect width="22.3862" height="27.474" fill="white" transform="matrix(-1 0 0 1 479.948 102)"/>
</clipPath>
<clipPath id="clip7_2575_1113">
<rect width="20.3511" height="20.8599" fill="white" transform="matrix(-1 0 0 1 483 105.561)"/>
</clipPath>
<clipPath id="clip8_2575_1113">
<rect width="22.3862" height="27.474" fill="white" transform="matrix(1 8.74228e-08 8.74228e-08 -1 549.052 94.474)"/>
</clipPath>
<clipPath id="clip9_2575_1113">
<rect width="20.3511" height="20.8599" fill="white" transform="matrix(1 8.74228e-08 8.74228e-08 -1 546 90.9125)"/>
</clipPath>
<clipPath id="clip10_2575_1113">
<rect width="22.3862" height="27.474" fill="white" transform="matrix(-1 -1.74846e-07 -1.74846e-07 1 479.948 67)"/>
</clipPath>
<clipPath id="clip11_2575_1113">
<rect width="20.3511" height="20.8599" fill="white" transform="matrix(-1 -1.74846e-07 -1.74846e-07 1 483 70.5615)"/>
</clipPath>
<clipPath id="clip12_2575_1113">
<rect width="22.3862" height="27.474" fill="white" transform="matrix(1 -8.74228e-08 -8.74228e-08 -1 549.052 129.474)"/>
</clipPath>
<clipPath id="clip13_2575_1113">
<rect width="20.3511" height="20.8599" fill="white" transform="matrix(1 -8.74228e-08 -8.74228e-08 -1 546 125.913)"/>
</clipPath>
<clipPath id="clip14_2575_1113">
<rect width="22.3862" height="27.474" fill="white" transform="matrix(-1 0 0 1 479.948 32)"/>
</clipPath>
<clipPath id="clip15_2575_1113">
<rect width="20.3511" height="20.8599" fill="white" transform="matrix(-1 0 0 1 483 35.5614)"/>
</clipPath>
</defs>
</svg>
