<svg width="696" height="130" viewBox="0 0 696 130" fill="none" xmlns="http://www.w3.org/2000/svg">
<path d="M656 70C656 86.2921 649.17 101.043 638.128 111.72C628.605 120.928 615.947 127.107 601.834 128.63C599.585 128.875 597.299 129 594.983 129H421V11H594.983C597.299 11 599.586 11.1251 601.836 11.3695C632.308 14.6617 656 39.6541 656 70Z" fill="white" stroke="#EDEDED" stroke-miterlimit="10"/>
<path d="M696 70.0593C696 102.531 655.054 128.856 604.543 128.856C601.071 128.856 597.643 128.731 594.271 128.488C607.865 126.97 620.057 120.811 629.23 111.636C639.866 100.995 646.444 86.2952 646.444 70.0593C646.444 39.818 623.624 14.9117 594.272 11.6309C597.644 11.3873 601.071 11.2626 604.543 11.2626C655.054 11.2626 696 37.5874 696 70.0593Z" fill="#EDEDED"/>
<path d="M157 0H134V127H157V0Z" fill="#EDEDED"/>
<path d="M431 10.6196V129.141C431 129.21 430.948 129.269 430.878 129.277C361.876 136.437 279.334 88.1276 276.668 86.555C276.625 86.531 276.602 86.4857 276.602 86.4377V86.1619C276.602 86.0898 276.546 86.0289 276.473 86.0261L27.614 74.2006C25.8102 74.1143 24.2 73.3507 23.04 72.1698C21.88 70.9889 21.1716 69.3923 21.1716 67.6415C21.1716 64.0679 24.1172 61.1518 27.8006 61.0754L35.7284 60.9114C35.8013 60.91 35.8602 60.8491 35.8602 60.7756V46.3833C35.8602 46.3084 35.7999 46.2475 35.7256 46.2475H2.8558C1.27782 46.2475 0 44.9578 0 43.3682C0 41.7773 1.27922 40.4875 2.8558 40.4875H73.938C75.516 40.4875 76.7938 41.7773 76.7938 43.3668C76.7938 44.9578 75.5146 46.2475 73.938 46.2475H44.1176C44.0433 46.2475 43.983 46.3084 43.983 46.3833V60.6031C43.983 60.6794 44.0447 60.7402 44.1204 60.7388L276.47 55.9291C276.543 55.9277 276.602 55.8669 276.602 55.7934C276.602 55.7453 276.627 55.7015 276.668 55.676C363.582 3.25591 427.772 10.1162 430.882 10.4867C430.95 10.4952 431 10.5532 431 10.6211V10.6196Z" fill="#EDEDED"/>
</svg>
