<svg width="15" height="15" viewBox="0 0 15 15" fill="none" xmlns="http://www.w3.org/2000/svg">
<path d="M7.49997 6.99993C6.53461 6.99993 5.70993 6.65794 5.02595 5.97398C4.34198 5.29001 4 4.46534 4 3.49998C4 2.53459 4.34198 1.70992 5.02595 1.02595C5.70993 0.341984 6.53461 0 7.49997 0C8.46534 0 9.29002 0.341984 9.974 1.02595C10.658 1.70992 11 2.53459 11 3.49998C11 4.46534 10.658 5.29001 9.974 5.97398C9.29002 6.65794 8.46534 6.99993 7.49997 6.99993ZM0 13.0961V12.3923C0 11.9025 0.133016 11.449 0.39905 11.0317C0.665066 10.6144 1.02051 10.2936 1.46537 10.0692C2.45384 9.58459 3.45096 9.22113 4.45672 8.97883C5.46249 8.73653 6.47691 8.61538 7.49997 8.61538C8.52304 8.61538 9.53746 8.73653 10.5432 8.97883C11.549 9.22113 12.5461 9.58459 13.5346 10.0692C13.9794 10.2936 14.3349 10.6144 14.6009 11.0317C14.8669 11.449 15 11.9025 15 12.3923V13.0961C15 13.5179 14.8522 13.8765 14.5567 14.172C14.2612 14.4675 13.9025 14.6153 13.4808 14.6153H1.5192C1.09742 14.6153 0.738775 14.4675 0.443275 14.172C0.147758 13.8765 0 13.5179 0 13.0961Z" fill="#1C1B1F"/>
</svg>
