<svg width="135" height="45" viewBox="0 0 135 45" fill="none" xmlns="http://www.w3.org/2000/svg">
<rect x="0.5" y="0.5" width="133.884" height="43.9612" rx="5.5" fill="white"/>
<rect x="0.5" y="0.5" width="133.884" height="43.9612" rx="5.5" stroke="black"/>
<path d="M24.7045 20.7632C24.7166 19.8433 24.9669 18.9414 25.4321 18.1413C25.8972 17.3412 26.5621 16.6689 27.3648 16.1871C26.8548 15.4761 26.1821 14.8909 25.4 14.4781C24.6178 14.0653 23.7479 13.8362 22.8592 13.8091C20.9635 13.6148 19.1258 14.9165 18.1598 14.9165C17.1751 14.9165 15.6878 13.8284 14.0862 13.8605C13.0502 13.8932 12.0406 14.1873 11.1557 14.7142C10.2708 15.2411 9.54075 15.9828 9.03674 16.867C6.85352 20.5574 8.48201 25.981 10.5734 28.9641C11.6197 30.4248 12.8426 32.0565 14.4428 31.9986C16.0086 31.9352 16.5934 31.0238 18.4835 31.0238C20.3561 31.0238 20.9048 31.9986 22.5374 31.9618C24.2176 31.9352 25.2762 30.4946 26.2859 29.0201C27.0377 27.9793 27.6162 26.8289 28 25.6117C27.0238 25.2086 26.1908 24.5339 25.6048 23.6717C25.0187 22.8095 24.7056 21.798 24.7045 20.7632Z" fill="black"/>
<path d="M21.6208 11.8471C22.5369 10.7734 22.9883 9.39335 22.879 8C21.4793 8.14352 20.1865 8.7966 19.258 9.82911C18.804 10.3335 18.4563 10.9203 18.2348 11.556C18.0132 12.1917 17.9222 12.8638 17.9669 13.5338C18.6669 13.5408 19.3595 13.3927 19.9924 13.1005C20.6253 12.8084 21.1821 12.3798 21.6208 11.8471Z" fill="black"/>
<path d="M36.791 10.5015H38.8608C40.6494 10.5015 41.5195 11.5649 41.5195 13.4941C41.5195 15.4233 40.6406 16.5 38.8608 16.5H36.791V10.5015ZM37.7886 11.3408V15.6606H38.751C39.9375 15.6606 40.4956 14.9443 40.4956 13.5073C40.4956 12.0615 39.9331 11.3408 38.751 11.3408H37.7886ZM44.6748 11.7759C45.8877 11.7759 46.7358 12.5625 46.7358 13.8677V14.4697C46.7358 15.8188 45.8877 16.5791 44.6748 16.5791C43.4443 16.5791 42.605 15.8276 42.605 14.4741V13.8721C42.605 12.6021 43.4575 11.7759 44.6748 11.7759ZM44.6792 12.5625C43.9849 12.5625 43.5894 13.1426 43.5894 13.9204V14.439C43.5894 15.2168 43.9585 15.7925 44.6792 15.7925C45.3911 15.7925 45.7559 15.2212 45.7559 14.439V13.9204C45.7559 13.1426 45.3735 12.5625 44.6792 12.5625ZM53.8989 11.855L52.6772 16.5H51.6841L50.7129 13.0723H50.6865L49.7329 16.5H48.7354L47.4609 11.855H48.5112L49.2583 15.397H49.3022L50.2383 11.855H51.1567L52.1191 15.397H52.1631L52.9233 11.855H53.8989ZM54.8657 16.5V11.855H55.8237V12.6899H55.8721C55.9907 12.3252 56.3291 11.7847 57.2695 11.7847C58.2056 11.7847 58.834 12.3032 58.834 13.3623V16.5H57.8584V13.6479C57.8584 12.9404 57.4893 12.6152 56.9399 12.6152C56.2192 12.6152 55.8413 13.1689 55.8413 13.9204V16.5H54.8657ZM60.3105 16.5V10.1851H61.2861V16.5H60.3105ZM64.6348 11.7759C65.8477 11.7759 66.6958 12.5625 66.6958 13.8677V14.4697C66.6958 15.8188 65.8477 16.5791 64.6348 16.5791C63.4043 16.5791 62.5649 15.8276 62.5649 14.4741V13.8721C62.5649 12.6021 63.4175 11.7759 64.6348 11.7759ZM64.6392 12.5625C63.9448 12.5625 63.5493 13.1426 63.5493 13.9204V14.439C63.5493 15.2168 63.9185 15.7925 64.6392 15.7925C65.3511 15.7925 65.7158 15.2212 65.7158 14.439V13.9204C65.7158 13.1426 65.3335 12.5625 64.6392 12.5625ZM69.2227 16.5703C68.3218 16.5703 67.7021 16.0166 67.7021 15.1509C67.7021 14.3291 68.2734 13.7754 69.3457 13.7754H70.519V13.3403C70.519 12.8086 70.1807 12.5581 69.6445 12.5581C69.1172 12.5581 68.8799 12.7778 68.8052 13.0854H67.8779C67.9351 12.3076 68.5195 11.7847 69.6753 11.7847C70.6685 11.7847 71.4902 12.1978 71.4902 13.3535V16.5H70.563V15.8979H70.519C70.3125 16.2539 69.9082 16.5703 69.2227 16.5703ZM69.5259 15.8145C70.0796 15.8145 70.519 15.4365 70.519 14.9312V14.4302H69.4995C68.9326 14.4302 68.6821 14.7158 68.6821 15.1025C68.6821 15.5859 69.0864 15.8145 69.5259 15.8145ZM74.4961 11.7935C75.1509 11.7935 75.6519 12.0835 75.832 12.5537H75.8804V10.1851H76.856V16.5H75.9067V15.7573H75.8584C75.7178 16.2275 75.1597 16.5615 74.4829 16.5615C73.415 16.5615 72.7207 15.8013 72.7207 14.5752V13.7798C72.7207 12.5537 73.4282 11.7935 74.4961 11.7935ZM74.7686 12.5933C74.1182 12.5933 73.7139 13.0767 73.7139 13.9204V14.4302C73.7139 15.2783 74.1226 15.7617 74.7905 15.7617C75.4497 15.7617 75.8804 15.2827 75.8804 14.4917V13.7886C75.8804 13.0723 75.4102 12.5933 74.7686 12.5933ZM82.2129 11.7759C83.4258 11.7759 84.2739 12.5625 84.2739 13.8677V14.4697C84.2739 15.8188 83.4258 16.5791 82.2129 16.5791C80.9824 16.5791 80.1431 15.8276 80.1431 14.4741V13.8721C80.1431 12.6021 80.9956 11.7759 82.2129 11.7759ZM82.2173 12.5625C81.5229 12.5625 81.1274 13.1426 81.1274 13.9204V14.439C81.1274 15.2168 81.4966 15.7925 82.2173 15.7925C82.9292 15.7925 83.2939 15.2212 83.2939 14.439V13.9204C83.2939 13.1426 82.9116 12.5625 82.2173 12.5625ZM85.5308 16.5V11.855H86.4888V12.6899H86.5371C86.6558 12.3252 86.9941 11.7847 87.9346 11.7847C88.8706 11.7847 89.499 12.3032 89.499 13.3623V16.5H88.5234V13.6479C88.5234 12.9404 88.1543 12.6152 87.605 12.6152C86.8843 12.6152 86.5063 13.1689 86.5063 13.9204V16.5H85.5308ZM93.2739 11.8857V10.7256H94.2275V11.8857H95.269V12.6504H94.2275V15.1157C94.2275 15.6211 94.4165 15.7617 94.9395 15.7617C95.0713 15.7617 95.2471 15.7529 95.3218 15.7441V16.4912C95.2427 16.5044 94.9175 16.5308 94.6978 16.5308C93.5684 16.5308 93.2607 16.1265 93.2607 15.1948V12.6504H92.5532V11.8857H93.2739ZM96.4995 16.5V10.1851H97.4707V12.6899H97.519C97.6201 12.3604 97.998 11.7847 98.9297 11.7847C99.835 11.7847 100.481 12.3076 100.481 13.3667V16.5H99.5098V13.6523C99.5098 12.9448 99.1187 12.6152 98.5649 12.6152C97.8662 12.6152 97.4707 13.1646 97.4707 13.9204V16.5H96.4995ZM103.755 16.5791C102.489 16.5791 101.703 15.8013 101.703 14.4917V13.8633C101.703 12.5449 102.564 11.7759 103.698 11.7759C104.862 11.7759 105.684 12.5845 105.684 13.8633V14.4082H102.669V14.6367C102.669 15.3047 103.065 15.7969 103.75 15.7969C104.26 15.7969 104.612 15.5552 104.678 15.2651H105.631C105.574 15.8013 105.007 16.5791 103.755 16.5791ZM102.669 13.771H104.73V13.7095C104.73 13.0107 104.322 12.5449 103.702 12.5449C103.083 12.5449 102.669 13.0107 102.669 13.7095V13.771Z" fill="black"/>
<path d="M38.2061 32.5H36.1758L40.3066 20.5029H42.5391L46.6611 32.5H44.5518L43.4883 29.1777H39.2783L38.2061 32.5ZM41.4316 22.5771H41.3525L39.7266 27.6484H43.04L41.4316 22.5771ZM52.2644 32.6318C51.0603 32.6318 50.1462 32.0605 49.654 31.208H49.5837V35.585H47.6325V23.21H49.531V24.5723H49.6013C50.1111 23.6846 51.0603 23.0869 52.3083 23.0869C54.3913 23.0869 55.8767 24.6602 55.8767 27.4375V28.2637C55.8767 31.0234 54.4089 32.6318 52.2644 32.6318ZM51.8161 31.0234C53.0554 31.0234 53.8991 30.0303 53.8991 28.1582V27.5078C53.8991 25.7061 53.1081 24.6777 51.781 24.6777C50.4187 24.6777 49.5661 25.7852 49.5661 27.499V28.1582C49.5661 29.916 50.4275 31.0234 51.8161 31.0234ZM62.183 32.6318C60.9789 32.6318 60.0649 32.0605 59.5727 31.208H59.5024V35.585H57.5512V23.21H59.4496V24.5723H59.52C60.0297 23.6846 60.9789 23.0869 62.227 23.0869C64.31 23.0869 65.7954 24.6602 65.7954 27.4375V28.2637C65.7954 31.0234 64.3276 32.6318 62.183 32.6318ZM61.7348 31.0234C62.9741 31.0234 63.8178 30.0303 63.8178 28.1582V27.5078C63.8178 25.7061 63.0268 24.6777 61.6996 24.6777C60.3373 24.6777 59.4848 25.7852 59.4848 27.499V28.1582C59.4848 29.916 60.3461 31.0234 61.7348 31.0234ZM69.8387 29.1689H71.7899C71.8778 30.2061 72.7919 31.0938 74.4882 31.0938C76.0438 31.0938 76.9667 30.3643 76.9667 29.2305C76.9667 28.3164 76.3514 27.8242 75.0682 27.5166L73.0995 27.0244C71.5526 26.6641 70.1639 25.7412 70.1639 23.79C70.1639 21.4961 72.1679 20.2393 74.497 20.2393C76.8261 20.2393 78.7684 21.4961 78.8124 23.7373H76.8964C76.8085 22.7178 76.0262 21.874 74.4706 21.874C73.0995 21.874 72.1679 22.5244 72.1679 23.6406C72.1679 24.4229 72.7128 24.9854 73.829 25.2402L75.7889 25.7236C77.5907 26.1631 78.9618 27.0156 78.9618 29.0547C78.9618 31.4102 77.0546 32.7373 74.3387 32.7373C70.9989 32.7373 69.8827 30.7861 69.8387 29.1689ZM81.3395 23.21V20.9512H83.2555V23.21H85.066V24.7744H83.2555V29.7314C83.2555 30.7422 83.6334 31.0234 84.6793 31.0234C84.8463 31.0234 85.0045 31.0234 85.1188 31.0059V32.5C84.9605 32.5264 84.5914 32.5615 84.1959 32.5615C81.9371 32.5615 81.3131 31.7529 81.3131 29.8896V24.7744H80.0299V23.21H81.3395ZM90.3353 23.0518C93.0071 23.0518 94.4573 24.9326 94.4573 27.4639V28.2109C94.4573 30.8301 93.0159 32.6582 90.3353 32.6582C87.6546 32.6582 86.1956 30.8301 86.1956 28.2109V27.4639C86.1956 24.9414 87.6634 23.0518 90.3353 23.0518ZM90.3353 24.6162C88.8851 24.6162 88.1644 25.8027 88.1644 27.4902V28.2021C88.1644 29.8633 88.8763 31.085 90.3353 31.085C91.7943 31.085 92.4974 29.8721 92.4974 28.2021V27.4902C92.4974 25.7939 91.7855 24.6162 90.3353 24.6162ZM96.1055 32.5V23.21H98.0567V24.4316H98.127C98.3643 23.8516 99.0586 23.0781 100.351 23.0781C100.606 23.0781 100.825 23.0957 101.01 23.1309V24.8535C100.843 24.8096 100.5 24.7832 100.175 24.7832C98.6104 24.7832 98.083 25.75 98.083 26.998V32.5H96.1055ZM105.743 32.6582C103.256 32.6582 101.674 31.0146 101.674 28.2637V27.3232C101.674 24.7305 103.22 23.0518 105.664 23.0518C108.142 23.0518 109.636 24.792 109.636 27.4111V28.2988H103.598V28.5186C103.598 30.083 104.442 31.1201 105.769 31.1201C106.762 31.1201 107.439 30.6279 107.677 29.8281H109.531C109.25 31.3311 108.037 32.6582 105.743 32.6582ZM103.598 26.9365H107.729V26.9189C107.729 25.6006 106.912 24.5635 105.673 24.5635C104.416 24.5635 103.598 25.6006 103.598 26.9189V26.9365Z" fill="black"/>
</svg>
